<?xml version="1.0" standalone="no"?>
<!DOCTYPE svg PUBLIC "-//W3C//DTD SVG 1.1//EN" "http://www.w3.org/Graphics/SVG/1.1/DTD/svg11.dtd" >
<svg xmlns="http://www.w3.org/2000/svg" xmlns:xlink="http://www.w3.org/1999/xlink" version="1.1">
<metadata>
Created by FontForge 20170731 at Wed Feb  2 18:20:35 2022
 By Aleksey,,,
Copyright (c) 2016 by Radomir Tinkov. All rights reserved.
</metadata>
<defs>
<font id="Gilroy-Thin" horiz-adv-x="1167" >
  <font-face 
    font-family="Gilroy Thin"
    font-weight="250"
    font-stretch="normal"
    units-per-em="2048"
    panose-1="0 0 3 0 0 0 0 0 0 0"
    ascent="1638"
    descent="-410"
    x-height="1024"
    cap-height="1434"
    bbox="-573 -492 2148 1966"
    underline-thickness="102"
    underline-position="-307"
    unicode-range="U+0020-FB02"
  />
<missing-glyph horiz-adv-x="1024" 
d="M840 1638v-2048h-650v2048h650zM682 1501h-338v-67h133v-76h-135v-68h340v68h-135v76h135v67zM547 1237h-205v-213h340v70h-135v143zM477 1167v-73h-67v73h67zM682 969h-340v-68h135v-76h-135v-67h205v143h135v68zM682 846h-68v-135h-272v-70h340v205zM682 596h-205v-115
h70v47h67v-96h-204v164h-68v-231h340v231zM682 242h-340v-232h340v232zM614 174v-96h-204v96h204zM682 -37h-340v-67h143l-143 -97v-67h340v67h-209l143 97h66v67z" />
    <glyph glyph-name="fi" unicode="fi" horiz-adv-x="1021" 
d="M838 1024v-1024h-41v987h-510v-987h-41v987h-185v37h185v82q0 348 366 348q107 0 205 -20v-37q-98 20 -205 20q-170 0 -247.5 -77t-77.5 -234v-82h551z" />
    <glyph glyph-name="fl" unicode="fl" horiz-adv-x="1021" 
d="M612 1454q106 0 226 -20v-1434h-41v1403q-74 14 -185 14q-170 0 -247.5 -77t-77.5 -234v-82h264v-37h-264v-987h-41v987h-185v37h185v82q0 348 366 348z" />
    <glyph glyph-name="f_f" unicode="ff" horiz-adv-x="1163" 
d="M1163 1438q-167 13 -246 -69.5t-79 -242.5v-102h325v-37h-325v-987h-41v987h-510v-987h-41v987h-185v37h185v82q0 176 91 269.5t275 78.5v-37q-167 13 -246 -69t-79 -242v-82h510v102q0 176 91 269.5t275 79.5v-37z" />
    <glyph glyph-name="f_f_i" unicode="ffi" horiz-adv-x="1572" 
d="M1389 1024v-1024h-41v987h-510v-987h-41v987h-510v-987h-41v987h-185v37h185v82q0 176 91 269.5t275 78.5v-37q-167 13 -246 -69t-79 -242v-82h510v102q0 349 366 349q102 0 205 -21v-37q-103 21 -205 21q-170 0 -247.5 -77.5t-77.5 -234.5v-102h551z" />
    <glyph glyph-name="f_f_l" unicode="ffl" horiz-adv-x="1572" 
d="M1163 1475q100 0 226 -21v-1454h-41v1423q-79 15 -185 15q-170 0 -247.5 -77.5t-77.5 -234.5v-102h264v-37h-264v-987h-41v987h-510v-987h-41v987h-185v37h185v82q0 176 91 269.5t275 78.5v-37q-167 13 -246 -69t-79 -242v-82h510v102q0 349 366 349z" />
    <glyph glyph-name=".notdef" horiz-adv-x="1024" 
d="M840 1638v-2048h-650v2048h650zM682 1501h-338v-67h133v-76h-135v-68h340v68h-135v76h135v67zM547 1237h-205v-213h340v70h-135v143zM477 1167v-73h-67v73h67zM682 969h-340v-68h135v-76h-135v-67h205v143h135v68zM682 846h-68v-135h-272v-70h340v205zM682 596h-205v-115
h70v47h67v-96h-204v164h-68v-231h340v231zM682 242h-340v-232h340v232zM614 174v-96h-204v96h204zM682 -37h-340v-67h143l-143 -97v-67h340v67h-209l143 97h66v67z" />
    <glyph glyph-name=".null" horiz-adv-x="0" 
 />
    <glyph glyph-name="nonmarkingreturn" horiz-adv-x="682" 
 />
    <glyph glyph-name="space" unicode=" " horiz-adv-x="614" 
 />
    <glyph glyph-name="exclam" unicode="!" horiz-adv-x="409" 
d="M184 328v1106h41v-1106h-41zM205 -20q-22 0 -36.5 14.5t-14.5 36.5t14.5 36.5t36.5 14.5t36.5 -14.5t14.5 -36.5t-14.5 -36.5t-36.5 -14.5z" />
    <glyph glyph-name="quotedbl" unicode="&#x22;" horiz-adv-x="532" 
d="M123 1106v328h41v-328h-41zM369 1106v328h41v-328h-41z" />
    <glyph glyph-name="numbersign" unicode="#" horiz-adv-x="1253" 
d="M1145 881h-246l-53 -328h246l-9 -41h-245l-68 -410h-41l68 410h-410l-68 -410h-40l67 410h-244l7 41h245l54 328h-246l6 41h248l67 409h41l-67 -409h409l68 409h41l-68 -409h244zM805 553l53 328h-409l-54 -328h410z" />
    <glyph glyph-name="dollar" unicode="$" horiz-adv-x="1126" 
d="M1024 352q0 -157 -111 -257.5t-301 -112.5v-187h-41v185h-6q-177 0 -301 72.5t-162 201.5l35 20q34 -126 148.5 -192t279.5 -66h6v695q-56 18 -91 30.5t-83 33.5t-78 40.5t-63.5 49t-52 61.5t-31 75t-12.5 93q0 152 117.5 256t293.5 104v184h41v-186q135 -7 231.5 -71.5
t139.5 -174.5l-33 -18q-37 98 -122.5 158t-215.5 69v-678q56 -20 93.5 -34t85 -36t78 -42.5t63 -49.5t50.5 -60.5t30 -73t12 -89.5zM201 1094q0 -45 12 -84t28.5 -67t49 -55t57.5 -43.5t71 -36.5t73.5 -30t78.5 -28v667q-167 0 -268.5 -97t-101.5 -226zM612 18
q180 12 275.5 105t95.5 229q0 58 -19.5 105.5t-50 81t-81.5 63.5t-100 50t-120 44v-678z" />
    <glyph glyph-name="percent" unicode="%" horiz-adv-x="1492" 
d="M457 848q-134 0 -224 87.5t-90 215.5t90 215.5t224 87.5t223.5 -87.5t89.5 -215.5q0 -129 -88 -216t-225 -87zM457 885q118 0 195 75t77 191q0 114 -77.5 190t-194.5 76t-195 -76t-78 -190t78 -190t195 -76zM233 164l994 1124l33 -18l-996 -1125zM1036 -20
q-134 0 -223.5 87.5t-89.5 215.5t89.5 215.5t223.5 87.5t224 -87.5t90 -215.5t-90 -215.5t-224 -87.5zM1036 16q117 0 195 76.5t78 190.5t-78 190t-195 76t-194.5 -76t-77.5 -190t77.5 -190.5t194.5 -76.5z" />
    <glyph glyph-name="ampersand" unicode="&#x26;" horiz-adv-x="1333" 
d="M1272 20l-35 -20l-197 199q-159 -219 -442 -219q-214 0 -334.5 109t-120.5 292q0 139 81 252t222 172q-64 71 -98.5 141t-34.5 156q0 156 113.5 254t284.5 98q133 0 231 -65t139 -181l-32 -18q-36 105 -124 166t-214 61q-163 0 -260 -91t-97 -228q0 -51 14 -96.5
t46.5 -91.5t61.5 -79.5t83 -87.5l475 -481q82 128 105 309l35 -20q-27 -183 -111 -320zM596 16q124 0 233 53.5t183 159.5l-482 490q-39 39 -55 57q-142 -55 -216.5 -161.5t-74.5 -235.5q0 -169 112 -266t300 -97z" />
    <glyph glyph-name="quotesingle" unicode="'" horiz-adv-x="266" 
d="M123 1106v328h41v-328h-41z" />
    <glyph glyph-name="parenleft" unicode="(" horiz-adv-x="512" 
d="M348 -205q-225 452 -225 922q0 469 225 921h41q-225 -452 -225 -921q0 -470 225 -922h-41z" />
    <glyph glyph-name="parenright" unicode=")" horiz-adv-x="512" 
d="M164 -205h-41q225 452 225 922q0 469 -225 921h41q225 -452 225 -921q0 -470 -225 -922z" />
    <glyph glyph-name="asterisk" unicode="*" horiz-adv-x="770" 
d="M627 1257v-36l-211 2l112 -179l-32 -20l-111 182l-111 -182l-32 20l112 179l-211 -2v36l211 -2l-112 179l32 20l111 -182l111 182l32 -20l-112 -179z" />
    <glyph glyph-name="plus" unicode="+" horiz-adv-x="1064" 
d="M922 735v-37h-369v-370h-41v370h-369v37h369v371h41v-371h369z" />
    <glyph glyph-name="comma" unicode="," horiz-adv-x="389" 
d="M256 72l-86 -359h-37l70 359h53z" />
    <glyph glyph-name="hyphen" unicode="-" horiz-adv-x="1146" 
d="M205 614v37h737v-37h-737z" />
    <glyph glyph-name="period" unicode="." horiz-adv-x="368" 
d="M184 -20q-22 0 -36.5 14.5t-14.5 36.5t14.5 36.5t36.5 14.5t37 -14.5t15 -36.5t-15 -36.5t-37 -14.5z" />
    <glyph glyph-name="slash" unicode="/" horiz-adv-x="1064" 
d="M143 -205h-41l820 1843h41z" />
    <glyph glyph-name="zero" unicode="0" horiz-adv-x="1290" 
d="M645 -20q-244 0 -383 200.5t-139 536.5t139 536.5t383 200.5t383 -200.5t139 -536.5t-139 -536.5t-383 -200.5zM645 16q222 0 351.5 187.5t129.5 513.5t-129.5 513t-351.5 187t-351.5 -187t-129.5 -513t129.5 -513.5t351.5 -187.5z" />
    <glyph glyph-name="one" unicode="1" horiz-adv-x="647" 
d="M412 1434h30v-1434h-41v1391l-350 -119l-10 35z" />
    <glyph glyph-name="two" unicode="2" horiz-adv-x="1085" 
d="M102 0v37l545 581q119 127 186.5 238.5t67.5 218.5q0 152 -101 247t-268 95q-140 0 -239 -66t-148 -180l-32 21q54 124 164 193t255 69q176 0 293 -102.5t117 -276.5q0 -114 -71.5 -231t-196.5 -252l-518 -555h827v-37h-881z" />
    <glyph glyph-name="three" unicode="3" horiz-adv-x="1140" 
d="M571 840q195 -8 321 -126.5t126 -303.5q0 -190 -132 -310t-329 -120q-157 0 -274 66.5t-170 184.5l32 21q47 -109 153.5 -172.5t258.5 -63.5q188 0 304 112.5t116 281.5q0 170 -117.5 281.5t-312.5 111.5h-12l-17 24l373 570h-754v37h799v-37z" />
    <glyph glyph-name="four" unicode="4" horiz-adv-x="1146" 
d="M1096 365v-37h-185v-328h-41v328h-798v37l565 1069h45l-565 -1069h753v475h41v-475h185z" />
    <glyph glyph-name="five" unicode="5" horiz-adv-x="1112" 
d="M549 840q204 0 337.5 -119.5t133.5 -310.5t-133.5 -310.5t-337.5 -119.5q-152 0 -267.5 68.5t-168.5 187.5l32 20q47 -110 152 -175t252 -65q195 0 312.5 112t117.5 282t-117.5 281.5t-312.5 111.5h-371l43 631h737v-37h-702l-37 -557h330z" />
    <glyph glyph-name="six" unicode="6" horiz-adv-x="1126" 
d="M563 922q210 0 345.5 -131.5t135.5 -339.5t-135.5 -339.5t-345.5 -131.5t-345.5 131.5t-135.5 339.5q0 159 88 284l502 699h45l-414 -580q117 68 260 68zM563 16q202 0 321.5 124t119.5 311t-119.5 310.5t-321.5 123.5t-321 -123.5t-119 -310.5t119 -311t321 -124z" />
    <glyph glyph-name="seven" unicode="7" horiz-adv-x="1003" 
d="M61 1434h840v-37l-588 -1397h-41l590 1397h-801v37z" />
    <glyph glyph-name="eight" unicode="8" horiz-adv-x="1134" 
d="M719 741q147 -34 230 -131t83 -241q0 -178 -126 -283.5t-339 -105.5t-339 105.5t-126 283.5q0 143 83 240.5t231 131.5q-124 37 -196.5 128.5t-72.5 217.5q0 163 117 265t303 102t303 -102t117 -265q0 -126 -72 -217.5t-196 -128.5zM188 1087q0 -141 100.5 -235
t278.5 -94t278.5 94t100.5 235t-100.5 235.5t-278.5 94.5t-278.5 -94.5t-100.5 -235.5zM567 16q204 0 314 98t110 255t-110 254.5t-314 97.5t-314 -97.5t-110 -254.5t110 -255t314 -98z" />
    <glyph glyph-name="nine" unicode="9" horiz-adv-x="1126" 
d="M1044 983q0 -160 -88 -285l-501 -698h-45l413 580q-117 -68 -260 -68q-210 0 -345.5 131.5t-135.5 339.5t135.5 339.5t345.5 131.5t345.5 -131.5t135.5 -339.5zM123 983q0 -187 119 -310.5t321 -123.5t321.5 123.5t119.5 310.5t-119.5 310.5t-321.5 123.5t-321 -123.5
t-119 -310.5z" />
    <glyph glyph-name="colon" unicode=":" horiz-adv-x="368" 
d="M184 881q-22 0 -36.5 14.5t-14.5 36.5t14.5 36.5t36.5 14.5t37 -14.5t15 -36.5t-15 -36.5t-37 -14.5zM184 -20q-22 0 -36.5 14.5t-14.5 36.5t14.5 36.5t36.5 14.5t37 -14.5t15 -36.5t-15 -36.5t-37 -14.5z" />
    <glyph glyph-name="semicolon" unicode=";" horiz-adv-x="409" 
d="M225 881q-22 0 -36.5 14.5t-14.5 36.5t14.5 36.5t36.5 14.5t36.5 -14.5t14.5 -36.5t-14.5 -36.5t-36.5 -14.5zM256 72l-86 -359h-37l70 359h53z" />
    <glyph glyph-name="less" unicode="&#x3c;" horiz-adv-x="1105" 
d="M963 1110v-41l-775 -352l775 -352v-41l-820 374v37z" />
    <glyph glyph-name="equal" unicode="=" horiz-adv-x="1085" 
d="M143 903v37h799v-37h-799zM143 494v36h799v-36h-799z" />
    <glyph glyph-name="greater" unicode="&#x3e;" horiz-adv-x="1105" 
d="M143 1110l820 -375v-37l-820 -374v41l775 352l-775 352v41z" />
    <glyph glyph-name="question" unicode="?" horiz-adv-x="1077" 
d="M492 328q0 73 22 140.5t57.5 121t78 104.5t85.5 99.5t78.5 96t57.5 103t22 113.5q0 141 -91.5 226t-266.5 85q-136 0 -239 -67t-138 -168l-35 18q41 113 156.5 183.5t255.5 70.5q184 0 291.5 -93t107.5 -255q0 -60 -22 -118t-57.5 -106.5t-78.5 -97.5t-86 -99.5
t-78.5 -103t-57.5 -118t-22 -135.5h-40zM512 -20q-22 0 -36.5 14.5t-14.5 36.5t14.5 36.5t36.5 14.5t36.5 -14.5t14.5 -36.5t-14.5 -36.5t-36.5 -14.5z" />
    <glyph glyph-name="at" unicode="@" horiz-adv-x="1708" 
d="M868 1253q133 0 249.5 -40t201 -109t145.5 -158.5t91 -190t30 -202.5q0 -113 -22.5 -196t-61.5 -129t-84.5 -67.5t-97.5 -21.5q-93 0 -137.5 59.5t-44.5 143.5v27q-36 -85 -113 -135t-178 -50q-142 0 -237 94.5t-95 233.5t95 233.5t237 94.5q101 0 178 -50t113 -135v170
h41v-483q0 -78 37 -122t104 -44q106 0 165.5 99t59.5 278q0 138 -52.5 261t-142.5 211.5t-215 140t-266 51.5q-146 0 -276.5 -55t-224 -149t-148.5 -224.5t-55 -276.5q0 -200 95.5 -361.5t265 -252.5t380.5 -91q199 0 342 54l15 -35q-151 -55 -357 -55q-221 0 -399.5 95
t-280.5 264.5t-102 381.5q0 203 96.5 372.5t268 269t380.5 99.5zM846 221q124 0 207.5 83.5t83.5 207.5t-83.5 207.5t-207.5 83.5t-207.5 -83.5t-83.5 -207.5t83.5 -207.5t207.5 -83.5z" />
    <glyph glyph-name="A" unicode="A" horiz-adv-x="1286" 
d="M1192 0l-154 391h-790l-154 -391h-43l567 1434h50l567 -1434h-43zM262 428h762l-381 963z" />
    <glyph glyph-name="B" unicode="B" horiz-adv-x="1290" 
d="M889 737q129 -27 214 -128.5t85 -233.5q0 -155 -110 -265t-265 -110h-608v1434h561q149 0 254.5 -106.5t105.5 -254.5q0 -116 -65.5 -207.5t-171.5 -128.5zM766 1397h-520v-647h520q132 0 225.5 94.5t93.5 228.5q0 133 -94 228.5t-225 95.5zM813 37q138 0 236 99t98 239
q0 139 -98.5 238.5t-235.5 99.5h-567v-676h567z" />
    <glyph glyph-name="C" unicode="C" horiz-adv-x="1564" 
d="M860 -20q-210 0 -379.5 99t-263.5 267.5t-94 370.5t94 370.5t263.5 267.5t379.5 99q190 0 351 -89.5t251 -240.5l-35 -20q-84 143 -236 228t-331 85q-199 0 -359 -94t-248.5 -254t-88.5 -352t88.5 -352t248.5 -254.5t359 -94.5q186 0 341 89.5t235 238.5l37 -20
q-89 -157 -253 -250.5t-360 -93.5z" />
    <glyph glyph-name="D" unicode="D" horiz-adv-x="1515" 
d="M717 1434q145 0 271.5 -56.5t215 -153.5t139 -228.5t50.5 -278.5t-50.5 -278.5t-139 -228.5t-215 -153.5t-271.5 -56.5h-512v1434h512zM717 37q138 0 257 53.5t201.5 145.5t129.5 217t47 264t-47 264t-129.5 217t-201.5 145.5t-257 53.5h-471v-1360h471z" />
    <glyph glyph-name="E" unicode="E" horiz-adv-x="1105" 
d="M246 37h758v-37h-799v1434h788v-37h-747v-656h696v-36h-696v-668z" />
    <glyph glyph-name="F" unicode="F" horiz-adv-x="1075" 
d="M973 1397h-727v-664h717v-37h-717v-696h-41v1434h768v-37z" />
    <glyph glyph-name="G" unicode="G" horiz-adv-x="1679" 
d="M1556 641v-20q0 -131 -48.5 -248.5t-135 -204t-214 -137.5t-277.5 -51q-165 0 -307.5 58t-240.5 157.5t-154 234.5t-56 287q0 202 94 370.5t263.5 267.5t379.5 99q193 0 355 -92t251 -246l-34 -20q-82 147 -235.5 234t-336.5 87q-199 0 -359 -94t-248.5 -254t-88.5 -352
q0 -193 89.5 -352.5t254.5 -254t373 -94.5q139 0 258 46.5t200.5 126t128.5 187t50 228.5h-680v37h718z" />
    <glyph glyph-name="H" unicode="H" horiz-adv-x="1433" 
d="M1188 1434h41v-1434h-41v719h-942v-719h-41v1434h41v-678h942v678z" />
    <glyph glyph-name="I" unicode="I" horiz-adv-x="450" 
d="M205 1434h41v-1434h-41v1434z" />
    <glyph glyph-name="J" unicode="J" horiz-adv-x="1134" 
d="M510 -20q-150 0 -256 61t-152 170l33 20q43 -103 140 -159t235 -56q187 0 293 99t106 254v1065h41v-1065q0 -177 -122 -283t-318 -106z" />
    <glyph glyph-name="K" unicode="K" horiz-adv-x="1136" 
d="M1116 0h-55l-815 727v-727h-41v1434h41v-686l794 686h56l-805 -697z" />
    <glyph glyph-name="L" unicode="L" horiz-adv-x="1024" 
d="M246 37h717v-37h-758v1434h41v-1397z" />
    <glyph glyph-name="M" unicode="M" horiz-adv-x="1679" 
d="M1475 1434v-1434h-41v1378l-586 -950h-17l-585 950v-1378h-41v1434h53l582 -947l581 947h54z" />
    <glyph glyph-name="N" unicode="N" horiz-adv-x="1433" 
d="M1188 1434h41v-1434h-41l-942 1364v-1364h-41v1434h41l942 -1364v1364z" />
    <glyph glyph-name="O" unicode="O" horiz-adv-x="1720" 
d="M860 -20q-150 0 -286.5 58t-235.5 157t-157 235.5t-58 286.5t58 286.5t157 235.5t235.5 157t286.5 58t286.5 -58t235.5 -157t157 -235.5t58 -286.5t-58 -286.5t-157 -235.5t-235.5 -157t-286.5 -58zM860 16q189 0 349.5 94t253.5 255.5t93 351.5q0 143 -55 272.5
t-148 223t-222 149t-271 55.5t-271 -55.5t-222 -149t-148 -223t-55 -272.5q0 -190 93 -351.5t253.5 -255.5t349.5 -94z" />
    <glyph glyph-name="P" unicode="P" horiz-adv-x="1187" 
d="M645 1434q191 0 315.5 -122.5t124.5 -307.5t-124.5 -308t-315.5 -123h-399v-573h-41v1434h440zM645 610q174 0 286.5 112t112.5 282t-112.5 281.5t-286.5 111.5h-399v-787h399z" />
    <glyph glyph-name="Q" unicode="Q" horiz-adv-x="1730" 
d="M1597 717q0 -162 -65.5 -306t-181.5 -247l178 -176l-27 -27l-180 180q-200 -161 -461 -161q-150 0 -286.5 58t-235.5 157t-157 235.5t-58 286.5t58 286.5t157 235.5t235.5 157t286.5 58t286.5 -58t235.5 -157t157 -235.5t58 -286.5zM860 16q240 0 432 152l-327 326l26 24
l330 -325q110 97 172.5 233.5t62.5 290.5q0 143 -55 272.5t-148 223t-222 149t-271 55.5t-271 -55.5t-222 -149t-148 -223t-55 -272.5q0 -190 93 -351.5t253.5 -255.5t349.5 -94z" />
    <glyph glyph-name="R" unicode="R" horiz-adv-x="1269" 
d="M1208 0h-45l-364 616q-12 -2 -41 -2h-512v-614h-41v1434h553q169 0 289 -120.5t120 -289.5q0 -146 -93 -258.5t-234 -142.5zM246 651h512q152 0 260 109.5t108 263.5t-108 263.5t-260 109.5h-512v-746z" />
    <glyph glyph-name="S" unicode="S" 
d="M618 -20q-199 0 -332 89t-173 226l34 20q37 -134 161 -216.5t310 -82.5q102 0 181.5 27.5t127.5 75.5t72.5 108.5t24.5 130.5q0 68 -29.5 123t-88 96.5t-128.5 71.5t-166 58q-86 25 -144 46t-119 53.5t-97 69t-59 89.5t-23 118q0 155 117.5 263t304.5 108
q164 0 273 -80.5t159 -208.5l-33 -18q-21 54 -51.5 99t-77.5 85t-116 63t-154 23q-92 0 -166.5 -29t-120 -77.5t-70 -107t-24.5 -120.5q0 -59 25.5 -108t53 -78.5t98 -63t106.5 -46.5t133 -45q1 -1 2 -1q82 -27 140 -50.5t117.5 -57.5t96 -71.5t59.5 -89.5t23 -114
q0 -169 -120 -273.5t-327 -104.5z" />
    <glyph glyph-name="T" unicode="T" horiz-adv-x="1105" 
d="M1044 1434v-37h-471v-1397h-41v1397h-471v37h983z" />
    <glyph glyph-name="U" unicode="U" horiz-adv-x="1392" 
d="M696 -20q-235 0 -373.5 134t-138.5 347v973h41v-973q0 -124 50.5 -223t159 -160.5t261.5 -61.5t261.5 61.5t159 160.5t50.5 223v973h41v-973q0 -213 -138.5 -347t-373.5 -134z" />
    <glyph glyph-name="V" unicode="V" horiz-adv-x="1224" 
d="M588 0l-547 1434h43l528 -1389l529 1389h43l-547 -1434h-49z" />
    <glyph glyph-name="W" unicode="W" horiz-adv-x="2007" 
d="M498 0l-416 1434h41l399 -1385l457 1385h49l457 -1385l399 1385h41l-416 -1434h-49l-456 1384l-457 -1384h-49z" />
    <glyph glyph-name="X" unicode="X" horiz-adv-x="1146" 
d="M1085 0h-49l-463 694l-462 -694h-50l488 731l-469 703h49l444 -666l445 666h49l-469 -703z" />
    <glyph glyph-name="Y" unicode="Y" horiz-adv-x="1146" 
d="M1126 1434l-532 -840v-594h-41v594l-533 840h46l507 -805l508 805h45z" />
    <glyph glyph-name="Z" unicode="Z" horiz-adv-x="1085" 
d="M147 37h857v-37h-902v37l838 1360h-817v37h860v-37z" />
    <glyph glyph-name="bracketleft" unicode="[" horiz-adv-x="552" 
d="M512 1599h-328v-1765h328v-39h-369v1843h369v-39z" />
    <glyph glyph-name="backslash" unicode="\" horiz-adv-x="1064" 
d="M922 -205l-820 1843h41l820 -1843h-41z" />
    <glyph glyph-name="bracketright" unicode="]" horiz-adv-x="552" 
d="M410 1638v-1843h-369v39h328v1765h-328v39h369z" />
    <glyph glyph-name="asciicircum" unicode="^" horiz-adv-x="1036" 
d="M535 1434l358 -615h-45l-330 565l-330 -565h-45l359 615h33z" />
    <glyph glyph-name="underscore" unicode="_" horiz-adv-x="983" 
d="M82 -242v37h819v-37h-819z" />
    <glyph glyph-name="grave" unicode="`" horiz-adv-x="288" 
d="M248 1167l-164 246h-43l172 -246h35z" />
    <glyph glyph-name="a" unicode="a" horiz-adv-x="1355" 
d="M1130 1024h41v-1024h-41v313q-59 -151 -192 -242t-301 -91q-147 0 -269.5 69.5t-194 192t-71.5 270.5t71.5 270.5t194 192t269.5 69.5q168 0 301 -91t192 -242v313zM637 16q207 0 350 143.5t143 352.5t-143 352.5t-350 143.5t-350.5 -143.5t-143.5 -352.5t143.5 -352.5
t350.5 -143.5z" />
    <glyph glyph-name="b" unicode="b" horiz-adv-x="1355" 
d="M719 1044q110 0 208.5 -41t170 -111.5t113.5 -169.5t42 -210t-42 -210t-113.5 -169.5t-170 -111.5t-208.5 -41q-170 0 -304 94t-190 248v-322h-41v1434h41v-732q56 154 190 248t304 94zM719 16q207 0 350 143.5t143 352.5t-143 352.5t-350 143.5t-350.5 -143.5
t-143.5 -352.5t143.5 -352.5t350.5 -143.5z" />
    <glyph glyph-name="c" unicode="c" horiz-adv-x="1185" 
d="M637 -20q-228 0 -381.5 153t-153.5 379t153.5 379t381.5 153q150 0 269.5 -67t176.5 -182l-32 -21q-53 107 -164 170.5t-250 63.5q-140 0 -253.5 -65.5t-177 -179t-63.5 -251.5t63.5 -251.5t177 -179t253.5 -65.5q138 0 248.5 63.5t165.5 170.5l32 -21
q-57 -115 -176.5 -182t-269.5 -67z" />
    <glyph glyph-name="d" unicode="d" horiz-adv-x="1355" 
d="M1130 1434h41v-1434h-41v322q-56 -154 -189.5 -248t-303.5 -94q-147 0 -269.5 69.5t-194 192t-71.5 270.5t71.5 270.5t194 192t269.5 69.5q170 0 303.5 -94t189.5 -248v732zM637 16q207 0 350 143.5t143 352.5t-143 352.5t-350 143.5t-350.5 -143.5t-143.5 -352.5
t143.5 -352.5t350.5 -143.5z" />
    <glyph glyph-name="e" unicode="e" horiz-adv-x="1226" 
d="M621 1044q149 0 266 -76t177 -197t60 -263v-21h-981q9 -209 146.5 -340t339.5 -131q134 0 242 57t159 154l35 -20q-59 -105 -175 -166t-261 -61q-228 0 -377.5 150.5t-149.5 381.5q0 149 66 270.5t185 191.5t268 70zM143 524h944q-12 215 -143.5 349.5t-322.5 134.5
q-132 0 -240 -61t-171.5 -172t-66.5 -251z" />
    <glyph glyph-name="f" unicode="f" horiz-adv-x="612" 
d="M612 1417q-167 13 -246 -69t-79 -242v-82h325v-37h-325v-987h-41v987h-185v37h185v82q0 176 91 269.5t275 78.5v-37z" />
    <glyph glyph-name="g" unicode="g" horiz-adv-x="1376" 
d="M1151 1024h41v-961q0 -227 -133.5 -360t-370.5 -133q-177 0 -302.5 69t-174.5 173l33 18q45 -95 161 -159t283 -64q219 0 341 122.5t122 333.5v259q-56 -154 -190 -248t-304 -94q-110 0 -208.5 41t-170 111.5t-113.5 169.5t-42 210t42 210t113.5 169.5t170 111.5
t208.5 41q170 0 304 -94t190 -248v322zM657 16q207 0 350.5 143.5t143.5 352.5t-143.5 352.5t-350.5 143.5t-350 -143.5t-143 -352.5t143 -352.5t350 -143.5z" />
    <glyph glyph-name="h" unicode="h" horiz-adv-x="1177" 
d="M635 1044q174 0 281.5 -108t107.5 -285v-651h-41v651q0 155 -94 256t-256 101q-180 0 -294 -126t-114 -333v-549h-41v1434h41v-691q41 146 153 223.5t257 77.5z" />
    <glyph glyph-name="i" unicode="i" horiz-adv-x="409" 
d="M205 1333q-20 0 -33.5 14t-13.5 33t13.5 33t33.5 14t33.5 -14t13.5 -33t-13.5 -33t-33.5 -14zM184 0v1024h41v-1024h-41z" />
    <glyph glyph-name="j" unicode="j" horiz-adv-x="428" 
d="M223 1427q20 0 33.5 -14t13.5 -33t-13.5 -33t-33.5 -14t-33.5 14t-13.5 33t13.5 33t33.5 14zM203 -184v1208h41v-1208q0 -127 -72 -194t-213 -52v37q124 -13 184 42.5t60 166.5z" />
    <glyph glyph-name="k" unicode="k" horiz-adv-x="944" 
d="M883 0h-58l-600 520v-520h-41v1434h41v-889l580 479h57l-594 -492z" />
    <glyph glyph-name="l" unicode="l" horiz-adv-x="409" 
d="M184 0v1495h41v-1495h-41z" />
    <glyph glyph-name="m" unicode="m" horiz-adv-x="1792" 
d="M1284 1044q159 0 256.5 -95t97.5 -279v-670h-41v670q0 162 -85 250t-228 88q-156 0 -254 -113.5t-98 -316.5v-578h-41v670q0 162 -83 250t-222 88q-160 0 -260.5 -113t-100.5 -317v-578h-41v1024h41v-248q39 135 136.5 201.5t224.5 66.5q130 0 221.5 -70.5t116.5 -207.5
q26 94 84 158t127.5 92t148.5 28z" />
    <glyph glyph-name="n" unicode="n" horiz-adv-x="1177" 
d="M635 1044q174 0 281.5 -108t107.5 -285v-651h-41v651q0 155 -94 256t-256 101q-180 0 -294 -126t-114 -333v-549h-41v1024h41v-281q41 146 153 223.5t257 77.5z" />
    <glyph glyph-name="o" unicode="o" horiz-adv-x="1273" 
d="M637 -20q-147 0 -269.5 69.5t-194 192t-71.5 270.5t71.5 270.5t194 192t269.5 69.5q110 0 208.5 -41t170 -111.5t113.5 -169.5t42 -210t-42 -210t-113.5 -169.5t-170 -111.5t-208.5 -41zM637 16q207 0 350 143.5t143 352.5t-143 352.5t-350 143.5t-350.5 -143.5
t-143.5 -352.5t143.5 -352.5t350.5 -143.5z" />
    <glyph glyph-name="p" unicode="p" horiz-adv-x="1355" 
d="M719 1044q110 0 208.5 -41t170 -111.5t113.5 -169.5t42 -210t-42 -210t-113.5 -169.5t-170 -111.5t-208.5 -41q-170 0 -304 94t-190 248v-732h-41v1434h41v-322q56 154 190 248t304 94zM719 16q207 0 350 143.5t143 352.5t-143 352.5t-350 143.5t-350.5 -143.5
t-143.5 -352.5t143.5 -352.5t350.5 -143.5z" />
    <glyph glyph-name="q" unicode="q" horiz-adv-x="1355" 
d="M1130 1024h41v-1434h-41v732q-56 -154 -189.5 -248t-303.5 -94q-147 0 -269.5 69.5t-194 192t-71.5 270.5t71.5 270.5t194 192t269.5 69.5q170 0 303.5 -94t189.5 -248v322zM637 16q207 0 350 143.5t143 352.5t-143 352.5t-350 143.5t-350.5 -143.5t-143.5 -352.5
t143.5 -352.5t350.5 -143.5z" />
    <glyph glyph-name="r" unicode="r" horiz-adv-x="665" 
d="M225 750q24 97 86 163.5t136.5 94.5t156.5 28v-37q-76 0 -144 -28.5t-120.5 -81.5t-83.5 -135.5t-31 -184.5v-569h-41v1024h41v-274z" />
    <glyph glyph-name="s" unicode="s" horiz-adv-x="952" 
d="M184 758q0 -64 36.5 -107t95.5 -65.5t130 -38.5t142 -34t130 -44t95.5 -77.5t36.5 -125.5q0 -121 -100 -203.5t-258 -82.5q-152 0 -247.5 56t-131.5 159l32 18q64 -197 347 -197q138 0 227.5 70.5t89.5 179.5q0 66 -36.5 111t-95.5 68t-130 39.5t-142 34t-130 43
t-95.5 75t-36.5 121.5q0 122 93.5 204t250.5 82q120 0 206 -52.5t122 -143.5l-33 -19q-33 83 -111 131t-184 48q-137 0 -220 -70t-83 -180z" />
    <glyph glyph-name="t" unicode="t" horiz-adv-x="776" 
d="M674 987h-326v-760q0 -135 74.5 -176t251.5 -14v-37q-192 -31 -279.5 22t-87.5 205v760h-246v37h246v274l41 13v-287h326v-37z" />
    <glyph glyph-name="u" unicode="u" horiz-adv-x="1177" 
d="M952 1024h41v-1024h-41v281q-41 -146 -152.5 -223.5t-256.5 -77.5q-174 0 -281.5 108t-107.5 285v651h41v-651q0 -155 94 -256t256 -101q180 0 293.5 126t113.5 333v549z" />
    <glyph glyph-name="v" unicode="v" horiz-adv-x="1048" 
d="M965 1024h43l-461 -1024h-45l-461 1024h43l440 -979z" />
    <glyph glyph-name="w" unicode="w" horiz-adv-x="1576" 
d="M1452 1024h43l-336 -1024h-45l-326 969l-325 -969h-45l-336 1024h43l317 -965l322 965h49l322 -965z" />
    <glyph glyph-name="x" unicode="x" horiz-adv-x="1024" 
d="M963 0h-52l-399 494l-399 -494h-52l426 524l-405 500h49l381 -469l381 469h49l-405 -500z" />
    <glyph glyph-name="y" unicode="y" horiz-adv-x="1044" 
d="M963 1024h41l-449 -1118q-61 -152 -166.5 -239t-224.5 -77v37q107 -9 200.5 70.5t153.5 220.5l14 37l-491 1069h41l471 -1022z" />
    <glyph glyph-name="z" unicode="z" horiz-adv-x="1003" 
d="M178 37h723v-37h-778v23l702 964h-682v37h738v-23z" />
    <glyph glyph-name="braceleft" unicode="{" horiz-adv-x="692" 
d="M651 -223q-140 -15 -212 52t-72 194v469q0 108 -58.5 158t-185.5 50v37q127 0 185.5 50.5t58.5 158.5v467q0 127 72 194t212 52v-37q-124 13 -183.5 -42.5t-59.5 -166.5v-467q0 -199 -170 -229q170 -27 170 -225v-469q0 -111 59.5 -166.5t183.5 -42.5v-37z" />
    <glyph glyph-name="bar" unicode="|" horiz-adv-x="450" 
d="M205 -410v1885h41v-1885h-41z" />
    <glyph glyph-name="braceright" unicode="}" horiz-adv-x="692" 
d="M41 -223v37q124 -13 184 42.5t60 166.5v469q0 198 170 225q-170 30 -170 229v467q0 111 -60 166.5t-184 42.5v37q141 15 213 -52t72 -194v-467q0 -108 58 -158.5t185 -50.5v-37q-127 0 -185 -50t-58 -158v-469q0 -127 -72 -194t-213 -52z" />
    <glyph glyph-name="asciitilde" unicode="~" horiz-adv-x="1171" 
d="M991 827l37 -16q-5 -21 -14.5 -44.5t-28 -53t-42.5 -53t-61 -38.5t-80 -15t-102 23t-125 70q-59 42 -110.5 63t-89 22.5t-69 -10.5t-52.5 -31.5t-37 -46t-24 -48t-13 -43.5l-37 17q5 21 14 44t28 53t42.5 52.5t60.5 37.5t80 15t102 -22.5t126 -69.5q81 -58 149 -75.5
t109 -4.5t72 46.5t44 64.5t21 63z" />
    <glyph glyph-name="exclamdown" unicode="&#xa1;" horiz-adv-x="409" 
d="M205 1044q22 0 36.5 -14.5t14.5 -36.5t-14.5 -36.5t-36.5 -14.5t-36.5 14.5t-14.5 36.5t14.5 36.5t36.5 14.5zM184 696h41v-1106h-41v1106z" />
    <glyph glyph-name="cent" unicode="&#xa2;" horiz-adv-x="1185" 
d="M637 221q138 0 248.5 63.5t165.5 170.5l32 -21q-57 -115 -176.5 -182.5t-269.5 -67.5q-91 0 -170 27l-72 -211h-41l76 223q-149 59 -238.5 192t-89.5 302q0 226 153.5 379t381.5 153q58 0 133 -14l68 199h41l-72 -209q93 -29 164.5 -87.5t111.5 -138.5l-32 -20
q-78 155 -254 209l-320 -942q77 -25 160 -25zM143 717q0 -156 81.5 -279.5t217.5 -179.5l316 940q-52 14 -121 14q-213 0 -353.5 -142.5t-140.5 -352.5z" />
    <glyph glyph-name="sterling" unicode="&#xa3;" horiz-adv-x="1228" 
d="M369 37h819v-37h-1086v37h226v579h-185v37h185v422q0 168 113.5 273.5t285.5 105.5q132 0 226.5 -64.5t138.5 -187.5l-33 -20q-79 235 -332 235q-164 0 -261 -97.5t-97 -244.5v-422h532v-37h-532v-579z" />
    <glyph glyph-name="currency" unicode="&#xa4;" horiz-adv-x="1134" 
d="M999 717q0 -169 -112 -291l145 -147l-28 -25l-146 143q-119 -110 -291 -110q-170 0 -293 110l-143 -143l-29 25l146 145q-113 123 -113 293t113 293l-146 145l29 25l145 -144q121 111 291 111q169 0 293 -111l144 144l28 -25l-145 -145q112 -122 112 -293zM176 717
q0 -166 113.5 -279.5t277.5 -113.5t277.5 113.5t113.5 279.5t-113.5 279.5t-277.5 113.5t-277.5 -113.5t-113.5 -279.5z" />
    <glyph glyph-name="yen" unicode="&#xa5;" horiz-adv-x="1146" 
d="M1126 1434l-471 -744h340v-37h-364l-37 -59v-166h401v-37h-401v-391h-41v391h-397v37h397v166l-37 59h-360v37h336l-472 744h46l469 -744h77l469 744h45zM573 629l17 24h-33z" />
    <glyph glyph-name="brokenbar" unicode="&#xa6;" horiz-adv-x="450" 
d="M205 717v758h41v-758h-41zM205 -410v758h41v-758h-41z" />
    <glyph glyph-name="section" unicode="&#xa7;" horiz-adv-x="1034" 
d="M791 276q100 -87 100 -213q0 -128 -99 -210t-260 -82q-140 0 -239 64.5t-141 191.5l32 20q76 -240 348 -240q140 0 229 70.5t89 185.5q0 49 -20.5 92.5t-49 73.5t-80 62t-92 51.5t-106.5 48.5q-153 66 -206 99q-149 98 -153 227q0 70 38 131.5t104 99.5q-101 84 -101 207
q0 128 95.5 213.5t248.5 85.5q125 0 218 -58t137 -169l-33 -19q-40 101 -121.5 155t-200.5 54q-134 0 -218.5 -75t-84.5 -187q0 -48 20 -89.5t41 -67t75 -57.5t80.5 -44t99.5 -44q9 -4 14.5 -6.5t13.5 -6t15 -6.5q154 -67 213 -106q135 -90 135 -220q0 -70 -37.5 -132
t-103.5 -100zM184 717q0 -33 10.5 -62.5t25.5 -52t43.5 -45.5t51.5 -38t64 -34.5t67 -30.5t72 -30q161 -64 240 -121q63 32 98 87t35 118q0 33 -10 62t-24 51.5t-42 45.5t-50 38t-62.5 35t-64.5 30.5t-71 30.5q-181 76 -250 123q-63 -34 -98 -89t-35 -118z" />
    <glyph glyph-name="dieresis" unicode="&#xa8;" horiz-adv-x="491" 
d="M82 1188q-17 0 -29 12t-12 29t12 29t29 12t29 -12t12 -29t-12 -29t-29 -12zM410 1188q-17 0 -29 12t-12 29t12 29t29 12t29 -12t12 -29t-12 -29t-29 -12z" />
    <glyph glyph-name="copyright" unicode="&#xa9;" horiz-adv-x="1728" 
d="M864 -20q-151 0 -288 58t-236.5 156.5t-158 235t-58.5 287.5t58.5 287.5t158 235t236.5 156.5t288 58q202 0 372.5 -98t270 -267.5t99.5 -371.5t-99.5 -371.5t-270 -267.5t-372.5 -98zM864 16q191 0 352 93.5t255 255t94 352.5q0 143 -55.5 273t-149.5 223.5
t-223.5 148.5t-272.5 55t-272.5 -55t-223 -148.5t-149 -223.5t-55.5 -273t55.5 -273t149 -223.5t223 -149t272.5 -55.5zM870 324q-172 0 -284.5 113.5t-112.5 279.5t112.5 279.5t284.5 113.5q111 0 198 -51t134 -139l-35 -19q-40 79 -118.5 125.5t-178.5 46.5
q-154 0 -255 -102.5t-101 -253.5t101 -254t255 -103q100 0 178.5 46.5t118.5 125.5l35 -18q-45 -87 -133 -138.5t-199 -51.5z" />
    <glyph glyph-name="guillemotleft" unicode="&#xab;" horiz-adv-x="868" 
d="M455 961l-205 -328l205 -328h-45l-205 328l205 328h45zM664 961l-205 -328l205 -328h-46l-204 328l204 328h46z" />
    <glyph glyph-name="logicalnot" unicode="&#xac;" horiz-adv-x="1064" 
d="M143 782h779v-327h-41v290h-738v37z" />
    <glyph glyph-name="registered" unicode="&#xae;" horiz-adv-x="1728" 
d="M864 1454q202 0 372.5 -98t270 -267.5t99.5 -371.5t-99.5 -371.5t-270 -267.5t-372.5 -98q-151 0 -288 58t-236.5 156.5t-158 235t-58.5 287.5t58.5 287.5t158 235t236.5 156.5t288 58zM864 16q191 0 352 93.5t255 255t94 352.5q0 143 -55.5 273t-149.5 223.5
t-223.5 148.5t-272.5 55t-272.5 -55t-223 -148.5t-149 -223.5t-55.5 -273t55.5 -273t149 -223.5t223 -149t272.5 -55.5zM1139 872q0 -86 -45 -142.5t-140 -74.5l199 -317h-45l-195 313q-12 -2 -41 -2h-172v-311h-41v758h213q132 0 199.5 -67t67.5 -157zM700 686h172
q226 0 226 186q0 81 -59 134t-167 53h-172v-373z" />
    <glyph glyph-name="macron" unicode="&#xaf;" horiz-adv-x="573" 
d="M41 1231v33h491v-33h-491z" />
    <glyph glyph-name="degree" unicode="&#xb0;" horiz-adv-x="790" 
d="M395 1085q-125 0 -209 83.5t-84 203.5t84 203.5t209 83.5t209 -83.5t84 -203.5t-83 -203.5t-210 -83.5zM395 1122q107 0 179.5 71.5t72.5 178.5q0 106 -73 178t-179 72t-179 -72t-73 -178t73 -178t179 -72z" />
    <glyph glyph-name="plusminus" unicode="&#xb1;" horiz-adv-x="1064" 
d="M553 858h369v-37h-369v-370h-41v370h-369v37h369v371h41v-371zM143 205v37h779v-37h-779z" />
    <glyph glyph-name="acute" unicode="&#xb4;" horiz-adv-x="288" 
d="M41 1167h37l170 246h-43z" />
    <glyph glyph-name="uni00B5" unicode="&#xb5;" horiz-adv-x="1249" 
d="M1126 37h41v-37h-41q-68 0 -105.5 38t-37.5 105v138q-41 -146 -153 -223.5t-257 -77.5q-125 0 -215.5 57.5t-132.5 159.5v-607h-41v1434h41v-651q0 -155 94 -256t256 -101q180 0 294 126t114 333v549h41v-881q0 -51 27 -78.5t75 -27.5z" />
    <glyph glyph-name="paragraph" unicode="&#xb6;" horiz-adv-x="1126" 
d="M1024 1434v-37h-123v-1807h-41v1807h-348v-1807h-41v1106q-153 0 -261 108t-108 261q0 154 107.5 261.5t261.5 107.5h553z" />
    <glyph glyph-name="periodcentered" unicode="&#xb7;" horiz-adv-x="368" 
d="M184 635q-22 0 -36.5 14.5t-14.5 36.5t14.5 36.5t36.5 14.5t37 -14.5t15 -36.5t-15 -36.5t-37 -14.5z" />
    <glyph glyph-name="cedilla" unicode="&#xb8;" horiz-adv-x="399" 
d="M199 -162q68 7 124 -26t56 -99q0 -78 -92 -113.5t-267 -13.5v33q158 -20 240 5.5t82 88.5q0 48 -45 73.5t-135 18.5v195h37v-162z" />
    <glyph glyph-name="guillemotright" unicode="&#xbb;" horiz-adv-x="868" 
d="M250 961l205 -328l-205 -328h-45l205 328l-205 328h45zM459 961l205 -328l-205 -328h-45l204 328l-204 328h45z" />
    <glyph glyph-name="onequarter" unicode="&#xbc;" horiz-adv-x="1728" 
d="M297 614v766l-244 -90l-12 37l276 107h21v-820h-41zM1157 1434h41l-860 -1434h-41zM1667 221v-37h-127v-184h-41v184h-465v37l316 598h41l-314 -598h422v248h41v-248h127z" />
    <glyph glyph-name="onehalf" unicode="&#xbd;" horiz-adv-x="1701" 
d="M297 614v766l-244 -90l-12 37l276 107h21v-820h-41zM1157 1434h41l-860 -1434h-41zM1137 37h483v-37h-545v31l385 368q103 95 103 207q0 82 -59 141.5t-161 59.5q-85 0 -144.5 -43t-80.5 -111l-35 19q24 76 93.5 124t169.5 48q119 0 188.5 -68.5t69.5 -169.5
q0 -121 -113 -231z" />
    <glyph glyph-name="threequarters" unicode="&#xbe;" horiz-adv-x="1929" 
d="M610 844q0 -108 -72.5 -181t-201.5 -73q-103 0 -169.5 41t-94.5 110l32 19q54 -133 232 -133q114 0 173.5 62t59.5 155t-59.5 155t-173.5 62h-6l-19 26l226 310h-445v37h488v-37l-218 -299q117 -9 182.5 -80t65.5 -174zM1358 1434h41l-860 -1434h-41zM1868 221v-37h-127
v-184h-41v184h-465v37l315 598h41l-313 -598h422v248h41v-248h127z" />
    <glyph glyph-name="questiondown" unicode="&#xbf;" horiz-adv-x="1077" 
d="M565 1044q22 0 36.5 -14.5t14.5 -36.5t-14.5 -36.5t-36.5 -14.5t-36.5 14.5t-14.5 36.5t14.5 36.5t36.5 14.5zM586 696q0 -73 -22 -140.5t-57.5 -121t-78.5 -104.5t-86 -99.5t-78.5 -96t-57.5 -103t-22 -113.5q0 -141 92 -226t267 -85q136 0 239 67t138 168l34 -18
q-41 -113 -156 -183.5t-255 -70.5q-184 0 -292 93t-108 255q0 60 22 118t57.5 106.5t78.5 97.5t86 99.5t78.5 103t57.5 118t22 135.5h41z" />
    <glyph glyph-name="Agrave" unicode="&#xc0;" horiz-adv-x="1286" 
d="M694 1577h-35l-172 246h43zM1192 0l-154 391h-790l-154 -391h-43l567 1434h50l567 -1434h-43zM262 428h762l-381 963z" />
    <glyph glyph-name="Aacute" unicode="&#xc1;" horiz-adv-x="1286" 
d="M799 1823l-170 -246h-37l164 246h43zM1192 0l-154 391h-790l-154 -391h-43l567 1434h50l567 -1434h-43zM262 428h762l-381 963z" />
    <glyph glyph-name="Acircumflex" unicode="&#xc2;" horiz-adv-x="1286" 
d="M639 1798l-207 -221h-45l229 246h46l229 -246h-45zM1192 0l-154 391h-790l-154 -391h-43l567 1434h50l567 -1434h-43zM262 428h762l-381 963z" />
    <glyph glyph-name="Atilde" unicode="&#xc3;" horiz-adv-x="1286" 
d="M633 1692q-95 97 -156 71t-61 -145h-35q0 92 37 142t101 40t134 -84q94 -95 155.5 -69t61.5 143h35q0 -54 -14.5 -95t-41 -62t-60 -24.5t-74.5 18t-82 65.5zM1192 0l-154 391h-790l-154 -391h-43l567 1434h50l567 -1434h-43zM262 428h762l-381 963z" />
    <glyph glyph-name="Adieresis" unicode="&#xc4;" horiz-adv-x="1286" 
d="M479 1597q-17 0 -29 12t-12 29t12 29t29 12t29 -12t12 -29t-12 -29t-29 -12zM807 1597q-17 0 -29 12t-12 29t12 29t29 12t29 -12t12 -29t-12 -29t-29 -12zM1192 0l-154 391h-790l-154 -391h-43l567 1434h50l567 -1434h-43zM262 428h762l-381 963z" />
    <glyph glyph-name="Aring" unicode="&#xc5;" horiz-adv-x="1286" 
d="M1192 0l-154 391h-790l-154 -391h-43l559 1415q-73 9 -117 60t-44 122q0 79 54 132t140 53q88 0 141.5 -52.5t53.5 -132.5q0 -72 -44 -122.5t-118 -59.5l559 -1415h-43zM485 1597q0 -67 43.5 -109t114.5 -42t114.5 42t43.5 109q0 68 -44 110t-114 42t-114 -42t-44 -110z
M262 428h762l-381 963z" />
    <glyph glyph-name="AE" unicode="&#xc6;" horiz-adv-x="1757" 
d="M958 37h697v-37h-737v418h-596l-254 -418h-48l877 1434h748v-37h-687v-656h635v-36h-635v-668zM344 455h574v938z" />
    <glyph glyph-name="Ccedilla" unicode="&#xc7;" horiz-adv-x="1564" 
d="M1473 324q-85 -152 -241 -244.5t-345 -99.5v-142q68 7 124 -26t56 -99q0 -78 -91.5 -113.5t-266.5 -13.5v33q158 -20 239.5 5.5t81.5 88.5q0 48 -45 73.5t-135 18.5v175q-207 3 -374 102.5t-260 267t-93 367.5q0 202 94 370.5t263.5 267.5t379.5 99q190 0 351 -89.5
t251 -240.5l-35 -20q-84 143 -236 228t-331 85q-199 0 -359 -94t-248.5 -254t-88.5 -352t88.5 -352t248.5 -254.5t359 -94.5q186 0 341 89.5t235 238.5z" />
    <glyph glyph-name="Egrave" unicode="&#xc8;" horiz-adv-x="1105" 
d="M649 1577h-35l-172 246h43zM246 37h758v-37h-799v1434h788v-37h-747v-656h696v-36h-696v-668z" />
    <glyph glyph-name="Eacute" unicode="&#xc9;" horiz-adv-x="1105" 
d="M754 1823l-170 -246h-37l164 246h43zM246 37h758v-37h-799v1434h788v-37h-747v-656h696v-36h-696v-668z" />
    <glyph glyph-name="Ecircumflex" unicode="&#xca;" horiz-adv-x="1105" 
d="M594 1798l-207 -221h-45l229 246h45l230 -246h-45zM246 37h758v-37h-799v1434h788v-37h-747v-656h696v-36h-696v-668z" />
    <glyph glyph-name="Edieresis" unicode="&#xcb;" horiz-adv-x="1105" 
d="M434 1597q-17 0 -29 12t-12 29t12 29t29 12t29 -12t12 -29t-12 -29t-29 -12zM762 1597q-17 0 -29 12t-12 29t12 29t29 12t29 -12t12 -29t-12 -29t-29 -12zM246 37h758v-37h-799v1434h788v-37h-747v-656h696v-36h-696v-668z" />
    <glyph glyph-name="Igrave" unicode="&#xcc;" horiz-adv-x="450" 
d="M276 1577l-163 246h-43l172 -246h34zM205 1434h41v-1434h-41v1434z" />
    <glyph glyph-name="Iacute" unicode="&#xcd;" horiz-adv-x="450" 
d="M174 1577h37l170 246h-43zM205 1434h41v-1434h-41v1434z" />
    <glyph glyph-name="Icircumflex" unicode="&#xce;" horiz-adv-x="450" 
d="M244 1823l229 -246h-45l-207 221l-207 -221h-45l230 246h45zM205 0v1434h41v-1434h-41z" />
    <glyph glyph-name="Idieresis" unicode="&#xcf;" horiz-adv-x="450" 
d="M61 1597q-17 0 -29 12t-12 29t12 29t29 12t29 -12t12 -29t-12 -29t-29 -12zM389 1597q-17 0 -29 12t-12 29t12 29t29 12t29 -12t12 -29t-12 -29t-29 -12zM205 1434h41v-1434h-41v1434z" />
    <glyph glyph-name="Eth" unicode="&#xd0;" horiz-adv-x="1556" 
d="M758 1434q145 0 271.5 -56.5t215 -153.5t139 -228.5t50.5 -278.5t-50.5 -278.5t-139 -228.5t-215 -153.5t-271.5 -56.5h-512v698h-123v37h123v699h512zM758 37q138 0 257 53.5t201.5 145.5t129.5 217t47 264t-47 264t-129.5 217t-201.5 145.5t-257 53.5h-471v-662h573
v-37h-573v-661h471z" />
    <glyph glyph-name="Ntilde" unicode="&#xd1;" horiz-adv-x="1433" 
d="M434 1618q0 92 37.5 142t101.5 40t134 -84q94 -95 155.5 -69t61.5 143h34q0 -54 -14.5 -95t-41 -62t-60 -24.5t-74.5 18t-82 65.5q-95 97 -156 71t-61 -145h-35zM1188 1434h41v-1434h-41l-942 1364v-1364h-41v1434h41l942 -1364v1364z" />
    <glyph glyph-name="Ograve" unicode="&#xd2;" horiz-adv-x="1720" 
d="M911 1577l-163 246h-43l172 -246h34zM860 -20q-150 0 -286.5 58t-235.5 157t-157 235.5t-58 286.5t58 286.5t157 235.5t235.5 157t286.5 58t286.5 -58t235.5 -157t157 -235.5t58 -286.5t-58 -286.5t-157 -235.5t-235.5 -157t-286.5 -58zM860 16q189 0 349.5 94
t253.5 255.5t93 351.5q0 143 -55 272.5t-148 223t-222 149t-271 55.5t-271 -55.5t-222 -149t-148 -223t-55 -272.5q0 -190 93 -351.5t253.5 -255.5t349.5 -94z" />
    <glyph glyph-name="Oacute" unicode="&#xd3;" horiz-adv-x="1720" 
d="M809 1577h37l170 246h-43zM860 -20q-150 0 -286.5 58t-235.5 157t-157 235.5t-58 286.5t58 286.5t157 235.5t235.5 157t286.5 58t286.5 -58t235.5 -157t157 -235.5t58 -286.5t-58 -286.5t-157 -235.5t-235.5 -157t-286.5 -58zM860 16q189 0 349.5 94t253.5 255.5
t93 351.5q0 143 -55 272.5t-148 223t-222 149t-271 55.5t-271 -55.5t-222 -149t-148 -223t-55 -272.5q0 -190 93 -351.5t253.5 -255.5t349.5 -94z" />
    <glyph glyph-name="Ocircumflex" unicode="&#xd4;" horiz-adv-x="1720" 
d="M856 1798l-207 -221h-45l230 246h45l229 -246h-45zM860 1454q150 0 286.5 -58t235.5 -157t157 -235.5t58 -286.5t-58 -286.5t-157 -235.5t-235.5 -157t-286.5 -58t-286.5 58t-235.5 157t-157 235.5t-58 286.5t58 286.5t157 235.5t235.5 157t286.5 58zM860 16
q189 0 349.5 94t253.5 255.5t93 351.5q0 143 -55 272.5t-148 223t-222 149t-271 55.5t-271 -55.5t-222 -149t-148 -223t-55 -272.5q0 -190 93 -351.5t253.5 -255.5t349.5 -94z" />
    <glyph glyph-name="Otilde" unicode="&#xd5;" horiz-adv-x="1720" 
d="M598 1618q0 92 37 142t101 40t134 -84q94 -95 155.5 -69t61.5 143h35q0 -54 -14.5 -95t-41 -62t-60 -24.5t-74.5 18t-82 65.5q-95 97 -156 71t-61 -145h-35zM860 -20q-150 0 -286.5 58t-235.5 157t-157 235.5t-58 286.5t58 286.5t157 235.5t235.5 157t286.5 58t286.5 -58
t235.5 -157t157 -235.5t58 -286.5t-58 -286.5t-157 -235.5t-235.5 -157t-286.5 -58zM860 16q189 0 349.5 94t253.5 255.5t93 351.5q0 143 -55 272.5t-148 223t-222 149t-271 55.5t-271 -55.5t-222 -149t-148 -223t-55 -272.5q0 -190 93 -351.5t253.5 -255.5t349.5 -94z" />
    <glyph glyph-name="Odieresis" unicode="&#xd6;" horiz-adv-x="1720" 
d="M696 1597q-17 0 -29 12t-12 29t12 29t29 12t29 -12t12 -29t-12 -29t-29 -12zM1024 1597q-17 0 -29 12t-12 29t12 29t29 12t29 -12t12 -29t-12 -29t-29 -12zM860 -20q-150 0 -286.5 58t-235.5 157t-157 235.5t-58 286.5t58 286.5t157 235.5t235.5 157t286.5 58t286.5 -58
t235.5 -157t157 -235.5t58 -286.5t-58 -286.5t-157 -235.5t-235.5 -157t-286.5 -58zM860 16q189 0 349.5 94t253.5 255.5t93 351.5q0 143 -55 272.5t-148 223t-222 149t-271 55.5t-271 -55.5t-222 -149t-148 -223t-55 -272.5q0 -190 93 -351.5t253.5 -255.5t349.5 -94z" />
    <glyph glyph-name="multiply" unicode="&#xd7;" horiz-adv-x="950" 
d="M807 1022l-305 -305l305 -305l-29 -25l-303 303l-303 -303l-29 25l306 305l-306 305l29 25l303 -304l303 304z" />
    <glyph glyph-name="Oslash" unicode="&#xd8;" horiz-adv-x="1740" 
d="M1374 1266q115 -103 179.5 -246t64.5 -303q0 -150 -58 -286.5t-157 -235.5t-235.5 -157t-286.5 -58q-266 0 -467 165l-125 -145l-31 18l129 150q-115 103 -179.5 246t-64.5 303q0 150 58.5 286.5t157 235.5t235.5 157t287 58q264 0 467 -166l125 146l30 -19zM184 717
q0 -151 61 -286t167 -232l911 1061q-194 157 -442 157q-189 0 -349.5 -93.5t-254 -255t-93.5 -351.5zM881 16q189 0 349.5 94t253.5 255.5t93 351.5q0 151 -60.5 286t-166.5 232l-912 -1061q195 -158 443 -158z" />
    <glyph glyph-name="Ugrave" unicode="&#xd9;" horiz-adv-x="1392" 
d="M737 1577l-164 246h-43l172 -246h35zM696 -20q-235 0 -373.5 134t-138.5 347v973h41v-973q0 -124 50.5 -223t159 -160.5t261.5 -61.5t261.5 61.5t159 160.5t50.5 223v973h41v-973q0 -213 -138.5 -347t-373.5 -134z" />
    <glyph glyph-name="Uacute" unicode="&#xda;" horiz-adv-x="1392" 
d="M635 1577h37l170 246h-43zM696 -20q-235 0 -373.5 134t-138.5 347v973h41v-973q0 -124 50.5 -223t159 -160.5t261.5 -61.5t261.5 61.5t159 160.5t50.5 223v973h41v-973q0 -213 -138.5 -347t-373.5 -134z" />
    <glyph glyph-name="Ucircumflex" unicode="&#xdb;" horiz-adv-x="1392" 
d="M682 1798l-207 -221h-45l229 246h46l229 -246h-45zM1167 1434h41v-973q0 -213 -138.5 -347t-373.5 -134t-373.5 134t-138.5 347v973h41v-973q0 -124 50.5 -223t159 -160.5t261.5 -61.5t261.5 61.5t159 160.5t50.5 223v973z" />
    <glyph glyph-name="Udieresis" unicode="&#xdc;" horiz-adv-x="1392" 
d="M522 1597q-17 0 -29 12t-12 29t12 29t29 12t29 -12t12 -29t-12 -29t-29 -12zM850 1597q-17 0 -29 12t-12 29t12 29t29 12t29 -12t12 -29t-12 -29t-29 -12zM696 -20q-235 0 -373.5 134t-138.5 347v973h41v-973q0 -124 50.5 -223t159 -160.5t261.5 -61.5t261.5 61.5
t159 160.5t50.5 223v973h41v-973q0 -213 -138.5 -347t-373.5 -134z" />
    <glyph glyph-name="Yacute" unicode="&#xdd;" horiz-adv-x="1146" 
d="M729 1823l-170 -246h-37l164 246h43zM1126 1434l-532 -840v-594h-41v594l-533 840h46l507 -805l508 805h45z" />
    <glyph glyph-name="Thorn" unicode="&#xde;" horiz-adv-x="1187" 
d="M645 1147q191 0 315.5 -122.5t124.5 -307.5t-124.5 -307.5t-315.5 -122.5h-399v-287h-41v1434h41v-287h399zM645 324q174 0 286.5 111.5t112.5 281.5t-112.5 281.5t-286.5 111.5h-399v-786h399z" />
    <glyph glyph-name="germandbls" unicode="&#xdf;" horiz-adv-x="1056" 
d="M596 -10v37q168 -7 263 64.5t95 197.5q0 61 -32 121.5t-78 110t-91.5 96t-77.5 96.5t-32 94q0 36 20.5 70t49.5 63t57.5 59t49 71t20.5 87q0 112 -73.5 186t-207.5 74q-160 0 -247 -97.5t-87 -260.5v-1059h-41v1059q0 184 101.5 289.5t273.5 105.5q153 0 237.5 -86
t84.5 -211q0 -52 -20.5 -97t-50.5 -77t-59.5 -60t-50 -57.5t-20.5 -58.5q0 -37 32.5 -82t79 -91.5t92.5 -97t78.5 -115.5t32.5 -132q0 -142 -107.5 -224t-291.5 -75z" />
    <glyph glyph-name="agrave" unicode="&#xe0;" horiz-adv-x="1355" 
d="M686 1167h-35l-172 246h43zM1130 1024h41v-1024h-41v313q-59 -151 -192 -242t-301 -91q-147 0 -269.5 69.5t-194 192t-71.5 270.5t71.5 270.5t194 192t269.5 69.5q168 0 301 -91t192 -242v313zM637 16q207 0 350 143.5t143 352.5t-143 352.5t-350 143.5t-350.5 -143.5
t-143.5 -352.5t143.5 -352.5t350.5 -143.5z" />
    <glyph glyph-name="aacute" unicode="&#xe1;" horiz-adv-x="1355" 
d="M791 1413l-170 -246h-37l164 246h43zM1130 1024h41v-1024h-41v313q-59 -151 -192 -242t-301 -91q-147 0 -269.5 69.5t-194 192t-71.5 270.5t71.5 270.5t194 192t269.5 69.5q168 0 301 -91t192 -242v313zM637 16q207 0 350 143.5t143 352.5t-143 352.5t-350 143.5
t-350.5 -143.5t-143.5 -352.5t143.5 -352.5t350.5 -143.5z" />
    <glyph glyph-name="acircumflex" unicode="&#xe2;" horiz-adv-x="1355" 
d="M631 1389l-207 -222h-45l229 246h45l230 -246h-45zM1130 1024h41v-1024h-41v313q-59 -151 -192 -242t-301 -91q-147 0 -269.5 69.5t-194 192t-71.5 270.5t71.5 270.5t194 192t269.5 69.5q168 0 301 -91t192 -242v313zM637 16q207 0 350 143.5t143 352.5t-143 352.5
t-350 143.5t-350.5 -143.5t-143.5 -352.5t143.5 -352.5t350.5 -143.5z" />
    <glyph glyph-name="atilde" unicode="&#xe3;" horiz-adv-x="1355" 
d="M625 1282q-95 97 -156 71t-61 -145h-35q0 69 22.5 115.5t59 62t87 -3.5t103.5 -75q94 -95 155.5 -69.5t61.5 142.5h35q0 -54 -14.5 -95t-41 -62t-60 -24.5t-74.5 18t-82 65.5zM1130 1024h41v-1024h-41v313q-59 -151 -192 -242t-301 -91q-147 0 -269.5 69.5t-194 192
t-71.5 270.5t71.5 270.5t194 192t269.5 69.5q168 0 301 -91t192 -242v313zM637 16q207 0 350 143.5t143 352.5t-143 352.5t-350 143.5t-350.5 -143.5t-143.5 -352.5t143.5 -352.5t350.5 -143.5z" />
    <glyph glyph-name="adieresis" unicode="&#xe4;" horiz-adv-x="1355" 
d="M471 1188q-17 0 -29 12t-12 29t12 29t29 12t29 -12t12 -29t-12 -29t-29 -12zM799 1188q-17 0 -29 12t-12 29t12 29t29 12t29 -12t12 -29t-12 -29t-29 -12zM1130 1024h41v-1024h-41v313q-59 -151 -192 -242t-301 -91q-147 0 -269.5 69.5t-194 192t-71.5 270.5t71.5 270.5
t194 192t269.5 69.5q168 0 301 -91t192 -242v313zM637 16q207 0 350 143.5t143 352.5t-143 352.5t-350 143.5t-350.5 -143.5t-143.5 -352.5t143.5 -352.5t350.5 -143.5z" />
    <glyph glyph-name="aring" unicode="&#xe5;" horiz-adv-x="1355" 
d="M635 1147q-87 0 -141 52.5t-54 131.5t54.5 132t140.5 53q88 0 141 -52.5t53 -132.5t-53 -132t-141 -52zM635 1483q-70 0 -114 -42t-44 -110q0 -67 43.5 -109t114.5 -42t114.5 42t43.5 109q0 68 -44 110t-114 42zM1130 1024h41v-1024h-41v313q-59 -151 -192 -242t-301 -91
q-147 0 -269.5 69.5t-194 192t-71.5 270.5t71.5 270.5t194 192t269.5 69.5q168 0 301 -91t192 -242v313zM637 16q207 0 350 143.5t143 352.5t-143 352.5t-350 143.5t-350.5 -143.5t-143.5 -352.5t143.5 -352.5t350.5 -143.5z" />
    <glyph glyph-name="ae" unicode="&#xe6;" horiz-adv-x="2250" 
d="M1651 1044q153 0 268 -76t172 -196.5t57 -263.5v-21h-977q9 -210 145.5 -340.5t342.5 -130.5q140 0 249 56.5t160 154.5l35 -20q-59 -105 -176 -166t-268 -61q-178 0 -307.5 89.5t-184.5 243.5v-313h-37v313q-59 -151 -192 -242t-301 -91q-147 0 -269.5 69.5t-194 192
t-71.5 270.5t71.5 270.5t194 192t269.5 69.5q168 0 301 -91t192 -242v313h37v-313q54 152 181.5 242.5t302.5 90.5zM637 16q207 0 350 143.5t143 352.5t-143 352.5t-350 143.5t-350.5 -143.5t-143.5 -352.5t143.5 -352.5t350.5 -143.5zM1171 524h940q-12 217 -138.5 350.5
t-321.5 133.5q-206 0 -341 -135.5t-139 -348.5z" />
    <glyph glyph-name="ccedilla" unicode="&#xe7;" horiz-adv-x="1185" 
d="M637 16q138 0 248.5 63.5t165.5 170.5l32 -21q-54 -108 -164 -175t-249 -74v-142q68 7 124 -26t56 -99q0 -78 -91.5 -113.5t-266.5 -13.5v33q158 -20 239.5 5.5t81.5 88.5q0 48 -45 73.5t-135 18.5v175q-149 1 -271 71t-191 191.5t-69 269.5q0 226 153.5 379t381.5 153
q150 0 269.5 -67t176.5 -182l-32 -21q-53 107 -164 170.5t-250 63.5q-140 0 -253.5 -65.5t-177 -179t-63.5 -251.5t63.5 -251.5t177 -179t253.5 -65.5z" />
    <glyph glyph-name="egrave" unicode="&#xe8;" horiz-adv-x="1226" 
d="M659 1167h-34l-172 246h43zM621 1044q149 0 266 -76t177 -197t60 -263v-21h-981q9 -209 146.5 -340t339.5 -131q134 0 242 57t159 154l35 -20q-59 -105 -175 -166t-261 -61q-228 0 -377.5 150.5t-149.5 381.5q0 149 66 270.5t185 191.5t268 70zM143 524h944
q-12 215 -143.5 349.5t-322.5 134.5q-132 0 -240 -61t-171.5 -172t-66.5 -251z" />
    <glyph glyph-name="eacute" unicode="&#xe9;" horiz-adv-x="1226" 
d="M764 1413l-170 -246h-37l164 246h43zM621 1044q149 0 266 -76t177 -197t60 -263v-21h-981q9 -209 146.5 -340t339.5 -131q134 0 242 57t159 154l35 -20q-59 -105 -175 -166t-261 -61q-228 0 -377.5 150.5t-149.5 381.5q0 149 66 270.5t185 191.5t268 70zM143 524h944
q-12 215 -143.5 349.5t-322.5 134.5q-132 0 -240 -61t-171.5 -172t-66.5 -251z" />
    <glyph glyph-name="ecircumflex" unicode="&#xea;" horiz-adv-x="1226" 
d="M604 1389l-207 -222h-45l230 246h45l229 -246h-45zM621 1044q149 0 266 -76t177 -197t60 -263v-21h-981q9 -209 146.5 -340t339.5 -131q134 0 242 57t159 154l35 -20q-59 -105 -175 -166t-261 -61q-228 0 -377.5 150.5t-149.5 381.5q0 149 66 270.5t185 191.5t268 70z
M143 524h944q-12 215 -143.5 349.5t-322.5 134.5q-132 0 -240 -61t-171.5 -172t-66.5 -251z" />
    <glyph glyph-name="edieresis" unicode="&#xeb;" horiz-adv-x="1226" 
d="M444 1188q-17 0 -29 12t-12 29t12 29t29 12t29 -12t12 -29t-12 -29t-29 -12zM772 1188q-17 0 -29 12t-12 29t12 29t29 12t29 -12t12 -29t-12 -29t-29 -12zM621 1044q149 0 266 -76t177 -197t60 -263v-21h-981q9 -209 146.5 -340t339.5 -131q134 0 242 57t159 154l35 -20
q-59 -105 -175 -166t-261 -61q-228 0 -377.5 150.5t-149.5 381.5q0 149 66 270.5t185 191.5t268 70zM143 524h944q-12 215 -143.5 349.5t-322.5 134.5q-132 0 -240 -61t-171.5 -172t-66.5 -251z" />
    <glyph glyph-name="igrave" unicode="&#xec;" horiz-adv-x="409" 
d="M238 1167l-134 246h-43l140 -246h37zM225 0h-41v1024h41v-1024z" />
    <glyph glyph-name="iacute" unicode="&#xed;" horiz-adv-x="409" 
d="M164 1167h37l139 246h-43zM184 0v1024h41v-1024h-41z" />
    <glyph glyph-name="icircumflex" unicode="&#xee;" horiz-adv-x="409" 
d="M227 1413l168 -246h-45l-145 213l-146 -213h-45l168 246h45zM184 0v1024h41v-1024h-41z" />
    <glyph glyph-name="idieresis" unicode="&#xef;" horiz-adv-x="409" 
d="M82 1188q-17 0 -29 12t-12 29t12 29t29 12t29 -12t12 -29t-12 -29t-29 -12zM328 1188q-17 0 -29 12t-12 29t12 29t29 12t29 -12t12 -29t-12 -29t-29 -12zM184 0v1024h41v-1024h-41z" />
    <glyph glyph-name="eth" unicode="&#xf0;" horiz-adv-x="1208" 
d="M1012 758q94 -129 94 -287q0 -110 -41.5 -204t-111 -156t-159 -96.5t-186.5 -34.5q-133 0 -247 58.5t-186.5 172.5t-72.5 260q0 104 41.5 194t110 151t158 95.5t184.5 34.5q168 0 287 -76l-271 363l-272 -168v41l252 156l-129 172h45l115 -154l223 137v-41l-203 -125z
M608 16q195 0 326 130t131 325q0 155 -82 264q-77 102 -170.5 138t-216.5 36q-190 0 -321.5 -127.5t-131.5 -310.5q0 -195 133.5 -325t331.5 -130z" />
    <glyph glyph-name="ntilde" unicode="&#xf1;" horiz-adv-x="1177" 
d="M594 1282q-95 97 -156 71t-61 -145h-35q0 69 22.5 115.5t59 62t87 -3.5t103.5 -75q94 -95 155.5 -69.5t61.5 142.5h35q0 -54 -14.5 -95t-41 -62t-60 -24.5t-74.5 18t-82 65.5zM635 1044q174 0 281.5 -108t107.5 -285v-651h-41v651q0 155 -94 256t-256 101
q-180 0 -294 -126t-114 -333v-549h-41v1024h41v-281q41 146 153 223.5t257 77.5z" />
    <glyph glyph-name="ograve" unicode="&#xf2;" horiz-adv-x="1273" 
d="M672 1167l-164 246h-43l172 -246h35zM637 -20q-147 0 -269.5 69.5t-194 192t-71.5 270.5t71.5 270.5t194 192t269.5 69.5q110 0 208.5 -41t170 -111.5t113.5 -169.5t42 -210t-42 -210t-113.5 -169.5t-170 -111.5t-208.5 -41zM637 16q207 0 350 143.5t143 352.5
t-143 352.5t-350 143.5t-350.5 -143.5t-143.5 -352.5t143.5 -352.5t350.5 -143.5z" />
    <glyph glyph-name="oacute" unicode="&#xf3;" horiz-adv-x="1273" 
d="M569 1167h37l170 246h-43zM637 -20q-147 0 -269.5 69.5t-194 192t-71.5 270.5t71.5 270.5t194 192t269.5 69.5q110 0 208.5 -41t170 -111.5t113.5 -169.5t42 -210t-42 -210t-113.5 -169.5t-170 -111.5t-208.5 -41zM637 16q207 0 350 143.5t143 352.5t-143 352.5
t-350 143.5t-350.5 -143.5t-143.5 -352.5t143.5 -352.5t350.5 -143.5z" />
    <glyph glyph-name="ocircumflex" unicode="&#xf4;" horiz-adv-x="1273" 
d="M616 1389l-206 -222h-45l229 246h45l229 -246h-45zM637 1044q110 0 208.5 -41t170 -111.5t113.5 -169.5t42 -210t-42 -210t-113.5 -169.5t-170 -111.5t-208.5 -41q-147 0 -269.5 69.5t-194 192t-71.5 270.5t71.5 270.5t194 192t269.5 69.5zM637 16q207 0 350 143.5
t143 352.5t-143 352.5t-350 143.5t-350.5 -143.5t-143.5 -352.5t143.5 -352.5t350.5 -143.5z" />
    <glyph glyph-name="otilde" unicode="&#xf5;" horiz-adv-x="1273" 
d="M358 1208q0 92 37.5 142.5t101.5 40.5t134 -84q94 -95 155.5 -69.5t61.5 142.5h35q0 -90 -38.5 -140t-102.5 -40.5t-132 82.5q-95 97 -156 71t-61 -145h-35zM637 -20q-147 0 -269.5 69.5t-194 192t-71.5 270.5t71.5 270.5t194 192t269.5 69.5q110 0 208.5 -41t170 -111.5
t113.5 -169.5t42 -210t-42 -210t-113.5 -169.5t-170 -111.5t-208.5 -41zM637 16q207 0 350 143.5t143 352.5t-143 352.5t-350 143.5t-350.5 -143.5t-143.5 -352.5t143.5 -352.5t350.5 -143.5z" />
    <glyph glyph-name="odieresis" unicode="&#xf6;" horiz-adv-x="1273" 
d="M457 1188q-17 0 -29 12t-12 29t12 29t29 12t29 -12t12 -29t-12 -29t-29 -12zM784 1188q-17 0 -29 12t-12 29t12 29t29 12t29 -12t12 -29t-12 -29t-29 -12zM637 -20q-147 0 -269.5 69.5t-194 192t-71.5 270.5t71.5 270.5t194 192t269.5 69.5q110 0 208.5 -41t170 -111.5
t113.5 -169.5t42 -210t-42 -210t-113.5 -169.5t-170 -111.5t-208.5 -41zM637 16q207 0 350 143.5t143 352.5t-143 352.5t-350 143.5t-350.5 -143.5t-143.5 -352.5t143.5 -352.5t350.5 -143.5z" />
    <glyph glyph-name="divide" unicode="&#xf7;" horiz-adv-x="1187" 
d="M594 1049q-22 0 -36.5 14.5t-14.5 36.5t14.5 36.5t36.5 14.5t36.5 -14.5t14.5 -36.5t-14.5 -36.5t-36.5 -14.5zM143 698v37h901v-37h-901zM594 283q-22 0 -36.5 14.5t-14.5 36.5t14.5 36.5t36.5 14.5t36.5 -14.5t14.5 -36.5t-14.5 -36.5t-36.5 -14.5z" />
    <glyph glyph-name="oslash" unicode="&#xf8;" horiz-adv-x="1273" 
d="M1014 893q74 -72 115.5 -170.5t41.5 -210.5q0 -111 -42 -210t-113.5 -169.5t-170 -111.5t-208.5 -41q-202 0 -350 126l-99 -106l-30 18l102 113q-74 72 -116 171t-42 210q0 148 71.5 270.5t194 192t269.5 69.5q202 0 350 -126l98 106l31 -18zM143 512q0 -102 38 -193
t106 -159l674 729q-138 119 -324 119q-207 0 -350.5 -143.5t-143.5 -352.5zM637 16q207 0 350 143.5t143 352.5q0 102 -38 193.5t-105 158.5l-674 -729q138 -119 324 -119z" />
    <glyph glyph-name="ugrave" unicode="&#xf9;" horiz-adv-x="1177" 
d="M625 1167h-35l-172 246h43zM952 1024h41v-1024h-41v281q-41 -146 -152.5 -223.5t-256.5 -77.5q-174 0 -281.5 108t-107.5 285v651h41v-651q0 -155 94 -256t256 -101q180 0 293.5 126t113.5 333v549z" />
    <glyph glyph-name="uacute" unicode="&#xfa;" horiz-adv-x="1177" 
d="M729 1413l-170 -246h-37l164 246h43zM952 1024h41v-1024h-41v281q-41 -146 -152.5 -223.5t-256.5 -77.5q-174 0 -281.5 108t-107.5 285v651h41v-651q0 -155 94 -256t256 -101q180 0 293.5 126t113.5 333v549z" />
    <glyph glyph-name="ucircumflex" unicode="&#xfb;" horiz-adv-x="1177" 
d="M569 1389l-207 -222h-45l230 246h45l229 -246h-45zM952 1024h41v-1024h-41v281q-41 -146 -152.5 -223.5t-256.5 -77.5q-174 0 -281.5 108t-107.5 285v651h41v-651q0 -155 94 -256t256 -101q180 0 293.5 126t113.5 333v549z" />
    <glyph glyph-name="udieresis" unicode="&#xfc;" horiz-adv-x="1177" 
d="M410 1188q-17 0 -29 12t-12 29t12 29t29 12t29 -12t12 -29t-12 -29t-29 -12zM737 1188q-17 0 -29 12t-12 29t12 29t29 12t29 -12t12 -29t-12 -29t-29 -12zM952 1024h41v-1024h-41v281q-41 -146 -152.5 -223.5t-256.5 -77.5q-174 0 -281.5 108t-107.5 285v651h41v-651
q0 -155 94 -256t256 -101q180 0 293.5 126t113.5 333v549z" />
    <glyph glyph-name="yacute" unicode="&#xfd;" horiz-adv-x="1044" 
d="M705 1413l-170 -246h-37l164 246h43zM963 1024h41l-449 -1118q-61 -152 -166.5 -239t-224.5 -77v37q107 -9 200.5 70.5t153.5 220.5l14 37l-491 1069h41l471 -1022z" />
    <glyph glyph-name="thorn" unicode="&#xfe;" horiz-adv-x="1355" 
d="M719 1044q110 0 208.5 -41t170 -111.5t113.5 -169.5t42 -210t-42 -210t-113.5 -169.5t-170 -111.5t-208.5 -41q-170 0 -304 94t-190 248v-732h-41v1844h41v-732q56 154 190 248t304 94zM719 16q207 0 350 143.5t143 352.5t-143 352.5t-350 143.5t-350.5 -143.5
t-143.5 -352.5t143.5 -352.5t350.5 -143.5z" />
    <glyph glyph-name="ydieresis" unicode="&#xff;" horiz-adv-x="1044" 
d="M385 1188q-17 0 -29 12t-12 29t12 29t29 12t29 -12t12 -29t-12 -29t-29 -12zM713 1188q-17 0 -29 12t-12 29t12 29t29 12t29 -12t12 -29t-12 -29t-29 -12zM963 1024h41l-449 -1118q-61 -152 -166.5 -239t-224.5 -77v37q107 -9 200.5 70.5t153.5 220.5l14 37l-491 1069h41
l471 -1022z" />
    <glyph glyph-name="Amacron" unicode="&#x100;" horiz-adv-x="1286" 
d="M889 1673v-33h-492v33h492zM1192 0l-154 391h-790l-154 -391h-43l567 1434h50l567 -1434h-43zM262 428h762l-381 963z" />
    <glyph glyph-name="amacron" unicode="&#x101;" horiz-adv-x="1355" 
d="M881 1264v-33h-492v33h492zM1130 1024h41v-1024h-41v313q-59 -151 -192 -242t-301 -91q-147 0 -269.5 69.5t-194 192t-71.5 270.5t71.5 270.5t194 192t269.5 69.5q168 0 301 -91t192 -242v313zM637 16q207 0 350 143.5t143 352.5t-143 352.5t-350 143.5t-350.5 -143.5
t-143.5 -352.5t143.5 -352.5t350.5 -143.5z" />
    <glyph glyph-name="Abreve" unicode="&#x102;" horiz-adv-x="1286" 
d="M643 1581q-110 0 -178 59t-68 156h37q0 -82 57.5 -132t151.5 -50t151.5 50t57.5 132h37q0 -97 -68 -156t-178 -59zM1192 0l-154 391h-790l-154 -391h-43l567 1434h50l567 -1434h-43zM262 428h762l-381 963z" />
    <glyph glyph-name="abreve" unicode="&#x103;" horiz-adv-x="1355" 
d="M635 1171q-110 0 -178 59t-68 156h37q0 -82 57.5 -132t151.5 -50t151.5 50t57.5 132h37q0 -97 -68 -156t-178 -59zM1130 1024h41v-1024h-41v313q-59 -151 -192 -242t-301 -91q-147 0 -269.5 69.5t-194 192t-71.5 270.5t71.5 270.5t194 192t269.5 69.5q168 0 301 -91
t192 -242v313zM637 16q207 0 350 143.5t143 352.5t-143 352.5t-350 143.5t-350.5 -143.5t-143.5 -352.5t143.5 -352.5t350.5 -143.5z" />
    <glyph glyph-name="Aogonek" unicode="&#x104;" horiz-adv-x="1286" 
d="M1036 -295q0 -46 30 -74t77 -28q59 0 92 16v-33q-31 -16 -92 -16q-65 0 -104.5 36.5t-39.5 98.5q0 133 189 305l-150 381h-790l-154 -391h-43l567 1434h50l567 -1434q-101 -86 -150 -156t-49 -139zM262 428h762l-381 963z" />
    <glyph glyph-name="aogonek" unicode="&#x105;" horiz-adv-x="1355" 
d="M1171 0q-100 -86 -149 -156t-49 -139q0 -46 29.5 -74t76.5 -28q53 0 92 16v-33q-36 -16 -92 -16q-65 0 -104 36.5t-39 98.5q0 142 194 305v303q-59 -151 -192 -242t-301 -91q-147 0 -269.5 69.5t-194 192t-71.5 270.5t71.5 270.5t194 192t269.5 69.5q168 0 301 -91
t192 -242v313h41v-1024zM637 16q207 0 350 143.5t143 352.5t-143 352.5t-350 143.5t-350.5 -143.5t-143.5 -352.5t143.5 -352.5t350.5 -143.5z" />
    <glyph glyph-name="Cacute" unicode="&#x106;" horiz-adv-x="1564" 
d="M809 1577h37l170 246h-43zM860 -20q-210 0 -379.5 99t-263.5 267.5t-94 370.5t94 370.5t263.5 267.5t379.5 99q190 0 351 -89.5t251 -240.5l-35 -20q-84 143 -236 228t-331 85q-199 0 -359 -94t-248.5 -254t-88.5 -352t88.5 -352t248.5 -254.5t359 -94.5q186 0 341 89.5
t235 238.5l37 -20q-89 -157 -253 -250.5t-360 -93.5z" />
    <glyph glyph-name="cacute" unicode="&#x107;" horiz-adv-x="1185" 
d="M588 1167h37l170 246h-43zM637 -20q-228 0 -381.5 153t-153.5 379t153.5 379t381.5 153q150 0 269.5 -67t176.5 -182l-32 -21q-53 107 -164 170.5t-250 63.5q-140 0 -253.5 -65.5t-177 -179t-63.5 -251.5t63.5 -251.5t177 -179t253.5 -65.5q138 0 248.5 63.5t165.5 170.5
l32 -21q-57 -115 -176.5 -182t-269.5 -67z" />
    <glyph glyph-name="Cdotaccent" unicode="&#x10a;" horiz-adv-x="1564" 
d="M860 1597q-26 0 -43.5 18t-17.5 44t17.5 43.5t43.5 17.5t44 -17.5t18 -43.5t-18 -44t-44 -18zM860 -20q-210 0 -379.5 99t-263.5 267.5t-94 370.5t94 370.5t263.5 267.5t379.5 99q190 0 351 -89.5t251 -240.5l-35 -20q-84 143 -236 228t-331 85q-199 0 -359 -94
t-248.5 -254t-88.5 -352t88.5 -352t248.5 -254.5t359 -94.5q186 0 341 89.5t235 238.5l37 -20q-89 -157 -253 -250.5t-360 -93.5z" />
    <glyph glyph-name="cdotaccent" unicode="&#x10b;" horiz-adv-x="1185" 
d="M639 1188q-26 0 -43.5 17.5t-17.5 43.5t17.5 44t43.5 18t43.5 -18t17.5 -44t-17.5 -43.5t-43.5 -17.5zM637 -20q-228 0 -381.5 153t-153.5 379t153.5 379t381.5 153q150 0 269.5 -67t176.5 -182l-32 -21q-53 107 -164 170.5t-250 63.5q-140 0 -253.5 -65.5t-177 -179
t-63.5 -251.5t63.5 -251.5t177 -179t253.5 -65.5q138 0 248.5 63.5t165.5 170.5l32 -21q-57 -115 -176.5 -182t-269.5 -67z" />
    <glyph glyph-name="Ccaron" unicode="&#x10c;" horiz-adv-x="1564" 
d="M881 1577h-45l-230 246h45l207 -221l207 221h45zM1436 344l37 -20q-89 -157 -253 -250.5t-360 -93.5q-210 0 -379.5 99t-263.5 267.5t-94 370.5t94 370.5t263.5 267.5t379.5 99q190 0 351 -89.5t251 -240.5l-35 -20q-84 143 -236 228t-331 85q-199 0 -359 -94
t-248.5 -254t-88.5 -352t88.5 -352t248.5 -254.5t359 -94.5q186 0 341 89.5t235 238.5z" />
    <glyph glyph-name="ccaron" unicode="&#x10d;" horiz-adv-x="1185" 
d="M659 1167h-45l-229 246h45l207 -221l207 221h45zM637 16q138 0 248.5 63.5t165.5 170.5l32 -21q-57 -115 -176.5 -182t-269.5 -67q-228 0 -381.5 153t-153.5 379t153.5 379t381.5 153q150 0 269.5 -67t176.5 -182l-32 -21q-53 107 -164 170.5t-250 63.5
q-140 0 -253.5 -65.5t-177 -179t-63.5 -251.5t63.5 -251.5t177 -179t253.5 -65.5z" />
    <glyph glyph-name="Dcaron" unicode="&#x10e;" horiz-adv-x="1515" 
d="M737 1577h-45l-229 246h45l207 -221l207 221h45zM717 1434q145 0 271.5 -56.5t215 -153.5t139 -228.5t50.5 -278.5t-50.5 -278.5t-139 -228.5t-215 -153.5t-271.5 -56.5h-512v1434h512zM717 37q138 0 257 53.5t201.5 145.5t129.5 217t47 264t-47 264t-129.5 217
t-201.5 145.5t-257 53.5h-471v-1360h471z" />
    <glyph glyph-name="dcaron" unicode="&#x10f;" horiz-adv-x="1404" 
d="M1130 702v732h41v-1434h-41v322q-56 -154 -189.5 -248t-303.5 -94q-147 0 -269.5 69.5t-194 192t-71.5 270.5t71.5 270.5t194 192t269.5 69.5q170 0 303.5 -94t189.5 -248zM1364 1434h41l-29 -349h-33zM637 16q207 0 350 143.5t143 352.5t-143 352.5t-350 143.5
t-350.5 -143.5t-143.5 -352.5t143.5 -352.5t350.5 -143.5z" />
    <glyph glyph-name="Dcroat" unicode="&#x110;" horiz-adv-x="1556" 
d="M758 1434q145 0 271.5 -56.5t215 -153.5t139 -228.5t50.5 -278.5t-50.5 -278.5t-139 -228.5t-215 -153.5t-271.5 -56.5h-512v698h-123v37h123v699h512zM758 37q138 0 257 53.5t201.5 145.5t129.5 217t47 264t-47 264t-129.5 217t-201.5 145.5t-257 53.5h-471v-662h573
v-37h-573v-661h471z" />
    <glyph glyph-name="dcroat" unicode="&#x111;" horiz-adv-x="1363" 
d="M1303 1253v-34h-132v-1219h-41v322q-56 -154 -189.5 -248t-303.5 -94q-147 0 -269.5 69.5t-194 192t-71.5 270.5t71.5 270.5t194 192t269.5 69.5q170 0 303.5 -94t189.5 -248v517h-483v34h483v181h41v-181h132zM637 16q207 0 350 143.5t143 352.5t-143 352.5t-350 143.5
t-350.5 -143.5t-143.5 -352.5t143.5 -352.5t350.5 -143.5z" />
    <glyph glyph-name="Emacron" unicode="&#x112;" horiz-adv-x="1105" 
d="M844 1673v-33h-492v33h492zM246 37h758v-37h-799v1434h788v-37h-747v-656h696v-36h-696v-668z" />
    <glyph glyph-name="emacron" unicode="&#x113;" horiz-adv-x="1226" 
d="M854 1264v-33h-492v33h492zM621 1044q149 0 266 -76t177 -197t60 -263v-21h-981q9 -209 146.5 -340t339.5 -131q134 0 242 57t159 154l35 -20q-59 -105 -175 -166t-261 -61q-228 0 -377.5 150.5t-149.5 381.5q0 149 66 270.5t185 191.5t268 70zM143 524h944
q-12 215 -143.5 349.5t-322.5 134.5q-132 0 -240 -61t-171.5 -172t-66.5 -251z" />
    <glyph glyph-name="Edotaccent" unicode="&#x116;" horiz-adv-x="1105" 
d="M598 1597q-26 0 -43.5 18t-17.5 44t17.5 43.5t43.5 17.5t43.5 -17.5t17.5 -43.5t-17.5 -44t-43.5 -18zM246 37h758v-37h-799v1434h788v-37h-747v-656h696v-36h-696v-668z" />
    <glyph glyph-name="edotaccent" unicode="&#x117;" horiz-adv-x="1226" 
d="M608 1188q-26 0 -43.5 17.5t-17.5 43.5t17.5 44t43.5 18t44 -18t18 -44t-18 -43.5t-44 -17.5zM621 1044q149 0 266 -76t177 -197t60 -263v-21h-981q9 -209 146.5 -340t339.5 -131q134 0 242 57t159 154l35 -20q-59 -105 -175 -166t-261 -61q-228 0 -377.5 150.5
t-149.5 381.5q0 149 66 270.5t185 191.5t268 70zM143 524h944q-12 215 -143.5 349.5t-322.5 134.5q-132 0 -240 -61t-171.5 -172t-66.5 -251z" />
    <glyph glyph-name="Eogonek" unicode="&#x118;" horiz-adv-x="1110" 
d="M915 -397q54 0 93 16v-33q-36 -16 -93 -16q-68 0 -107.5 36t-39.5 99q0 141 188 295h-751v1434h788v-37h-747v-656h696v-36h-696v-668h758v-37q-101 -86 -150 -156t-49 -139q0 -47 30 -74.5t80 -27.5z" />
    <glyph glyph-name="eogonek" unicode="&#x119;" horiz-adv-x="1226" 
d="M621 1044q149 0 266 -76t177 -197t60 -263v-21h-981q9 -209 146.5 -340t339.5 -131q134 0 242 57t159 154l35 -20q-26 -48 -68 -90q-169 -186 -227.5 -266.5t-58.5 -145.5q0 -47 30 -74.5t80 -27.5q53 0 92 16v-33q-36 -16 -92 -16q-68 0 -107.5 36t-39.5 99
q0 122 205 330q-116 -55 -250 -55q-228 0 -377.5 150.5t-149.5 381.5q0 149 66 270.5t185 191.5t268 70zM143 524h944q-12 215 -143.5 349.5t-322.5 134.5q-132 0 -240 -61t-171.5 -172t-66.5 -251z" />
    <glyph glyph-name="Ecaron" unicode="&#x11a;" horiz-adv-x="1105" 
d="M618 1577h-45l-229 246h45l207 -221l207 221h45zM246 37h758v-37h-799v1434h788v-37h-747v-656h696v-36h-696v-668z" />
    <glyph glyph-name="ecaron" unicode="&#x11b;" horiz-adv-x="1226" 
d="M629 1167h-45l-230 246h45l207 -221l207 221h45zM621 1044q149 0 266 -76t177 -197t60 -263v-21h-981q9 -209 146.5 -340t339.5 -131q134 0 242 57t159 154l35 -20q-59 -105 -175 -166t-261 -61q-228 0 -377.5 150.5t-149.5 381.5q0 149 66 270.5t185 191.5t268 70z
M143 524h944q-12 215 -143.5 349.5t-322.5 134.5q-132 0 -240 -61t-171.5 -172t-66.5 -251z" />
    <glyph glyph-name="Gbreve" unicode="&#x11e;" horiz-adv-x="1679" 
d="M860 1581q-110 0 -178 59t-68 156h37q0 -82 57.5 -132t151.5 -50t151.5 50t57.5 132h37q0 -97 -68 -156t-178 -59zM1556 641v-20q0 -131 -48.5 -248.5t-135 -204t-214 -137.5t-277.5 -51q-165 0 -307.5 58t-240.5 157.5t-154 234.5t-56 287q0 202 94 370.5t263.5 267.5
t379.5 99q193 0 355 -92t251 -246l-34 -20q-82 147 -235.5 234t-336.5 87q-199 0 -359 -94t-248.5 -254t-88.5 -352q0 -193 89.5 -352.5t254.5 -254t373 -94.5q139 0 258 46.5t200.5 126t128.5 187t50 228.5h-680v37h718z" />
    <glyph glyph-name="gbreve" unicode="&#x11f;" horiz-adv-x="1376" 
d="M672 1171q-110 0 -178 59t-68 156h37q0 -82 57.5 -132t151.5 -50t151.5 50t57.5 132h37q0 -97 -68 -156t-178 -59zM1151 1024h41v-961q0 -227 -133.5 -360t-370.5 -133q-177 0 -302.5 69t-174.5 173l33 18q45 -95 161 -159t283 -64q219 0 341 122.5t122 333.5v259
q-56 -154 -190 -248t-304 -94q-110 0 -208.5 41t-170 111.5t-113.5 169.5t-42 210t42 210t113.5 169.5t170 111.5t208.5 41q170 0 304 -94t190 -248v322zM657 16q207 0 350.5 143.5t143.5 352.5t-143.5 352.5t-350.5 143.5t-350 -143.5t-143 -352.5t143 -352.5t350 -143.5z
" />
    <glyph glyph-name="Gdotaccent" unicode="&#x120;" horiz-adv-x="1679" 
d="M860 1597q-26 0 -43.5 18t-17.5 44t17.5 43.5t43.5 17.5t44 -17.5t18 -43.5t-18 -44t-44 -18zM1556 641v-20q0 -131 -48.5 -248.5t-135 -204t-214 -137.5t-277.5 -51q-165 0 -307.5 58t-240.5 157.5t-154 234.5t-56 287q0 202 94 370.5t263.5 267.5t379.5 99
q193 0 355 -92t251 -246l-34 -20q-82 147 -235.5 234t-336.5 87q-199 0 -359 -94t-248.5 -254t-88.5 -352q0 -193 89.5 -352.5t254.5 -254t373 -94.5q139 0 258 46.5t200.5 126t128.5 187t50 228.5h-680v37h718z" />
    <glyph glyph-name="gdotaccent" unicode="&#x121;" horiz-adv-x="1376" 
d="M672 1188q-26 0 -44 17.5t-18 43.5t18 44t44 18t43.5 -18t17.5 -44t-17.5 -43.5t-43.5 -17.5zM1151 1024h41v-961q0 -227 -133.5 -360t-370.5 -133q-177 0 -302.5 69t-174.5 173l33 18q45 -95 161 -159t283 -64q219 0 341 122.5t122 333.5v259q-56 -154 -190 -248
t-304 -94q-110 0 -208.5 41t-170 111.5t-113.5 169.5t-42 210t42 210t113.5 169.5t170 111.5t208.5 41q170 0 304 -94t190 -248v322zM657 16q207 0 350.5 143.5t143.5 352.5t-143.5 352.5t-350.5 143.5t-350 -143.5t-143 -352.5t143 -352.5t350 -143.5z" />
    <glyph glyph-name="Gcommaaccent" unicode="&#x122;" horiz-adv-x="1679" 
d="M1556 641v-20q0 -131 -48.5 -248.5t-135 -204t-214 -137.5t-277.5 -51q-165 0 -307.5 58t-240.5 157.5t-154 234.5t-56 287q0 202 94 370.5t263.5 267.5t379.5 99q193 0 355 -92t251 -246l-34 -20q-82 147 -235.5 234t-336.5 87q-199 0 -359 -94t-248.5 -254t-88.5 -352
q0 -193 89.5 -352.5t254.5 -254t373 -94.5q139 0 258 46.5t200.5 126t128.5 187t50 228.5h-680v37h718zM844 -492l20 349h41l-28 -349h-33z" />
    <glyph glyph-name="gcommaaccent" unicode="&#x123;" horiz-adv-x="1376" 
d="M694 1556l-20 -348h-41l29 348h32zM1151 1024h41v-961q0 -227 -133.5 -360t-370.5 -133q-177 0 -302.5 69t-174.5 173l33 18q45 -95 161 -159t283 -64q219 0 341 122.5t122 333.5v259q-56 -154 -190 -248t-304 -94q-110 0 -208.5 41t-170 111.5t-113.5 169.5t-42 210
t42 210t113.5 169.5t170 111.5t208.5 41q170 0 304 -94t190 -248v322zM657 16q207 0 350.5 143.5t143.5 352.5t-143.5 352.5t-350.5 143.5t-350 -143.5t-143 -352.5t143 -352.5t350 -143.5z" />
    <glyph glyph-name="Hbar" unicode="&#x126;" horiz-adv-x="1556" 
d="M1434 1124v-37h-144v-1087h-41v719h-942v-719h-41v1087h-143v37h143v310h41v-310h942v310h41v-310h144zM1249 756v331h-942v-331h942z" />
    <glyph glyph-name="hbar" unicode="&#x127;" horiz-adv-x="1218" 
d="M676 1044q174 0 281.5 -108t107.5 -285v-651h-41v651q0 155 -94 256t-256 101q-180 0 -294 -126t-114 -333v-549h-41v1219h-164v34h164v181h41v-181h369v-34h-369v-476q41 146 153 223.5t257 77.5z" />
    <glyph glyph-name="Imacron" unicode="&#x12a;" horiz-adv-x="450" 
d="M-20 1640v33h491v-33h-491zM205 1434h41v-1434h-41v1434z" />
    <glyph glyph-name="imacron" unicode="&#x12b;" horiz-adv-x="409" 
d="M41 1231v33h328v-33h-328zM184 0v1024h41v-1024h-41z" />
    <glyph glyph-name="Iogonek" unicode="&#x12e;" horiz-adv-x="450" 
d="M250 -397q53 0 92 16v-33q-36 -16 -92 -16q-68 0 -108 36t-40 99q0 108 103 295v1434h41v-1434q-4 -8 -22.5 -44t-23.5 -46.5t-18.5 -40t-18 -44t-12 -38t-10 -43t-2.5 -39.5q0 -47 30.5 -74.5t80.5 -27.5z" />
    <glyph glyph-name="iogonek" unicode="&#x12f;" horiz-adv-x="409" 
d="M205 1333q-20 0 -33.5 14t-13.5 33t13.5 33t33.5 14t33.5 -14t13.5 -33t-13.5 -33t-33.5 -14zM229 -397q54 0 93 16v-33q-36 -16 -93 -16q-67 0 -107 39.5t-40 103.5q0 114 102 297v1014h41v-1024q-34 -62 -46 -85.5t-30 -64.5t-24 -71.5t-6 -65.5q0 -48 30.5 -79
t79.5 -31z" />
    <glyph glyph-name="Idotaccent" unicode="&#x130;" horiz-adv-x="450" 
d="M225 1597q-26 0 -43.5 18t-17.5 44t17.5 43.5t43.5 17.5t44 -17.5t18 -43.5t-18 -44t-44 -18zM205 1434h41v-1434h-41v1434z" />
    <glyph glyph-name="dotlessi" unicode="&#x131;" horiz-adv-x="409" 
d="M184 0v1024h41v-1024h-41z" />
    <glyph glyph-name="Kcommaaccent" unicode="&#x136;" horiz-adv-x="1136" 
d="M291 737l825 -737h-55l-815 727v-727h-41v1434h41v-686l794 686h56zM612 -492l21 349h41l-29 -349h-33z" />
    <glyph glyph-name="kcommaaccent" unicode="&#x137;" horiz-adv-x="944" 
d="M268 532l615 -532h-58l-600 520v-520h-41v1434h41v-889l580 479h57zM485 -492l21 349h41l-29 -349h-33z" />
    <glyph glyph-name="Lacute" unicode="&#x139;" horiz-adv-x="1024" 
d="M406 1823l-170 -246h-37l163 246h44zM246 37h717v-37h-758v1434h41v-1397z" />
    <glyph glyph-name="lacute" unicode="&#x13a;" horiz-adv-x="409" 
d="M184 1577h37l170 246h-43zM184 0v1495h41v-1495h-41z" />
    <glyph glyph-name="Lcommaaccent" unicode="&#x13b;" horiz-adv-x="1024" 
d="M246 37h717v-37h-758v1434h41v-1397zM547 -492l20 349h41l-28 -349h-33z" />
    <glyph glyph-name="lcommaaccent" unicode="&#x13c;" horiz-adv-x="409" 
d="M184 0v1495h41v-1495h-41zM199 -492l28 349h-41l-20 -349h33z" />
    <glyph glyph-name="Lcaron" unicode="&#x13d;" horiz-adv-x="1024" 
d="M246 37h717v-37h-758v1434h41v-1397zM627 1434l-29 -349h-33l21 349h41z" />
    <glyph glyph-name="lcaron" unicode="&#x13e;" horiz-adv-x="462" 
d="M184 0v1495h41v-1495h-41zM434 1147l29 348h-41l-21 -348h33z" />
    <glyph glyph-name="Lslash" unicode="&#x141;" horiz-adv-x="1044" 
d="M266 37h717v-37h-758v532l-123 -71v41l123 71v861h41v-836l430 254v-41l-430 -254v-520z" />
    <glyph glyph-name="lslash" unicode="&#x142;" horiz-adv-x="491" 
d="M451 901v-43l-185 -127v-731h-41v705l-184 -127v43l184 127v747h41v-721z" />
    <glyph glyph-name="Nacute" unicode="&#x143;" horiz-adv-x="1433" 
d="M645 1577h37l170 246h-43zM1188 1434h41v-1434h-41l-942 1364v-1364h-41v1434h41l942 -1364v1364z" />
    <glyph glyph-name="nacute" unicode="&#x144;" horiz-adv-x="1177" 
d="M760 1413l-170 -246h-37l164 246h43zM635 1044q174 0 281.5 -108t107.5 -285v-651h-41v651q0 155 -94 256t-256 101q-180 0 -294 -126t-114 -333v-549h-41v1024h41v-281q41 146 153 223.5t257 77.5z" />
    <glyph glyph-name="Ncommaaccent" unicode="&#x145;" horiz-adv-x="1433" 
d="M1188 1434h41v-1434h-41l-942 1364v-1364h-41v1434h41l942 -1364v1364zM692 -492l29 349h-41l-21 -349h33z" />
    <glyph glyph-name="ncommaaccent" unicode="&#x146;" horiz-adv-x="1177" 
d="M635 1044q174 0 281.5 -108t107.5 -285v-651h-41v651q0 155 -94 256t-256 101q-180 0 -294 -126t-114 -333v-549h-41v1024h41v-281q41 146 153 223.5t257 77.5zM573 -492l21 349h41l-29 -349h-33z" />
    <glyph glyph-name="Ncaron" unicode="&#x147;" horiz-adv-x="1433" 
d="M717 1577h-45l-230 246h45l207 -221l207 221h45zM1188 1434h41v-1434h-41l-942 1364v-1364h-41v1434h41l942 -1364v1364z" />
    <glyph glyph-name="ncaron" unicode="&#x148;" horiz-adv-x="1177" 
d="M625 1167h-45l-230 246h45l207 -221l207 221h45zM635 1044q174 0 281.5 -108t107.5 -285v-651h-41v651q0 155 -94 256t-256 101q-180 0 -294 -126t-114 -333v-549h-41v1024h41v-281q41 146 153 223.5t257 77.5z" />
    <glyph glyph-name="Eng" unicode="&#x14a;" horiz-adv-x="1433" 
d="M1188 1434h41v-1434q0 -216 -102.5 -313t-297.5 -97v37q186 0 272.5 89t86.5 284l-942 1364v-1364h-41v1434h41l942 -1364v1364z" />
    <glyph glyph-name="eng" unicode="&#x14b;" horiz-adv-x="1177" 
d="M635 1044q174 0 281.5 -108t107.5 -285v-835q0 -127 -72 -194t-213 -52v37q124 -13 184 42.5t60 166.5v835q0 155 -94 256t-256 101q-180 0 -294 -126t-114 -333v-549h-41v1024h41v-281q41 146 153 223.5t257 77.5z" />
    <glyph glyph-name="Omacron" unicode="&#x14c;" horiz-adv-x="1720" 
d="M614 1640v33h492v-33h-492zM860 -20q-150 0 -286.5 58t-235.5 157t-157 235.5t-58 286.5t58 286.5t157 235.5t235.5 157t286.5 58t286.5 -58t235.5 -157t157 -235.5t58 -286.5t-58 -286.5t-157 -235.5t-235.5 -157t-286.5 -58zM860 16q189 0 349.5 94t253.5 255.5
t93 351.5q0 143 -55 272.5t-148 223t-222 149t-271 55.5t-271 -55.5t-222 -149t-148 -223t-55 -272.5q0 -190 93 -351.5t253.5 -255.5t349.5 -94z" />
    <glyph glyph-name="omacron" unicode="&#x14d;" horiz-adv-x="1273" 
d="M375 1231v33h491v-33h-491zM637 -20q-147 0 -269.5 69.5t-194 192t-71.5 270.5t71.5 270.5t194 192t269.5 69.5q110 0 208.5 -41t170 -111.5t113.5 -169.5t42 -210t-42 -210t-113.5 -169.5t-170 -111.5t-208.5 -41zM637 16q207 0 350 143.5t143 352.5t-143 352.5
t-350 143.5t-350.5 -143.5t-143.5 -352.5t143.5 -352.5t350.5 -143.5z" />
    <glyph glyph-name="Ohungarumlaut" unicode="&#x150;" horiz-adv-x="1720" 
d="M635 1577h35l151 266h-43zM920 1577h34l172 266h-43zM860 -20q-150 0 -286.5 58t-235.5 157t-157 235.5t-58 286.5t58 286.5t157 235.5t235.5 157t286.5 58t286.5 -58t235.5 -157t157 -235.5t58 -286.5t-58 -286.5t-157 -235.5t-235.5 -157t-286.5 -58zM860 16
q189 0 349.5 94t253.5 255.5t93 351.5q0 143 -55 272.5t-148 223t-222 149t-271 55.5t-271 -55.5t-222 -149t-148 -223t-55 -272.5q0 -190 93 -351.5t253.5 -255.5t349.5 -94z" />
    <glyph glyph-name="ohungarumlaut" unicode="&#x151;" horiz-adv-x="1273" 
d="M395 1167h35l152 267h-43zM680 1167h35l172 267h-43zM637 -20q-147 0 -269.5 69.5t-194 192t-71.5 270.5t71.5 270.5t194 192t269.5 69.5q110 0 208.5 -41t170 -111.5t113.5 -169.5t42 -210t-42 -210t-113.5 -169.5t-170 -111.5t-208.5 -41zM637 16q207 0 350 143.5
t143 352.5t-143 352.5t-350 143.5t-350.5 -143.5t-143.5 -352.5t143.5 -352.5t350.5 -143.5z" />
    <glyph glyph-name="OE" unicode="&#x152;" horiz-adv-x="1855" 
d="M1077 37h676v-37h-717q-92 -20 -196 -20q-209 0 -374 99t-254 267t-89 371t89 371t254 267t374 99q104 0 196 -20h707v-37h-666v-656h615v-36h-615v-668zM1036 39v1356q-86 22 -196 22q-149 0 -276.5 -55t-214.5 -149.5t-136 -223t-49 -272.5t49 -272.5t136 -223
t214.5 -150t276.5 -55.5q106 0 196 23z" />
    <glyph glyph-name="oe" unicode="&#x153;" horiz-adv-x="2244" 
d="M1638 1044q149 0 266 -76t177.5 -197t60.5 -263v-21h-981q9 -209 146.5 -340t339.5 -131q134 0 242 57t159 154l35 -20q-59 -105 -175 -166t-261 -61q-188 0 -326.5 107.5t-179.5 285.5q-43 -174 -181 -283.5t-323 -109.5q-147 0 -269.5 69.5t-194 192t-71.5 270.5
t71.5 270.5t194 192t269.5 69.5q185 0 323 -109.5t181 -283.5q42 175 176.5 284t320.5 109zM637 16q206 0 344.5 143t138.5 353t-138.5 353t-344.5 143q-207 0 -350.5 -143.5t-143.5 -352.5t143.5 -352.5t350.5 -143.5zM1161 524h944q-12 215 -144 349.5t-323 134.5
q-132 0 -239.5 -61t-171 -172t-66.5 -251z" />
    <glyph glyph-name="Racute" unicode="&#x154;" horiz-adv-x="1269" 
d="M811 1823l-170 -246h-37l164 246h43zM1208 0h-45l-364 616q-12 -2 -41 -2h-512v-614h-41v1434h553q169 0 289 -120.5t120 -289.5q0 -146 -93 -258.5t-234 -142.5zM246 651h512q152 0 260 109.5t108 263.5t-108 263.5t-260 109.5h-512v-746z" />
    <glyph glyph-name="racute" unicode="&#x155;" horiz-adv-x="665" 
d="M549 1413l-170 -246h-37l164 246h43zM225 750q24 97 86 163.5t136.5 94.5t156.5 28v-37q-76 0 -144 -28.5t-120.5 -81.5t-83.5 -135.5t-31 -184.5v-569h-41v1024h41v-274z" />
    <glyph glyph-name="Rcommaaccent" unicode="&#x156;" horiz-adv-x="1269" 
d="M1208 0h-45l-364 616q-12 -2 -41 -2h-512v-614h-41v1434h553q169 0 289 -120.5t120 -289.5q0 -146 -93 -258.5t-234 -142.5zM246 651h512q152 0 260 109.5t108 263.5t-108 263.5t-260 109.5h-512v-746zM659 -492l21 349h41l-29 -349h-33z" />
    <glyph glyph-name="rcommaaccent" unicode="&#x157;" horiz-adv-x="665" 
d="M225 750q24 97 86 163.5t136.5 94.5t156.5 28v-37q-76 0 -144 -28.5t-120.5 -81.5t-83.5 -135.5t-31 -184.5v-569h-41v1024h41v-274zM164 -492l20 349h41l-28 -349h-33z" />
    <glyph glyph-name="Rcaron" unicode="&#x158;" horiz-adv-x="1269" 
d="M676 1577h-45l-230 246h45l207 -221l207 221h45zM1208 0h-45l-364 616q-12 -2 -41 -2h-512v-614h-41v1434h553q169 0 289 -120.5t120 -289.5q0 -146 -93 -258.5t-234 -142.5zM246 651h512q152 0 260 109.5t108 263.5t-108 263.5t-260 109.5h-512v-746z" />
    <glyph glyph-name="rcaron" unicode="&#x159;" horiz-adv-x="665" 
d="M414 1167h-45l-230 246h45l207 -221l207 221h45zM225 750q24 97 86 163.5t136.5 94.5t156.5 28v-37q-76 0 -144 -28.5t-120.5 -81.5t-83.5 -135.5t-31 -184.5v-569h-41v1024h41v-274z" />
    <glyph glyph-name="Sacute" unicode="&#x15a;" 
d="M514 1577h37l170 246h-43zM618 -20q-199 0 -332 89t-173 226l34 20q37 -134 161 -216.5t310 -82.5q102 0 181.5 27.5t127.5 75.5t72.5 108.5t24.5 130.5q0 68 -29.5 123t-88 96.5t-128.5 71.5t-166 58q-86 25 -144 46t-119 53.5t-97 69t-59 89.5t-23 118q0 155 117.5 263
t304.5 108q164 0 273 -80.5t159 -208.5l-33 -18q-21 54 -51.5 99t-77.5 85t-116 63t-154 23q-92 0 -166.5 -29t-120 -77.5t-70 -107t-24.5 -120.5q0 -59 25.5 -108t53 -78.5t98 -63t106.5 -46.5t133 -45q1 -1 2 -1q82 -27 140 -50.5t117.5 -57.5t96 -71.5t59.5 -89.5
t23 -114q0 -169 -120 -273.5t-327 -104.5z" />
    <glyph glyph-name="sacute" unicode="&#x15b;" horiz-adv-x="952" 
d="M627 1413l-170 -246h-37l164 246h43zM184 758q0 -64 36.5 -107t95.5 -65.5t130 -38.5t142 -34t130 -44t95.5 -77.5t36.5 -125.5q0 -121 -100 -203.5t-258 -82.5q-152 0 -247.5 56t-131.5 159l32 18q64 -197 347 -197q138 0 227.5 70.5t89.5 179.5q0 66 -36.5 111
t-95.5 68t-130 39.5t-142 34t-130 43t-95.5 75t-36.5 121.5q0 122 93.5 204t250.5 82q120 0 206 -52.5t122 -143.5l-33 -19q-33 83 -111 131t-184 48q-137 0 -220 -70t-83 -180z" />
    <glyph glyph-name="Scedilla" unicode="&#x15e;" 
d="M618 -20h-10v-142q68 7 124 -26t56 -99q0 -78 -91.5 -113.5t-266.5 -13.5v33q158 -20 240 5.5t82 88.5q0 48 -45.5 73.5t-135.5 18.5v177q-180 10 -299.5 97t-158.5 216l34 20q37 -134 161 -216.5t310 -82.5q102 0 181.5 27.5t127.5 75.5t72.5 108.5t24.5 130.5
q0 68 -29.5 123t-88 96.5t-128.5 71.5t-166 58q-86 25 -144 46t-119 53.5t-97 69t-59 89.5t-23 118q0 155 117.5 263t304.5 108q164 0 273 -80.5t159 -208.5l-33 -18q-21 54 -51.5 99t-77.5 85t-116 63t-154 23q-92 0 -166.5 -29t-120 -77.5t-70 -107t-24.5 -120.5
q0 -59 25.5 -108t53 -78.5t98 -63t106.5 -46.5t133 -45q1 -1 2 -1q82 -27 140 -50.5t117.5 -57.5t96 -71.5t59.5 -89.5t23 -114q0 -169 -120 -273.5t-327 -104.5z" />
    <glyph glyph-name="scedilla" unicode="&#x15f;" horiz-adv-x="952" 
d="M850 266q0 -116 -92 -197.5t-240 -88.5v-142q68 7 124 -26t56 -99q0 -78 -91.5 -113.5t-266.5 -13.5v33q158 -20 240 5.5t82 88.5q0 48 -45.5 73.5t-135.5 18.5v175q-293 3 -368 215l32 18q64 -197 347 -197q138 0 227.5 70.5t89.5 179.5q0 66 -36.5 111t-95.5 68
t-130 39.5t-142 34t-130 43t-95.5 75t-36.5 121.5q0 122 93.5 204t250.5 82q120 0 206 -52.5t122 -143.5l-33 -19q-33 83 -111 131t-184 48q-137 0 -220 -70t-83 -180q0 -64 36.5 -107t95.5 -65.5t130 -38.5t142 -34t130 -44t95.5 -77.5t36.5 -125.5z" />
    <glyph glyph-name="Scaron" unicode="&#x160;" 
d="M586 1577h-45l-230 246h45l207 -221l207 221h45zM629 741q82 -27 140 -50.5t117.5 -57.5t96 -71.5t59.5 -89.5t23 -114q0 -169 -120 -273.5t-327 -104.5q-199 0 -332 89t-173 226l34 20q37 -134 161 -216.5t310 -82.5q102 0 181.5 27.5t127.5 75.5t72.5 108.5t24.5 130.5
q0 68 -29.5 123t-88 96.5t-128.5 71.5t-166 58q-86 25 -144 46t-119 53.5t-97 69t-59 89.5t-23 118q0 155 117.5 263t304.5 108q164 0 273 -80.5t159 -208.5l-33 -18q-21 54 -51.5 99t-77.5 85t-116 63t-154 23q-92 0 -166.5 -29t-120 -77.5t-70 -107t-24.5 -120.5
q0 -59 25.5 -108t53 -78.5t98 -63t106.5 -46.5t133 -45q1 -1 2 -1z" />
    <glyph glyph-name="scaron" unicode="&#x161;" horiz-adv-x="952" 
d="M492 1167h-46l-229 246h45l207 -221l207 221h45zM184 758q0 -64 36.5 -107t95.5 -65.5t130 -38.5t142 -34t130 -44t95.5 -77.5t36.5 -125.5q0 -121 -100 -203.5t-258 -82.5q-152 0 -247.5 56t-131.5 159l32 18q64 -197 347 -197q138 0 227.5 70.5t89.5 179.5
q0 66 -36.5 111t-95.5 68t-130 39.5t-142 34t-130 43t-95.5 75t-36.5 121.5q0 122 93.5 204t250.5 82q120 0 206 -52.5t122 -143.5l-33 -19q-33 83 -111 131t-184 48q-137 0 -220 -70t-83 -180z" />
    <glyph glyph-name="uni0162" unicode="&#x162;" horiz-adv-x="1105" 
d="M1044 1434v-37h-471v-1397h-41v1397h-471v37h983zM516 -492l21 349h41l-29 -349h-33z" />
    <glyph glyph-name="uni0163" unicode="&#x163;" horiz-adv-x="776" 
d="M674 987h-326v-760q0 -135 74.5 -176t251.5 -14v-37q-192 -31 -279.5 22t-87.5 205v760h-246v37h246v274l41 13v-287h326v-37zM446 -492l21 349h41l-29 -349h-33z" />
    <glyph glyph-name="Tcaron" unicode="&#x164;" horiz-adv-x="1105" 
d="M573 1577h-45l-229 246h45l207 -221l207 221h45zM1044 1434v-37h-471v-1397h-41v1397h-471v37h983z" />
    <glyph glyph-name="tcaron" unicode="&#x165;" horiz-adv-x="776" 
d="M545 1458l-29 -307h-33l21 307h41zM674 987h-326v-760q0 -135 74.5 -176t251.5 -14v-37q-192 -31 -279.5 22t-87.5 205v760h-246v37h246v274l41 13v-287h326v-37z" />
    <glyph glyph-name="Tbar" unicode="&#x166;" horiz-adv-x="1105" 
d="M1044 1397h-471v-662h349v-37h-349v-698h-41v698h-348v37h348v662h-471v37h983v-37z" />
    <glyph glyph-name="tbar" unicode="&#x167;" horiz-adv-x="776" 
d="M674 987h-326v-426h215v-35h-215v-299q0 -135 74.5 -176t251.5 -14v-37q-192 -31 -279.5 22t-87.5 205v299h-153v35h153v426h-246v37h246v274l41 13v-287h326v-37z" />
    <glyph glyph-name="Umacron" unicode="&#x16a;" horiz-adv-x="1392" 
d="M440 1640v33h492v-33h-492zM696 -20q-235 0 -373.5 134t-138.5 347v973h41v-973q0 -124 50.5 -223t159 -160.5t261.5 -61.5t261.5 61.5t159 160.5t50.5 223v973h41v-973q0 -213 -138.5 -347t-373.5 -134z" />
    <glyph glyph-name="umacron" unicode="&#x16b;" horiz-adv-x="1177" 
d="M819 1264v-33h-491v33h491zM952 1024h41v-1024h-41v281q-41 -146 -152.5 -223.5t-256.5 -77.5q-174 0 -281.5 108t-107.5 285v651h41v-651q0 -155 94 -256t256 -101q180 0 293.5 126t113.5 333v549z" />
    <glyph glyph-name="Uring" unicode="&#x16e;" horiz-adv-x="1392" 
d="M686 1475q-86 0 -140 52.5t-54 131.5t54 131.5t140 52.5q88 0 141.5 -52.5t53.5 -131.5t-53.5 -131.5t-141.5 -52.5zM686 1507q70 0 114 42t44 110q0 67 -43.5 109t-114.5 42t-114.5 -42t-43.5 -109q0 -68 44 -110t114 -42zM696 -20q-235 0 -373.5 134t-138.5 347v973h41
v-973q0 -124 50.5 -223t159 -160.5t261.5 -61.5t261.5 61.5t159 160.5t50.5 223v973h41v-973q0 -213 -138.5 -347t-373.5 -134z" />
    <glyph glyph-name="uring" unicode="&#x16f;" horiz-adv-x="1177" 
d="M573 1147q-86 0 -140 52.5t-54 131.5t54 132t140 53q88 0 141.5 -52.5t53.5 -132.5q0 -79 -53.5 -131.5t-141.5 -52.5zM573 1483q-70 0 -113.5 -42t-43.5 -110t43.5 -109.5t113.5 -41.5q71 0 114.5 42t43.5 109q0 68 -44 110t-114 42zM952 1024h41v-1024h-41v281
q-41 -146 -152.5 -223.5t-256.5 -77.5q-174 0 -281.5 108t-107.5 285v651h41v-651q0 -155 94 -256t256 -101q180 0 293.5 126t113.5 333v549z" />
    <glyph glyph-name="Uhungarumlaut" unicode="&#x170;" horiz-adv-x="1392" 
d="M461 1577h35l151 266h-43zM745 1577h35l172 266h-43zM696 -20q-235 0 -373.5 134t-138.5 347v973h41v-973q0 -124 50.5 -223t159 -160.5t261.5 -61.5t261.5 61.5t159 160.5t50.5 223v973h41v-973q0 -213 -138.5 -347t-373.5 -134z" />
    <glyph glyph-name="uhungarumlaut" unicode="&#x171;" horiz-adv-x="1177" 
d="M535 1434l-152 -267h-35l144 267h43zM840 1434l-172 -267h-35l164 267h43zM952 1024h41v-1024h-41v281q-41 -146 -152.5 -223.5t-256.5 -77.5q-174 0 -281.5 108t-107.5 285v651h41v-651q0 -155 94 -256t256 -101q180 0 293.5 126t113.5 333v549z" />
    <glyph glyph-name="Uogonek" unicode="&#x172;" horiz-adv-x="1392" 
d="M1167 1434h41v-973q0 -120 -45.5 -217t-130.5 -162q-176 -151 -234.5 -225t-58.5 -152q0 -47 30.5 -74.5t80.5 -27.5q53 0 92 16v-33q-36 -16 -92 -16q-68 0 -108 36t-40 99q0 139 207 309q-93 -34 -213 -34q-235 0 -373.5 134t-138.5 347v973h41v-973q0 -124 50.5 -223
t159 -160.5t261.5 -61.5t261.5 61.5t159 160.5t50.5 223v973z" />
    <glyph glyph-name="uogonek" unicode="&#x173;" horiz-adv-x="1177" 
d="M993 0q-100 -86 -149 -156t-49 -139q0 -46 29.5 -74t76.5 -28q53 0 92 16v-33q-36 -16 -92 -16q-65 0 -104 36.5t-39 98.5q0 133 194 305v271q-41 -146 -152.5 -223.5t-256.5 -77.5q-174 0 -281.5 108t-107.5 285v651h41v-651q0 -155 94 -256t256 -101q180 0 293.5 126
t113.5 333v549h41v-1024z" />
    <glyph glyph-name="Wcircumflex" unicode="&#x174;" horiz-adv-x="2007" 
d="M860 1798l-207 -221h-45l230 246h45l229 -246h-45zM1884 1434h41l-416 -1434h-49l-456 1384l-457 -1384h-49l-416 1434h41l399 -1385l457 1385h49l457 -1385z" />
    <glyph glyph-name="wcircumflex" unicode="&#x175;" horiz-adv-x="1576" 
d="M784 1389l-206 -222h-46l230 246h45l229 -246h-45zM1452 1024h43l-336 -1024h-45l-326 969l-325 -969h-45l-336 1024h43l317 -965l322 965h49l322 -965z" />
    <glyph glyph-name="Ycircumflex" unicode="&#x176;" horiz-adv-x="1146" 
d="M569 1798l-207 -221h-45l230 246h45l229 -246h-45zM1126 1434l-532 -840v-594h-41v594l-533 840h46l507 -805l508 805h45z" />
    <glyph glyph-name="ycircumflex" unicode="&#x177;" horiz-adv-x="1044" 
d="M545 1389l-207 -222h-45l229 246h45l230 -246h-45zM963 1024h41l-449 -1118q-61 -152 -166.5 -239t-224.5 -77v37q107 -9 200.5 70.5t153.5 220.5l14 37l-491 1069h41l471 -1022z" />
    <glyph glyph-name="Ydieresis" unicode="&#x178;" horiz-adv-x="1146" 
d="M410 1597q-17 0 -29 12t-12 29t12 29t29 12t29 -12t12 -29t-12 -29t-29 -12zM737 1597q-17 0 -29 12t-12 29t12 29t29 12t29 -12t12 -29t-12 -29t-29 -12zM1126 1434l-532 -840v-594h-41v594l-533 840h46l507 -805l508 805h45z" />
    <glyph glyph-name="Zacute" unicode="&#x179;" horiz-adv-x="1085" 
d="M709 1823l-170 -246h-37l164 246h43zM147 37h857v-37h-902v37l838 1360h-817v37h860v-37z" />
    <glyph glyph-name="zacute" unicode="&#x17a;" horiz-adv-x="1003" 
d="M668 1413l-170 -246h-37l164 246h43zM178 37h723v-37h-778v23l702 964h-682v37h738v-23z" />
    <glyph glyph-name="Zdotaccent" unicode="&#x17b;" horiz-adv-x="1085" 
d="M553 1597q-26 0 -43.5 18t-17.5 44t17.5 43.5t43.5 17.5t43.5 -17.5t17.5 -43.5t-17.5 -44t-43.5 -18zM147 37h857v-37h-902v37l838 1360h-817v37h860v-37z" />
    <glyph glyph-name="zdotaccent" unicode="&#x17c;" horiz-adv-x="1003" 
d="M512 1188q-26 0 -43.5 17.5t-17.5 43.5t17.5 44t43.5 18t43.5 -18t17.5 -44t-17.5 -43.5t-43.5 -17.5zM178 37h723v-37h-778v23l702 964h-682v37h738v-23z" />
    <glyph glyph-name="Zcaron" unicode="&#x17d;" horiz-adv-x="1085" 
d="M573 1577h-45l-229 246h45l207 -221l207 221h45zM147 37h857v-37h-902v37l838 1360h-817v37h860v-37z" />
    <glyph glyph-name="zcaron" unicode="&#x17e;" horiz-adv-x="1003" 
d="M532 1167h-45l-229 246h45l207 -221l207 221h45zM178 37h723v-37h-778v23l702 964h-682v37h738v-23z" />
    <glyph glyph-name="florin" unicode="&#x192;" horiz-adv-x="882" 
d="M541 1208q24 143 123 208t219 22v-41q-106 46 -192 -9t-109 -188l-80 -463h268v-39h-274l-154 -891q-24 -143 -123 -207.5t-219 -21.5v41q106 -46 192 9t109 188l152 882h-256v39h262z" />
    <glyph glyph-name="Scommaaccent" unicode="&#x218;" 
d="M618 -20q-199 0 -332 89t-173 226l34 20q37 -134 161 -216.5t310 -82.5q102 0 181.5 27.5t127.5 75.5t72.5 108.5t24.5 130.5q0 68 -29.5 123t-88 96.5t-128.5 71.5t-166 58q-86 25 -144 46t-119 53.5t-97 69t-59 89.5t-23 118q0 155 117.5 263t304.5 108
q164 0 273 -80.5t159 -208.5l-33 -18q-21 54 -51.5 99t-77.5 85t-116 63t-154 23q-92 0 -166.5 -29t-120 -77.5t-70 -107t-24.5 -120.5q0 -59 25.5 -108t53 -78.5t98 -63t106.5 -46.5t133 -45q1 -1 2 -1q82 -27 140 -50.5t117.5 -57.5t96 -71.5t59.5 -89.5t23 -114
q0 -169 -120 -273.5t-327 -104.5zM578 -492l28 349h-41l-20 -349h33z" />
    <glyph glyph-name="scommaaccent" unicode="&#x219;" horiz-adv-x="952" 
d="M184 758q0 -64 36.5 -107t95.5 -65.5t130 -38.5t142 -34t130 -44t95.5 -77.5t36.5 -125.5q0 -121 -100 -203.5t-258 -82.5q-152 0 -247.5 56t-131.5 159l32 18q64 -197 347 -197q138 0 227.5 70.5t89.5 179.5q0 66 -36.5 111t-95.5 68t-130 39.5t-142 34t-130 43
t-95.5 75t-36.5 121.5q0 122 93.5 204t250.5 82q120 0 206 -52.5t122 -143.5l-33 -19q-33 83 -111 131t-184 48q-137 0 -220 -70t-83 -180zM455 -492l20 349h41l-29 -349h-32z" />
    <glyph glyph-name="uni021A" unicode="&#x21a;" horiz-adv-x="1105" 
d="M1044 1434v-37h-471v-1397h-41v1397h-471v37h983zM516 -492l21 349h41l-29 -349h-33z" />
    <glyph glyph-name="uni021B" unicode="&#x21b;" horiz-adv-x="776" 
d="M674 987h-326v-760q0 -135 74.5 -176t251.5 -14v-37q-192 -31 -279.5 22t-87.5 205v760h-246v37h246v274l41 13v-287h326v-37zM446 -492l21 349h41l-29 -349h-33z" />
    <glyph glyph-name="circumflex" unicode="&#x2c6;" horiz-adv-x="585" 
d="M545 1167h-45l-207 222l-207 -222h-45l229 246h45z" />
    <glyph glyph-name="caron" unicode="&#x2c7;" horiz-adv-x="585" 
d="M502 1413h45l-230 -246h-45l-229 246h45l207 -221z" />
    <glyph glyph-name="breve" unicode="&#x2d8;" horiz-adv-x="573" 
d="M287 1171q-110 0 -178 59t-68 156h37q0 -82 57.5 -132t151.5 -50t151.5 50t57.5 132h36q0 -97 -67.5 -156t-177.5 -59z" />
    <glyph glyph-name="dotaccent" unicode="&#x2d9;" horiz-adv-x="204" 
d="M102 1188q-26 0 -43.5 17.5t-17.5 43.5t17.5 44t43.5 18t44 -18t18 -44t-18 -43.5t-44 -17.5z" />
    <glyph glyph-name="ring" unicode="&#x2da;" horiz-adv-x="471" 
d="M236 1147q-87 0 -141 52.5t-54 131.5t54.5 132t140.5 53q88 0 141 -52.5t53 -132.5t-53 -132t-141 -52zM236 1180q70 0 113.5 41.5t43.5 109.5t-43.5 110t-113.5 42t-114 -42t-44 -110q0 -67 43.5 -109t114.5 -42z" />
    <glyph glyph-name="ogonek" unicode="&#x2db;" horiz-adv-x="321" 
d="M188 -430q-68 0 -107.5 36t-39.5 99q0 141 188 295h47q-100 -86 -149 -156t-49 -139q0 -47 30 -74.5t80 -27.5q54 0 93 16v-33q-36 -16 -93 -16z" />
    <glyph glyph-name="tilde" unicode="&#x2dc;" horiz-adv-x="606" 
d="M41 1208q0 69 22.5 115.5t59 62t87 -3.5t103.5 -75q94 -95 155.5 -69.5t61.5 142.5h35q0 -54 -14.5 -95t-41 -62t-60 -24.5t-74.5 18t-82 65.5q-95 97 -156 71t-61 -145h-35z" />
    <glyph glyph-name="hungarumlaut" unicode="&#x2dd;" horiz-adv-x="573" 
d="M41 1167h35l151 267h-43zM326 1167h34l172 267h-43z" />
    <glyph glyph-name="gravecomb" unicode="&#x300;" horiz-adv-x="0" 
d="M-41 1167l-164 246h-43l172 -246h35z" />
    <glyph glyph-name="acutecomb" unicode="&#x301;" horiz-adv-x="0" 
d="M-248 1167h37l170 246h-43z" />
    <glyph glyph-name="uni0302" unicode="&#x302;" horiz-adv-x="0" 
d="M-41 1167h-45l-207 222l-207 -222h-45l230 246h45z" />
    <glyph glyph-name="tildecomb" unicode="&#x303;" horiz-adv-x="0" 
d="M-565 1208q0 69 22.5 115.5t59 62t87 -3.5t103.5 -75q94 -95 155.5 -69.5t61.5 142.5h35q0 -54 -14.5 -95t-41 -62t-60 -24.5t-74.5 18t-82 65.5q-95 97 -156 71t-61 -145h-35z" />
    <glyph glyph-name="uni0304" unicode="&#x304;" horiz-adv-x="0" 
d="M-532 1231v33h491v-33h-491z" />
    <glyph glyph-name="uni0306" unicode="&#x306;" horiz-adv-x="0" 
d="M-328 1171q-110 0 -177.5 59t-67.5 156h36q0 -82 57.5 -132t151.5 -50t151.5 50t57.5 132h37q0 -97 -68 -156t-178 -59z" />
    <glyph glyph-name="uni0307" unicode="&#x307;" horiz-adv-x="0" 
d="M-102 1188q-26 0 -44 17.5t-18 43.5t18 44t44 18t43.5 -18t17.5 -44t-17.5 -43.5t-43.5 -17.5z" />
    <glyph glyph-name="uni0308" unicode="&#x308;" horiz-adv-x="0" 
d="M-410 1188q-17 0 -29 12t-12 29t12 29t29 12t29 -12t12 -29t-12 -29t-29 -12zM-82 1188q-17 0 -29 12t-12 29t12 29t29 12t29 -12t12 -29t-12 -29t-29 -12z" />
    <glyph glyph-name="uni030A" unicode="&#x30a;" horiz-adv-x="0" 
d="M-236 1147q-86 0 -140 52.5t-54 131.5t54 132t140 53q88 0 141.5 -52.5t53.5 -132.5q0 -79 -53.5 -131.5t-141.5 -52.5zM-236 1180q71 0 114.5 42t43.5 109q0 68 -44 110t-114 42t-113.5 -42t-43.5 -110t43.5 -109.5t113.5 -41.5z" />
    <glyph glyph-name="uni030B" unicode="&#x30b;" horiz-adv-x="0" 
d="M-512 1167h35l151 267h-43zM-227 1167h34l173 267h-43z" />
    <glyph glyph-name="uni030C" unicode="&#x30c;" horiz-adv-x="0" 
d="M-84 1413h45l-229 -246h-45l-230 246h45l207 -221z" />
    <glyph glyph-name="uni0312" unicode="&#x312;" horiz-adv-x="0" 
d="M-74 1966l-28 -348h41l20 348h-33z" />
    <glyph glyph-name="uni0326" unicode="&#x326;" horiz-adv-x="0" 
d="M-70 -492l29 349h-41l-20 -349h32z" />
    <glyph glyph-name="uni0327" unicode="&#x327;" horiz-adv-x="0" 
d="M-221 -162q68 7 124 -26t56 -99q0 -78 -91.5 -113.5t-266.5 -13.5v33q158 -20 239.5 5.5t81.5 88.5q0 48 -45 73.5t-135 18.5v195h37v-162z" />
    <glyph glyph-name="uni0328" unicode="&#x328;" horiz-adv-x="0" 
d="M-133 -430q-68 0 -108 36t-40 99q0 140 189 295h47q-101 -86 -150 -156t-49 -139q0 -47 30.5 -74.5t80.5 -27.5q53 0 92 16v-33q-36 -16 -92 -16z" />
    <glyph glyph-name="uni0394" unicode="&#x394;" horiz-adv-x="1265" 
d="M657 1434l568 -1434h-1184l567 1434h49zM98 37h1069l-534 1354z" />
    <glyph glyph-name="uni03A9" unicode="&#x3a9;" horiz-adv-x="1720" 
d="M1597 717q0 -230 -130 -415.5t-337 -264.5h447v-37h-549v37q230 58 379 246.5t149 433.5q0 143 -55 272.5t-148 223t-222 149t-271 55.5t-271 -55.5t-222 -149t-148 -223t-55 -272.5q0 -245 149 -433.5t379 -246.5v-37h-549v37h447q-207 79 -337 264.5t-130 415.5
q0 150 58 286.5t157 235.5t235.5 157t286.5 58t286.5 -58t235.5 -157t157 -235.5t58 -286.5z" />
    <glyph glyph-name="pi" unicode="&#x3c0;" horiz-adv-x="1331" 
d="M1249 1024v-37h-170v-987h-41v987h-737v-987h-41v987h-178v37h1167z" />
    <glyph glyph-name="uni0401" unicode="&#x401;" horiz-adv-x="1105" 
d="M434 1597q-17 0 -29 12t-12 29t12 29t29 12t29 -12t12 -29t-12 -29t-29 -12zM762 1597q-17 0 -29 12t-12 29t12 29t29 12t29 -12t12 -29t-12 -29t-29 -12zM246 37h758v-37h-799v1434h788v-37h-747v-656h696v-36h-696v-668z" />
    <glyph glyph-name="uni0402" unicode="&#x402;" horiz-adv-x="1433" 
d="M932 963q151 0 254.5 -93t103.5 -262v-372q0 -127 -72 -194t-212 -52v37q124 -13 183.5 42.5t59.5 166.5v372q0 147 -90.5 232.5t-226.5 85.5q-112 0 -200 -26.5t-200 -82.5v-817h-40v1397h-431v37h983v-37h-512v-541q113 56 197 81.5t203 25.5z" />
    <glyph glyph-name="uni0403" unicode="&#x403;" horiz-adv-x="1024" 
d="M721 1821l-170 -246h-37l164 246h43zM963 1434v-37h-717v-1397h-41v1434h758z" />
    <glyph glyph-name="uni0404" unicode="&#x404;" horiz-adv-x="1564" 
d="M1436 344l37 -20q-89 -157 -253 -250.5t-360 -93.5q-210 0 -379.5 99t-263.5 267.5t-94 370.5t94 370.5t263.5 267.5t379.5 99q190 0 351 -89.5t251 -240.5l-35 -20q-84 143 -236 228t-331 85q-195 0 -353.5 -91.5t-248 -247t-94.5 -343.5h856v-37h-856
q5 -188 94.5 -343.5t248 -247t353.5 -91.5q186 0 341 89.5t235 238.5z" />
    <glyph glyph-name="uni0405" unicode="&#x405;" 
d="M618 -20q-199 0 -332 89t-173 226l34 20q37 -134 161 -216.5t310 -82.5q102 0 181.5 27.5t127.5 75.5t72.5 108.5t24.5 130.5q0 68 -29.5 123t-88 96.5t-128.5 71.5t-166 58q-86 25 -144 46t-119 53.5t-97 69t-59 89.5t-23 118q0 155 117.5 263t304.5 108
q164 0 273 -80.5t159 -208.5l-33 -18q-21 54 -51.5 99t-77.5 85t-116 63t-154 23q-92 0 -166.5 -29t-120 -77.5t-70 -107t-24.5 -120.5q0 -59 25.5 -108t53 -78.5t98 -63t106.5 -46.5t133 -45q1 -1 2 -1q82 -27 140 -50.5t117.5 -57.5t96 -71.5t59.5 -89.5t23 -114
q0 -169 -120 -273.5t-327 -104.5z" />
    <glyph glyph-name="uni0406" unicode="&#x406;" horiz-adv-x="450" 
d="M205 1434h41v-1434h-41v1434z" />
    <glyph glyph-name="uni0407" unicode="&#x407;" horiz-adv-x="450" 
d="M61 1597q-17 0 -29 12t-12 29t12 29t29 12t29 -12t12 -29t-12 -29t-29 -12zM389 1597q-17 0 -29 12t-12 29t12 29t29 12t29 -12t12 -29t-12 -29t-29 -12zM205 1434h41v-1434h-41v1434z" />
    <glyph glyph-name="uni0408" unicode="&#x408;" horiz-adv-x="1134" 
d="M510 -20q-150 0 -256 61t-152 170l33 20q43 -103 140 -159t235 -56q187 0 293 99t106 254v1065h41v-1065q0 -177 -122 -283t-318 -106z" />
    <glyph glyph-name="uni0409" unicode="&#x409;" horiz-adv-x="2037" 
d="M1526 778q171 0 290 -111t119 -278t-119 -278t-290 -111h-410v1397h-696v-844q0 -282 -90.5 -426t-278.5 -131v37q73 -5 130.5 18.5t103 81.5t70 164.5t24.5 255.5v881h778v-656h369zM1526 37q154 0 261 100t107 252t-107 252t-261 100h-369v-704h369z" />
    <glyph glyph-name="uni040A" unicode="&#x40a;" horiz-adv-x="2027" 
d="M1516 778q171 0 290 -111t119 -278t-119 -278t-290 -111h-410v741h-860v-741h-41v1434h41v-656h860v656h41v-656h369zM1516 37q154 0 261 100t107 252t-107 252t-261 100h-369v-704h369z" />
    <glyph glyph-name="uni040B" unicode="&#x40b;" horiz-adv-x="1454" 
d="M932 963q151 0 254.5 -93t103.5 -262v-608h-41v608q0 147 -90.5 232.5t-226.5 85.5q-112 0 -200 -26.5t-200 -82.5v-817h-40v1397h-431v37h983v-37h-512v-541q113 56 197 81.5t203 25.5z" />
    <glyph glyph-name="uni040C" unicode="&#x40c;" horiz-adv-x="1136" 
d="M741 1821l-170 -246h-36l163 246h43zM1116 0h-55l-815 727v-727h-41v1434h41v-686l794 686h56l-805 -697z" />
    <glyph glyph-name="uni040E" unicode="&#x40e;" horiz-adv-x="1144" 
d="M831 1671v-33h-491v33h491zM1063 1434h41l-477 -1121q-144 -334 -396 -313v37q116 -9 204 62t155 229l16 39l-524 1067h41l504 -1020z" />
    <glyph glyph-name="uni040F" unicode="&#x40f;" horiz-adv-x="1433" 
d="M1188 1434h41v-1434h-492v-274h-41v274h-491v1434h41v-1397h942v1397z" />
    <glyph glyph-name="uni0410" unicode="&#x410;" horiz-adv-x="1286" 
d="M1192 0l-154 391h-790l-154 -391h-43l567 1434h50l567 -1434h-43zM262 428h762l-381 963z" />
    <glyph glyph-name="uni0411" unicode="&#x411;" horiz-adv-x="1198" 
d="M696 819q169 0 289.5 -120t120.5 -289t-120.5 -289.5t-289.5 -120.5h-491v1434h799v-37h-758v-578h450zM696 37q152 0 260.5 109.5t108.5 263.5t-108.5 263t-260.5 109h-450v-745h450z" />
    <glyph glyph-name="uni0412" unicode="&#x412;" horiz-adv-x="1290" 
d="M889 737q129 -27 214 -128.5t85 -233.5q0 -155 -110 -265t-265 -110h-608v1434h561q149 0 254.5 -106.5t105.5 -254.5q0 -116 -65.5 -207.5t-171.5 -128.5zM766 1397h-520v-647h520q132 0 225.5 94.5t93.5 228.5q0 133 -94 228.5t-225 95.5zM813 37q138 0 236 99t98 239
q0 139 -98.5 238.5t-235.5 99.5h-567v-676h567z" />
    <glyph glyph-name="uni0413" unicode="&#x413;" horiz-adv-x="1024" 
d="M963 1434v-37h-717v-1397h-41v1434h758z" />
    <glyph glyph-name="uni0414" unicode="&#x414;" horiz-adv-x="1413" 
d="M1178 37h143v-311h-41v274h-1188v-274h-41v311h109q67 68 112 197.5t45 322.5v877h861v-1397zM358 557q0 -348 -145 -520h924v1360h-779v-840z" />
    <glyph glyph-name="uni0415" unicode="&#x415;" horiz-adv-x="1105" 
d="M246 37h758v-37h-799v1434h788v-37h-747v-656h696v-36h-696v-668z" />
    <glyph glyph-name="uni0416" unicode="&#x416;" horiz-adv-x="1654" 
d="M1614 0h-51l-715 727v-727h-41v727l-715 -727h-51l723 737l-703 697h52l694 -686v686h41v-686l694 686h51l-702 -697z" />
    <glyph glyph-name="uni0417" unicode="&#x417;" horiz-adv-x="1105" 
d="M713 735q144 -29 227.5 -129t83.5 -237q0 -169 -126 -279t-331 -110q-378 0 -485 299l35 18q94 -281 450 -281q188 0 302 99t114 254q0 147 -102 245.5t-271 98.5h-157v37h120q164 0 261.5 93.5t97.5 233.5q0 147 -105.5 243.5t-265.5 96.5q-299 0 -407 -260l-33 19
q118 278 440 278q178 0 295 -107.5t117 -269.5q0 -121 -69 -213.5t-191 -128.5z" />
    <glyph glyph-name="uni0418" unicode="&#x418;" horiz-adv-x="1433" 
d="M1188 0v1364l-942 -1364h-41v1434h41v-1364l942 1364h41v-1434h-41z" />
    <glyph glyph-name="uni0419" unicode="&#x419;" horiz-adv-x="1433" 
d="M471 1640v33h492v-33h-492zM1188 0v1364l-942 -1364h-41v1434h41v-1364l942 1364h41v-1434h-41z" />
    <glyph glyph-name="uni041A" unicode="&#x41a;" horiz-adv-x="1136" 
d="M1116 0h-55l-815 727v-727h-41v1434h41v-686l794 686h56l-805 -697z" />
    <glyph glyph-name="uni041B" unicode="&#x41b;" horiz-adv-x="1443" 
d="M51 0v37q73 -7 130.5 16t103 80.5t70 164t24.5 255.5v881h860v-1434h-41v1397h-778v-844q0 -283 -91 -426.5t-278 -126.5z" />
    <glyph glyph-name="uni041C" unicode="&#x41c;" horiz-adv-x="1679" 
d="M1475 1434v-1434h-41v1378l-586 -950h-17l-585 950v-1378h-41v1434h53l582 -947l581 947h54z" />
    <glyph glyph-name="uni041D" unicode="&#x41d;" horiz-adv-x="1433" 
d="M1188 1434h41v-1434h-41v719h-942v-719h-41v1434h41v-678h942v678z" />
    <glyph glyph-name="uni041E" unicode="&#x41e;" horiz-adv-x="1720" 
d="M860 -20q-150 0 -286.5 58t-235.5 157t-157 235.5t-58 286.5t58 286.5t157 235.5t235.5 157t286.5 58t286.5 -58t235.5 -157t157 -235.5t58 -286.5t-58 -286.5t-157 -235.5t-235.5 -157t-286.5 -58zM860 16q189 0 349.5 94t253.5 255.5t93 351.5q0 143 -55 272.5
t-148 223t-222 149t-271 55.5t-271 -55.5t-222 -149t-148 -223t-55 -272.5q0 -190 93 -351.5t253.5 -255.5t349.5 -94z" />
    <glyph glyph-name="uni041F" unicode="&#x41f;" horiz-adv-x="1433" 
d="M1229 1434v-1434h-41v1397h-942v-1397h-41v1434h1024z" />
    <glyph glyph-name="uni0420" unicode="&#x420;" horiz-adv-x="1187" 
d="M645 1434q191 0 315.5 -122.5t124.5 -307.5t-124.5 -308t-315.5 -123h-399v-573h-41v1434h440zM645 610q174 0 286.5 112t112.5 282t-112.5 281.5t-286.5 111.5h-399v-787h399z" />
    <glyph glyph-name="uni0421" unicode="&#x421;" horiz-adv-x="1564" 
d="M860 -20q-210 0 -379.5 99t-263.5 267.5t-94 370.5t94 370.5t263.5 267.5t379.5 99q190 0 351 -89.5t251 -240.5l-35 -20q-84 143 -236 228t-331 85q-199 0 -359 -94t-248.5 -254t-88.5 -352t88.5 -352t248.5 -254.5t359 -94.5q186 0 341 89.5t235 238.5l37 -20
q-89 -157 -253 -250.5t-360 -93.5z" />
    <glyph glyph-name="uni0422" unicode="&#x422;" horiz-adv-x="1105" 
d="M1044 1434v-37h-471v-1397h-41v1397h-471v37h983z" />
    <glyph glyph-name="uni0423" unicode="&#x423;" horiz-adv-x="1144" 
d="M1063 1434h41l-477 -1121q-144 -334 -396 -313v37q116 -9 204 62t155 229l16 39l-524 1067h41l504 -1020z" />
    <glyph glyph-name="uni0424" unicode="&#x424;" horiz-adv-x="1646" 
d="M1565 717q0 -176 -96 -302.5t-256.5 -189t-368.5 -65.5v-160h-41v160q-208 3 -368.5 65.5t-256.5 189t-96 302.5t96 302.5t256.5 189t368.5 65.5v160h41v-160q208 -3 368.5 -65.5t256.5 -189t96 -302.5zM123 717q0 -237 183 -376t497 -144v1040q-314 -5 -497 -144
t-183 -376zM844 197q314 5 497 144t183 376t-183 376t-497 144v-1040z" />
    <glyph glyph-name="uni0425" unicode="&#x425;" horiz-adv-x="1146" 
d="M1085 0h-49l-463 694l-462 -694h-50l488 731l-469 703h49l444 -666l445 666h49l-469 -703z" />
    <glyph glyph-name="uni0426" unicode="&#x426;" horiz-adv-x="1413" 
d="M1188 37h143v-311h-41v274h-1085v1434h41v-1397h901v1397h41v-1397z" />
    <glyph glyph-name="uni0427" unicode="&#x427;" horiz-adv-x="1290" 
d="M1044 1434h41v-1434h-41v649q-108 -51 -207 -73.5t-223 -22.5q-216 0 -333 110t-117 279v492h41v-492q0 -159 108 -255.5t301 -96.5q119 0 217 23t213 77v744z" />
    <glyph glyph-name="uni0428" unicode="&#x428;" horiz-adv-x="1986" 
d="M1741 1434h41v-1434h-1577v1434h41v-1397h727v1397h41v-1397h727v1397z" />
    <glyph glyph-name="uni0429" unicode="&#x429;" horiz-adv-x="2007" 
d="M1782 37h143v-311h-41v274h-1679v1434h41v-1397h727v1397h41v-1397h727v1397h41v-1397z" />
    <glyph glyph-name="uni042A" unicode="&#x42a;" horiz-adv-x="1392" 
d="M410 0v1397h-410v37h451v-574h399q191 0 315.5 -122.5t124.5 -307.5t-124.5 -307.5t-315.5 -122.5h-440zM451 37h399q174 0 286.5 111.5t112.5 281.5t-112.5 281.5t-286.5 111.5h-399v-786z" />
    <glyph glyph-name="uni042B" unicode="&#x42b;" horiz-adv-x="1515" 
d="M205 0v1434h41v-574h399q191 0 315.5 -122.5t124.5 -307.5t-124.5 -307.5t-315.5 -122.5h-440zM1270 0v1434h41v-1434h-41zM246 37h399q174 0 286.5 111.5t112.5 281.5t-112.5 281.5t-286.5 111.5h-399v-786z" />
    <glyph glyph-name="uni042C" unicode="&#x42c;" horiz-adv-x="1187" 
d="M645 860q191 0 315.5 -122.5t124.5 -307.5t-124.5 -307.5t-315.5 -122.5h-440v1434h41v-574h399zM645 37q174 0 286.5 111.5t112.5 281.5t-112.5 281.5t-286.5 111.5h-399v-786h399z" />
    <glyph glyph-name="uni042D" unicode="&#x42d;" horiz-adv-x="1564" 
d="M705 1454q210 0 379.5 -99t263.5 -267.5t94 -370.5t-94 -370.5t-263.5 -267.5t-379.5 -99q-196 0 -360 93.5t-253 250.5l37 20q80 -149 235 -238.5t341 -89.5q195 0 353.5 91.5t248 247t94.5 343.5h-856v37h856q-5 188 -94.5 343.5t-248 247t-353.5 91.5
q-179 0 -331.5 -85t-236.5 -228l-35 20q90 151 251.5 240.5t351.5 89.5z" />
    <glyph glyph-name="uni042E" unicode="&#x42e;" horiz-adv-x="2170" 
d="M1311 1454q150 0 286.5 -58t235.5 -157t157 -235.5t58 -286.5t-58 -286.5t-157 -235.5t-235.5 -157t-286.5 -58t-287 58t-235.5 157t-157 235.5t-58.5 286.5v2h-327v-719h-41v1434h41v-678h327q10 192 110.5 352t267 253t360.5 93zM1311 16q189 0 349.5 94t253.5 255.5
t93 351.5q0 143 -55 272.5t-148 223t-222 149t-271 55.5q-189 0 -349.5 -93.5t-254 -255t-93.5 -351.5t93.5 -351.5t254 -255.5t349.5 -94z" />
    <glyph glyph-name="uni042F" unicode="&#x42f;" horiz-adv-x="1310" 
d="M1106 1434v-1434h-41v614h-496l-422 -614h-45l424 614q-160 11 -271.5 129.5t-111.5 280.5q0 169 120.5 289.5t289.5 120.5h553zM553 651h512v746h-512q-152 0 -260.5 -109.5t-108.5 -263.5t108.5 -263.5t260.5 -109.5z" />
    <glyph glyph-name="uni0430" unicode="&#x430;" horiz-adv-x="1355" 
d="M1130 1024h41v-1024h-41v313q-59 -151 -192 -242t-301 -91q-147 0 -269.5 69.5t-194 192t-71.5 270.5t71.5 270.5t194 192t269.5 69.5q168 0 301 -91t192 -242v313zM637 16q207 0 350 143.5t143 352.5t-143 352.5t-350 143.5t-350.5 -143.5t-143.5 -352.5t143.5 -352.5
t350.5 -143.5z" />
    <glyph glyph-name="uni0431" unicode="&#x431;" horiz-adv-x="1187" 
d="M614 -23q-222 0 -367 144t-145 381q0 98 7.5 168t30 140.5t62.5 124.5t105 106t158 98q58 29 136 61t125 52t95.5 48.5t76 64.5t36.5 85l33 -18q-11 -52 -41 -91t-81.5 -69t-100.5 -51.5t-127 -53.5t-132 -59q-170 -84 -247.5 -191t-90.5 -292q74 149 203 227t277 78
q202 0 340.5 -135.5t138.5 -343.5q0 -206 -138 -340t-354 -134zM614 14q198 0 324.5 122.5t126.5 314.5q0 191 -125 316.5t-313 125.5q-175 0 -309 -111t-175 -280q0 -216 130.5 -352t340.5 -136z" />
    <glyph glyph-name="uni0432" unicode="&#x432;" horiz-adv-x="1064" 
d="M770 532q104 -23 158.5 -93t54.5 -167q0 -119 -78 -195.5t-227 -76.5h-494v1024h459q140 0 214.5 -73t74.5 -185q0 -82 -41.5 -144.5t-120.5 -89.5zM643 987h-418v-442h418q117 0 182.5 59t65.5 162t-65.5 162t-182.5 59zM678 37q124 0 194 62.5t70 172.5
q0 111 -70 173.5t-194 62.5h-453v-471h453z" />
    <glyph glyph-name="uni0433" unicode="&#x433;" horiz-adv-x="829" 
d="M799 1024v-37h-574v-987h-41v1024h615z" />
    <glyph glyph-name="uni0434" unicode="&#x434;" horiz-adv-x="1208" 
d="M983 37h143v-311h-41v274h-983v-274h-41v311h109q64 92 93.5 202t29.5 259v526h690v-987zM217 37h725v950h-608v-489q0 -282 -117 -461z" />
    <glyph glyph-name="uni0435" unicode="&#x435;" horiz-adv-x="1226" 
d="M621 1044q149 0 266 -76t177 -197t60 -263v-21h-981q9 -209 146.5 -340t339.5 -131q134 0 242 57t159 154l35 -20q-59 -105 -175 -166t-261 -61q-228 0 -377.5 150.5t-149.5 381.5q0 149 66 270.5t185 191.5t268 70zM143 524h944q-12 215 -143.5 349.5t-322.5 134.5
q-132 0 -240 -61t-171.5 -172t-66.5 -251z" />
    <glyph glyph-name="uni0436" unicode="&#x436;" horiz-adv-x="1314" 
d="M1253 0h-53l-522 518v-518h-41v518l-522 -518h-54l535 532l-514 492h53l502 -477v477h41v-477l502 477h53l-514 -492z" />
    <glyph glyph-name="uni0437" unicode="&#x437;" horiz-adv-x="911" 
d="M598 532q112 -24 171.5 -97.5t59.5 -172.5q0 -119 -95.5 -200.5t-266.5 -81.5q-309 0 -385 235l33 18q65 -217 352 -217q147 0 234 67.5t87 178.5t-76.5 178.5t-207.5 67.5h-123v37h88q123 0 195.5 63.5t72.5 167.5q0 102 -80.5 167t-205.5 65q-119 0 -200.5 -52
t-115.5 -137l-33 19q37 93 127 149.5t222 56.5q148 0 237.5 -78.5t89.5 -189.5q0 -84 -46.5 -150t-133.5 -94z" />
    <glyph glyph-name="uni0438" unicode="&#x438;" horiz-adv-x="1187" 
d="M963 1024h41v-1024h-41v958l-738 -958h-41v1024h41v-958z" />
    <glyph glyph-name="uni0439" unicode="&#x439;" horiz-adv-x="1187" 
d="M348 1231v33h492v-33h-492zM963 1024h41v-1024h-41v958l-738 -958h-41v1024h41v-958z" />
    <glyph glyph-name="uni043A" unicode="&#x43a;" horiz-adv-x="944" 
d="M883 0h-58l-600 520v-520h-41v1024h41v-479l580 479h57l-594 -492z" />
    <glyph glyph-name="uni043B" unicode="&#x43b;" horiz-adv-x="1187" 
d="M1004 1024v-1024h-41v987h-619v-571q0 -125 -23.5 -211.5t-67 -131.5t-95.5 -62t-117 -11v37q134 -11 198 82t64 297v608h701z" />
    <glyph glyph-name="uni043C" unicode="&#x43c;" horiz-adv-x="1331" 
d="M1147 1024v-1024h-41v973l-434 -654h-13l-434 654v-973h-41v1024h56l426 -639l426 639h55z" />
    <glyph glyph-name="uni043D" unicode="&#x43d;" horiz-adv-x="1187" 
d="M963 1024h41v-1024h-41v494h-738v-494h-41v1024h41v-494h738v494z" />
    <glyph glyph-name="uni043E" unicode="&#x43e;" horiz-adv-x="1273" 
d="M637 -20q-147 0 -269.5 69.5t-194 192t-71.5 270.5t71.5 270.5t194 192t269.5 69.5q110 0 208.5 -41t170 -111.5t113.5 -169.5t42 -210t-42 -210t-113.5 -169.5t-170 -111.5t-208.5 -41zM637 16q207 0 350 143.5t143 352.5t-143 352.5t-350 143.5t-350.5 -143.5
t-143.5 -352.5t143.5 -352.5t350.5 -143.5z" />
    <glyph glyph-name="uni043F" unicode="&#x43f;" horiz-adv-x="1187" 
d="M1004 1024v-1024h-41v987h-738v-987h-41v1024h820z" />
    <glyph glyph-name="uni0440" unicode="&#x440;" horiz-adv-x="1355" 
d="M719 1044q110 0 208.5 -41t170 -111.5t113.5 -169.5t42 -210t-42 -210t-113.5 -169.5t-170 -111.5t-208.5 -41q-170 0 -304 94t-190 248v-732h-41v1434h41v-322q56 154 190 248t304 94zM719 16q207 0 350 143.5t143 352.5t-143 352.5t-350 143.5t-350.5 -143.5
t-143.5 -352.5t143.5 -352.5t350.5 -143.5z" />
    <glyph glyph-name="uni0441" unicode="&#x441;" horiz-adv-x="1185" 
d="M637 -20q-228 0 -381.5 153t-153.5 379t153.5 379t381.5 153q150 0 269.5 -67t176.5 -182l-32 -21q-53 107 -164 170.5t-250 63.5q-140 0 -253.5 -65.5t-177 -179t-63.5 -251.5t63.5 -251.5t177 -179t253.5 -65.5q138 0 248.5 63.5t165.5 170.5l32 -21
q-57 -115 -176.5 -182t-269.5 -67z" />
    <glyph glyph-name="uni0442" unicode="&#x442;" horiz-adv-x="901" 
d="M860 1024v-37h-389v-987h-41v987h-389v37h819z" />
    <glyph glyph-name="uni0443" unicode="&#x443;" horiz-adv-x="1044" 
d="M963 1024h41l-449 -1118q-61 -152 -166.5 -239t-224.5 -77v37q107 -9 200.5 70.5t153.5 220.5l14 37l-491 1069h41l471 -1022z" />
    <glyph glyph-name="uni0444" unicode="&#x444;" horiz-adv-x="1372" 
d="M1270 512q0 -147 -70.5 -268t-199.5 -192.5t-293 -76.5v-385h-41v385q-123 4 -228.5 46.5t-179 114t-115 169t-41.5 207.5t41.5 207.5t115 169t179 114t228.5 46.5v385h41v-385q164 -5 293 -76.5t199.5 -192.5t70.5 -268zM143 512q0 -212 147 -352t376 -148v1000
q-229 -8 -376 -148t-147 -352zM707 12q229 8 375.5 148t146.5 352t-146.5 352t-375.5 148v-1000z" />
    <glyph glyph-name="uni0445" unicode="&#x445;" horiz-adv-x="1024" 
d="M963 0h-52l-399 494l-399 -494h-52l426 524l-405 500h49l381 -469l381 469h49l-405 -500z" />
    <glyph glyph-name="uni0446" unicode="&#x446;" horiz-adv-x="1228" 
d="M983 37h164v-311h-41v274h-922v1024h41v-987h717v987h41v-987z" />
    <glyph glyph-name="uni0447" unicode="&#x447;" horiz-adv-x="1126" 
d="M901 1024h41v-1024h-41v426q-167 -78 -352 -78q-188 0 -297 87.5t-109 240.5v348h41v-348q0 -135 96 -213t269 -78q180 0 352 82v557z" />
    <glyph glyph-name="uni0448" unicode="&#x448;" horiz-adv-x="1699" 
d="M1475 1024h41v-1024h-1332v1024h41v-987h604v987h41v-987h605v987z" />
    <glyph glyph-name="uni0449" unicode="&#x449;" horiz-adv-x="1740" 
d="M1516 37h143v-311h-41v274h-1434v1024h41v-987h604v987h41v-987h605v987h41v-987z" />
    <glyph glyph-name="uni044A" unicode="&#x44a;" horiz-adv-x="1105" 
d="M692 610q137 0 234.5 -83.5t97.5 -219.5q0 -137 -97.5 -222t-234.5 -85h-385v987h-307v37h348v-414h344zM692 37q126 0 208.5 76.5t82.5 193.5t-82.5 191.5t-208.5 74.5h-344v-536h344z" />
    <glyph glyph-name="uni044B" unicode="&#x44b;" horiz-adv-x="1310" 
d="M569 610q137 0 234.5 -83.5t97.5 -219.5q0 -137 -97.5 -222t-234.5 -85h-385v1024h41v-414h344zM1085 1024h41v-1024h-41v1024zM569 37q126 0 208.5 76.5t82.5 193.5t-82.5 191.5t-208.5 74.5h-344v-536h344z" />
    <glyph glyph-name="uni044C" unicode="&#x44c;" horiz-adv-x="983" 
d="M569 610q137 0 234.5 -83.5t97.5 -219.5q0 -137 -97.5 -222t-234.5 -85h-385v1024h41v-414h344zM569 37q126 0 208.5 76.5t82.5 193.5t-82.5 191.5t-208.5 74.5h-344v-536h344z" />
    <glyph glyph-name="uni044D" unicode="&#x44d;" horiz-adv-x="1165" 
d="M539 1044q233 0 378.5 -151.5t145.5 -380.5t-145.5 -380.5t-378.5 -151.5q-157 0 -278 67t-179 182l33 21q55 -108 167 -171t257 -63q141 0 250.5 63.5t169 171.5t63.5 243h-567v36h567q-4 135 -63.5 243t-169 171.5t-250.5 63.5q-147 0 -259 -63t-165 -171l-33 21
q58 115 179 182t278 67z" />
    <glyph glyph-name="uni044E" unicode="&#x44e;" horiz-adv-x="1658" 
d="M1022 1044q110 0 208.5 -41t170 -111.5t113.5 -169.5t42 -210t-42 -210t-113.5 -169.5t-170 -111.5t-208.5 -41q-144 0 -264.5 67t-193 185t-77.5 262h-262v-494h-41v1024h41v-494h262q5 144 77.5 262t193 185t264.5 67zM1022 16q207 0 350.5 143.5t143.5 352.5
t-143.5 352.5t-350.5 143.5t-350.5 -143.5t-143.5 -352.5t143.5 -352.5t350.5 -143.5z" />
    <glyph glyph-name="uni044F" unicode="&#x44f;" horiz-adv-x="1024" 
d="M840 1024v-1024h-41v414h-312l-331 -414h-54l338 414q-133 5 -225 87.5t-92 215.5q0 137 97.5 222t234.5 85h385zM455 451h344v536h-344q-126 0 -208.5 -76.5t-82.5 -193.5t82.5 -191.5t208.5 -74.5z" />
    <glyph glyph-name="uni0451" unicode="&#x451;" horiz-adv-x="1226" 
d="M444 1188q-17 0 -29 12t-12 29t12 29t29 12t29 -12t12 -29t-12 -29t-29 -12zM772 1188q-17 0 -29 12t-12 29t12 29t29 12t29 -12t12 -29t-12 -29t-29 -12zM621 1044q149 0 266 -76t177 -197t60 -263v-21h-981q9 -209 146.5 -340t339.5 -131q134 0 242 57t159 154l35 -20
q-59 -105 -175 -166t-261 -61q-228 0 -377.5 150.5t-149.5 381.5q0 149 66 270.5t185 191.5t268 70zM143 524h944q-12 215 -143.5 349.5t-322.5 134.5q-132 0 -240 -61t-171.5 -172t-66.5 -251z" />
    <glyph glyph-name="uni0452" unicode="&#x452;" horiz-adv-x="1218" 
d="M676 1044q174 0 281.5 -108t107.5 -285v-835q0 -127 -72 -194t-213 -52v37q124 -13 184 42.5t60 166.5v835q0 155 -94 256t-256 101q-180 0 -294 -126t-114 -333v-549h-41v1219h-164v34h164v181h41v-181h369v-34h-369v-476q41 146 153 223.5t257 77.5z" />
    <glyph glyph-name="uni0453" unicode="&#x453;" horiz-adv-x="829" 
d="M598 1413l-170 -246h-37l164 246h43zM799 1024v-37h-574v-987h-41v1024h615z" />
    <glyph glyph-name="uni0454" unicode="&#x454;" horiz-adv-x="1165" 
d="M627 16q145 0 257 63t167 171l32 -21q-58 -115 -178.5 -182t-277.5 -67q-233 0 -379 151.5t-146 380.5t146 380.5t379 151.5q157 0 277.5 -67t178.5 -182l-32 -21q-53 108 -165 171t-259 63q-141 0 -251 -63.5t-169.5 -171.5t-63.5 -243h568v-36h-568q4 -135 63.5 -243
t169.5 -171.5t251 -63.5z" />
    <glyph glyph-name="uni0455" unicode="&#x455;" horiz-adv-x="952" 
d="M184 758q0 -64 36.5 -107t95.5 -65.5t130 -38.5t142 -34t130 -44t95.5 -77.5t36.5 -125.5q0 -121 -100 -203.5t-258 -82.5q-152 0 -247.5 56t-131.5 159l32 18q64 -197 347 -197q138 0 227.5 70.5t89.5 179.5q0 66 -36.5 111t-95.5 68t-130 39.5t-142 34t-130 43
t-95.5 75t-36.5 121.5q0 122 93.5 204t250.5 82q120 0 206 -52.5t122 -143.5l-33 -19q-33 83 -111 131t-184 48q-137 0 -220 -70t-83 -180z" />
    <glyph glyph-name="uni0456" unicode="&#x456;" horiz-adv-x="409" 
d="M205 1333q-20 0 -33.5 14t-13.5 33t13.5 33t33.5 14t33.5 -14t13.5 -33t-13.5 -33t-33.5 -14zM184 0v1024h41v-1024h-41z" />
    <glyph glyph-name="uni0457" unicode="&#x457;" horiz-adv-x="409" 
d="M41 1188q-17 0 -29 12t-12 29t12 29t29 12t29 -12t12 -29t-12 -29t-29 -12zM369 1188q-17 0 -29 12t-12 29t12 29t29 12t29 -12t12 -29t-12 -29t-29 -12zM184 0v1024h41v-1024h-41z" />
    <glyph glyph-name="uni0458" unicode="&#x458;" horiz-adv-x="428" 
d="M223 1427q20 0 33.5 -14t13.5 -33t-13.5 -33t-33.5 -14t-33.5 14t-13.5 33t13.5 33t33.5 14zM203 -184v1208h41v-1208q0 -127 -72 -194t-213 -52v37q124 -13 184 42.5t60 166.5z" />
    <glyph glyph-name="uni0459" unicode="&#x459;" horiz-adv-x="1699" 
d="M1307 569q132 0 221.5 -73.5t89.5 -208.5t-89.5 -211t-221.5 -76h-365v987h-598v-571q0 -125 -23.5 -211.5t-67 -131.5t-95.5 -62t-117 -11v37q134 -11 198 82t64 297v608h680v-455h324zM1307 37q120 0 195 67.5t75 182.5t-74.5 180t-195.5 65h-324v-495h324z" />
    <glyph glyph-name="uni045A" unicode="&#x45a;" horiz-adv-x="1658" 
d="M1266 569q132 0 221.5 -73.5t89.5 -208.5t-89.5 -211t-221.5 -76h-365v532h-696v-532h-41v1024h41v-455h696v455h41v-455h324zM1266 37q120 0 195 67.5t75 182.5t-74.5 180t-195.5 65h-324v-495h324z" />
    <glyph glyph-name="uni045B" unicode="&#x45b;" horiz-adv-x="1218" 
d="M676 1044q174 0 281.5 -108t107.5 -285v-651h-41v651q0 155 -94 256t-256 101q-180 0 -294 -126t-114 -333v-549h-41v1219h-164v34h164v181h41v-181h369v-34h-369v-476q41 146 153 223.5t257 77.5z" />
    <glyph glyph-name="uni045C" unicode="&#x45c;" horiz-adv-x="944" 
d="M639 1413l-170 -246h-37l164 246h43zM883 0h-58l-600 520v-520h-41v1024h41v-479l580 479h57l-594 -492z" />
    <glyph glyph-name="uni045E" unicode="&#x45e;" horiz-adv-x="1044" 
d="M795 1264v-33h-492v33h492zM963 1024h41l-449 -1118q-61 -152 -166.5 -239t-224.5 -77v37q107 -9 200.5 70.5t153.5 220.5l14 37l-491 1069h41l471 -1022z" />
    <glyph glyph-name="uni045F" unicode="&#x45f;" horiz-adv-x="1187" 
d="M963 1024h41v-1024h-390v-274h-41v274h-389v1024h41v-987h738v987z" />
    <glyph glyph-name="uni0490" unicode="&#x490;" horiz-adv-x="1024" 
d="M922 1679h41v-282h-717v-1397h-41v1434h717v245z" />
    <glyph glyph-name="uni0491" unicode="&#x491;" horiz-adv-x="829" 
d="M758 1237h41v-250h-574v-987h-41v1024h574v213z" />
    <glyph glyph-name="Wgrave" unicode="&#x1e80;" horiz-adv-x="2007" 
d="M915 1577l-163 246h-43l172 -246h34zM498 0l-416 1434h41l399 -1385l457 1385h49l457 -1385l399 1385h41l-416 -1434h-49l-456 1384l-457 -1384h-49z" />
    <glyph glyph-name="wgrave" unicode="&#x1e81;" horiz-adv-x="1576" 
d="M840 1167h-35l-172 246h43zM1452 1024h43l-336 -1024h-45l-326 969l-325 -969h-45l-336 1024h43l317 -965l322 965h49l322 -965z" />
    <glyph glyph-name="Wacute" unicode="&#x1e82;" horiz-adv-x="2007" 
d="M813 1577h37l170 246h-43zM498 0l-416 1434h41l399 -1385l457 1385h49l457 -1385l399 1385h41l-416 -1434h-49l-456 1384l-457 -1384h-49z" />
    <glyph glyph-name="wacute" unicode="&#x1e83;" horiz-adv-x="1576" 
d="M944 1413l-170 -246h-37l164 246h43zM1452 1024h43l-336 -1024h-45l-326 969l-325 -969h-45l-336 1024h43l317 -965l322 965h49l322 -965z" />
    <glyph glyph-name="Wdieresis" unicode="&#x1e84;" horiz-adv-x="2007" 
d="M700 1597q-17 0 -29 12t-12 29t12 29t29 12t29 -12t12 -29t-12 -29t-29 -12zM1028 1597q-17 0 -29 12t-12 29t12 29t29 12t29 -12t12 -29t-12 -29t-29 -12zM498 0l-416 1434h41l399 -1385l457 1385h49l457 -1385l399 1385h41l-416 -1434h-49l-456 1384l-457 -1384h-49z
" />
    <glyph glyph-name="wdieresis" unicode="&#x1e85;" horiz-adv-x="1576" 
d="M625 1188q-17 0 -29 12t-12 29t12 29t29 12t29 -12t12 -29t-12 -29t-29 -12zM952 1188q-17 0 -29 12t-12 29t12 29t29 12t29 -12t12 -29t-12 -29t-29 -12zM1452 1024h43l-336 -1024h-45l-326 969l-325 -969h-45l-336 1024h43l317 -965l322 965h49l322 -965z" />
    <glyph glyph-name="Ygrave" unicode="&#x1ef2;" horiz-adv-x="1146" 
d="M625 1577h-35l-172 246h43zM1126 1434l-532 -840v-594h-41v594l-533 840h46l507 -805l508 805h45z" />
    <glyph glyph-name="ygrave" unicode="&#x1ef3;" horiz-adv-x="1044" 
d="M600 1167h-35l-172 246h43zM963 1024h41l-449 -1118q-61 -152 -166.5 -239t-224.5 -77v37q107 -9 200.5 70.5t153.5 220.5l14 37l-491 1069h41l471 -1022z" />
    <glyph glyph-name="endash" unicode="&#x2013;" horiz-adv-x="1433" 
d="M205 614v37h1024v-37h-1024z" />
    <glyph glyph-name="emdash" unicode="&#x2014;" horiz-adv-x="1638" 
d="M205 614v37h1229v-37h-1229z" />
    <glyph glyph-name="quoteleft" unicode="&#x2018;" horiz-adv-x="389" 
d="M133 1075l86 359h37l-70 -359h-53z" />
    <glyph glyph-name="quoteright" unicode="&#x2019;" horiz-adv-x="389" 
d="M256 1434l-86 -359h-37l70 359h53z" />
    <glyph glyph-name="quotesinglbase" unicode="&#x201a;" horiz-adv-x="389" 
d="M256 72l-86 -359h-37l70 359h53z" />
    <glyph glyph-name="quotedblleft" unicode="&#x201c;" horiz-adv-x="593" 
d="M133 1075l86 359h37l-70 -359h-53zM338 1075l86 359h37l-70 -359h-53z" />
    <glyph glyph-name="quotedblright" unicode="&#x201d;" horiz-adv-x="593" 
d="M256 1434l-86 -359h-37l70 359h53zM461 1434l-86 -359h-37l70 359h53z" />
    <glyph glyph-name="quotedblbase" unicode="&#x201e;" horiz-adv-x="593" 
d="M256 72l-86 -359h-37l70 359h53zM461 72l-86 -359h-37l70 359h53z" />
    <glyph glyph-name="dagger" unicode="&#x2020;" horiz-adv-x="942" 
d="M799 1049v-37h-307v-1012h-41v1012h-308v37h308v385h41v-385h307z" />
    <glyph glyph-name="daggerdbl" unicode="&#x2021;" horiz-adv-x="942" 
d="M799 1012h-307v-590h307v-37h-307v-385h-41v385h-308v37h308v590h-308v37h308v385h41v-385h307v-37z" />
    <glyph glyph-name="bullet" unicode="&#x2022;" horiz-adv-x="491" 
d="M248 594q-52 0 -88.5 36t-36.5 89q0 51 36 86t89 35q51 0 86 -35t35 -86q0 -53 -35 -89t-86 -36z" />
    <glyph glyph-name="ellipsis" unicode="&#x2026;" horiz-adv-x="1146" 
d="M184 -20q-22 0 -36.5 14.5t-14.5 36.5t14.5 36.5t36.5 14.5t37 -14.5t15 -36.5t-15 -36.5t-37 -14.5zM573 -20q-22 0 -36.5 14.5t-14.5 36.5t14.5 36.5t36.5 14.5t37 -14.5t15 -36.5t-15 -36.5t-37 -14.5zM963 -20q-22 0 -37 14.5t-15 36.5t15 36.5t37 14.5t36.5 -14.5
t14.5 -36.5t-14.5 -36.5t-36.5 -14.5z" />
    <glyph glyph-name="perthousand" unicode="&#x2030;" horiz-adv-x="2250" 
d="M457 848q-134 0 -224 87.5t-90 215.5t90 215.5t224 87.5t223.5 -87.5t89.5 -215.5q0 -129 -88 -216t-225 -87zM457 885q118 0 195 75t77 191q0 114 -77.5 190t-194.5 76t-195 -76t-78 -190t78 -190t195 -76zM233 164l994 1124l33 -18l-996 -1125zM1036 -20
q-134 0 -223.5 87.5t-89.5 215.5t89.5 215.5t223.5 87.5t224 -87.5t90 -215.5t-90 -215.5t-224 -87.5zM1794 -20q-134 0 -223.5 87.5t-89.5 215.5t89.5 215.5t223.5 87.5t223.5 -87.5t89.5 -215.5t-89.5 -215.5t-223.5 -87.5zM1036 16q117 0 195 76.5t78 190.5t-78 190
t-195 76t-194.5 -76t-77.5 -190t77.5 -190.5t194.5 -76.5zM1794 16q117 0 194.5 76.5t77.5 190.5t-77.5 190t-194.5 76t-194.5 -76t-77.5 -190t77.5 -190.5t194.5 -76.5z" />
    <glyph glyph-name="guilsinglleft" unicode="&#x2039;" horiz-adv-x="659" 
d="M455 961l-205 -328l205 -328h-45l-205 328l205 328h45z" />
    <glyph glyph-name="guilsinglright" unicode="&#x203a;" horiz-adv-x="659" 
d="M250 961l205 -328l-205 -328h-45l205 328l-205 328h45z" />
    <glyph glyph-name="fraction" unicode="&#x2044;" horiz-adv-x="491" 
d="M-164 0h-41l860 1434h41z" />
    <glyph glyph-name="Euro" unicode="&#x20ac;" horiz-adv-x="1267" 
d="M778 16q131 0 228.5 66.5t146.5 189.5l33 -16q-51 -131 -157.5 -203.5t-250.5 -72.5q-214 0 -351.5 155t-170.5 422h-195v37h191q-6 58 -6 123t6 123h-191v37h195q33 267 170.5 422t351.5 155q144 0 250.5 -72t157.5 -202l-35 -19q-47 123 -144.5 189.5t-228.5 66.5
q-193 0 -321 -143t-160 -397h604v-37h-608q-6 -58 -6 -123t6 -123h608v-37h-604q32 -254 160 -397.5t321 -143.5z" />
    <glyph glyph-name="uni20BD" unicode="&#x20bd;" horiz-adv-x="1126" 
d="M635 614h-410v-249h574v-37h-574v-328h-41v328h-184v37h184v249h-184v37h184v783h451q169 0 289 -120.5t120 -289.5t-120 -289.5t-289 -120.5zM225 1397v-746h410q152 0 260.5 109.5t108.5 263.5t-108.5 263.5t-260.5 109.5h-410z" />
    <glyph glyph-name="uni2116" unicode="&#x2116;" horiz-adv-x="2101" 
d="M1706 881q-125 0 -209 83t-84 203t84 203.5t209 83.5t209 -83.5t84 -203.5t-83 -203t-210 -83zM1188 1434h41v-1434h-41l-942 1364v-1364h-41v1434h41l942 -1364v1364zM1706 918q108 0 180 71t72 178q0 106 -73 178t-179 72t-179 -72t-73 -178q0 -105 73 -177t179 -72z
M1434 643v37h544v-37h-544z" />
    <glyph glyph-name="trademark" unicode="&#x2122;" horiz-adv-x="1034" 
d="M434 1434v-39h-127v-371h-41v371h-123v39h291zM850 1434h41v-410h-41v338l-150 -244h-8l-149 244v-338h-41v410h41l153 -250z" />
    <glyph glyph-name="estimated" unicode="&#x212e;" horiz-adv-x="1761" 
d="M881 1454q166 0 308.5 -58t240.5 -157.5t153 -234.5t55 -287q0 -31 -30 -31h-1147q-31 0 -31 -31v-393q0 -22 14 -39q173 -182 478 -182q296 0 473 199q15 18 37 18h75q20 0 26 -12t-7 -27q-106 -113 -260 -176t-344 -63q-181 0 -332.5 58t-253 157.5t-157.5 234
t-56 287.5q0 152 55.5 287t153 234.5t240.5 157.5t309 58zM1331 1171q0 22 -14 39q-174 183 -436 183q-263 0 -437 -183q-14 -17 -14 -39v-393q0 -30 31 -30h839q31 0 31 30v393z" />
    <glyph glyph-name="oneeighth" unicode="&#x215b;" horiz-adv-x="1720" 
d="M297 614v766l-244 -90l-12 37l276 107h21v-820h-41zM1157 1434h41l-860 -1434h-41zM1468 430q77 -25 123.5 -84t46.5 -139q0 -105 -78 -168.5t-202 -63.5q-126 0 -204.5 63.5t-78.5 168.5q0 80 47 139t125 84q-65 24 -105 74t-40 117q0 103 73.5 163t182.5 60
q108 0 181 -60t73 -163q0 -67 -40 -117t-104 -74zM1143 621q0 -79 64 -127t151 -48q86 0 149.5 48.5t63.5 126.5q0 87 -61 136.5t-152 49.5q-92 0 -153.5 -49.5t-61.5 -136.5zM1358 12q106 0 172.5 53t66.5 142q0 92 -68 147.5t-171 55.5q-105 0 -173.5 -55.5t-68.5 -147.5
q0 -89 67.5 -142t174.5 -53z" />
    <glyph glyph-name="threeeighths" unicode="&#x215c;" horiz-adv-x="1921" 
d="M610 844q0 -108 -72.5 -181t-201.5 -73q-103 0 -169.5 41t-94.5 110l32 19q54 -133 232 -133q114 0 173.5 62t59.5 155t-59.5 155t-173.5 62h-6l-19 26l226 310h-445v37h488v-37l-218 -299q117 -9 182.5 -80t65.5 -174zM1358 1434h41l-860 -1434h-41zM1669 430
q77 -25 123.5 -84t46.5 -139q0 -105 -78 -168.5t-202 -63.5q-126 0 -204.5 63.5t-78.5 168.5q0 80 47 139t125 84q-65 24 -105 74t-40 117q0 103 73.5 163t182.5 60q107 0 180 -60t73 -163q0 -67 -39.5 -117t-103.5 -74zM1343 621q0 -79 64 -127t152 -48q86 0 149.5 48.5
t63.5 126.5q0 87 -61 136.5t-152 49.5q-92 0 -154 -49.5t-62 -136.5zM1559 12q106 0 172.5 53t66.5 142q0 92 -68 147.5t-171 55.5q-105 0 -173.5 -55.5t-68.5 -147.5q0 -89 67.5 -142t174.5 -53z" />
    <glyph glyph-name="fiveeighths" unicode="&#x215d;" horiz-adv-x="1906" 
d="M604 844q0 -111 -75 -182.5t-197 -71.5q-96 0 -162 38.5t-98 106.5l32 19q56 -127 228 -127q104 0 167.5 58.5t63.5 158.5t-63.5 158.5t-167.5 58.5h-226l31 373h434v-37h-397l-27 -299h185q122 0 197 -71.5t75 -182.5zM1343 1434h41l-860 -1434h-41zM1655 430
q77 -25 123.5 -84t46.5 -139q0 -105 -78.5 -168.5t-202.5 -63.5q-125 0 -203.5 63.5t-78.5 168.5q0 80 47 139t125 84q-66 24 -106 74t-40 117q0 103 73.5 163t182.5 60q108 0 181 -60t73 -163q0 -67 -39.5 -117t-103.5 -74zM1329 621q0 -79 64 -127t151 -48
q86 0 149.5 48.5t63.5 126.5q0 87 -61 136.5t-152 49.5q-92 0 -153.5 -49.5t-61.5 -136.5zM1544 12q106 0 173 53t67 142q0 92 -68 147.5t-172 55.5q-105 0 -173 -55.5t-68 -147.5q0 -90 67 -142.5t174 -52.5z" />
    <glyph glyph-name="seveneighths" unicode="&#x215e;" horiz-adv-x="1906" 
d="M606 1434v-33l-344 -787h-45l342 783h-498v37h545zM1343 1434h41l-860 -1434h-41zM1655 430q77 -25 123.5 -84t46.5 -139q0 -105 -78.5 -168.5t-202.5 -63.5q-125 0 -203.5 63.5t-78.5 168.5q0 80 47 139t125 84q-66 24 -106 74t-40 117q0 103 73.5 163t182.5 60
q108 0 181 -60t73 -163q0 -67 -39.5 -117t-103.5 -74zM1329 621q0 -79 64 -127t151 -48q86 0 149.5 48.5t63.5 126.5q0 87 -61 136.5t-152 49.5q-92 0 -153.5 -49.5t-61.5 -136.5zM1544 12q106 0 173 53t67 142q0 92 -68 147.5t-172 55.5q-105 0 -173 -55.5t-68 -147.5
q0 -90 67 -142.5t174 -52.5z" />
    <glyph glyph-name="arrowleft" unicode="&#x2190;" horiz-adv-x="1720" 
d="M1577 735v-37h-1360l596 -596h-55l-615 615l615 614h55l-596 -596h1360z" />
    <glyph glyph-name="arrowup" unicode="&#x2191;" horiz-adv-x="1515" 
d="M1372 819v-55l-594 594v-1358h-41v1358l-594 -594v55l615 615z" />
    <glyph glyph-name="arrowright" unicode="&#x2192;" horiz-adv-x="1720" 
d="M963 1331l614 -614l-614 -615h-56l596 596h-1360v37h1360l-596 596h56z" />
    <glyph glyph-name="arrowdown" unicode="&#x2193;" horiz-adv-x="1515" 
d="M778 76l594 594v-56l-614 -614l-615 614v56l594 -594v1358h41v-1358z" />
    <glyph glyph-name="arrowboth" unicode="&#x2194;" horiz-adv-x="2088" 
d="M1454 1208l492 -491l-492 -492h-55l473 473h-1655l473 -473h-55l-492 492l492 491h55l-473 -473h1655l-473 473h55z" />
    <glyph glyph-name="arrowupdn" unicode="&#x2195;" horiz-adv-x="1310" 
d="M1147 1071l-471 471v-1651l471 471v-55l-492 -491l-491 491v55l471 -471v1651l-471 -471v55l491 492l492 -492v-55z" />
    <glyph glyph-name="uni2196" unicode="&#x2196;" horiz-adv-x="1314" 
d="M1171 205l-30 -31l-959 961v-840l-39 39v868h869l39 -39h-840z" />
    <glyph glyph-name="uni2197" unicode="&#x2197;" horiz-adv-x="1314" 
d="M303 1202h868v-868l-38 -39v840l-959 -961l-31 31l961 958h-840z" />
    <glyph glyph-name="uni2198" unicode="&#x2198;" horiz-adv-x="1314" 
d="M1133 1090l38 -39v-869h-868l-39 39h840l-961 959l31 30l959 -960v840z" />
    <glyph glyph-name="uni2199" unicode="&#x2199;" horiz-adv-x="1314" 
d="M1171 1180l-960 -959h840l-39 -39h-869v869l39 39v-840l959 960z" />
    <glyph glyph-name="partialdiff" unicode="&#x2202;" horiz-adv-x="1187" 
d="M483 1454q117 0 219.5 -52t178.5 -146t119.5 -233.5t43.5 -305.5q0 -176 -38.5 -316.5t-107 -232t-161 -140t-202.5 -48.5q-187 0 -299.5 122t-112.5 308q0 210 123.5 340.5t333.5 130.5q235 0 424 -123q-6 189 -72 338.5t-183 235t-266 85.5q-142 0 -245 -67v43
q105 61 245 61zM535 16q213 0 339.5 186.5t129.5 506.5q-192 135 -424 135q-189 0 -302.5 -118t-113.5 -316q0 -175 103.5 -284.5t267.5 -109.5z" />
    <glyph glyph-name="emptyset" unicode="&#x2205;" horiz-adv-x="1728" 
d="M1352 1274q119 -103 186.5 -248t67.5 -309q0 -202 -99.5 -371.5t-270 -267.5t-372.5 -98q-258 0 -456 155l-148 -176h-49l166 201q-119 103 -186.5 248t-67.5 309q0 151 58.5 287.5t158 235t236.5 156.5t288 58q258 0 457 -156l147 177h50zM164 717q0 -155 63 -292.5
t174 -234.5l895 1078q-189 149 -432 149q-143 0 -272.5 -55t-223 -148.5t-149 -223.5t-55.5 -273zM864 16q191 0 352 93.5t255 255t94 352.5q0 155 -63.5 292t-174.5 234l-895 -1077q190 -150 432 -150z" />
    <glyph glyph-name="product" unicode="&#x220f;" horiz-adv-x="1310" 
d="M205 -410v1844h901v-1844h-41v1807h-819v-1807h-41z" />
    <glyph glyph-name="summation" unicode="&#x2211;" horiz-adv-x="1110" 
d="M143 -410v35l572 907l-545 867v35h827v-37h-782l545 -865l-572 -905h840v-37h-885z" />
    <glyph glyph-name="minus" unicode="&#x2212;" horiz-adv-x="1105" 
d="M143 698v37h820v-37h-820z" />
    <glyph glyph-name="radical" unicode="&#x221a;" horiz-adv-x="1288" 
d="M643 0l-344 578h-156v36h176l343 -573l524 1597h41l-539 -1638h-45z" />
    <glyph glyph-name="infinity" unicode="&#x221e;" horiz-adv-x="1677" 
d="M1235 1024q129 0 214 -85t85 -222t-85 -222t-214 -85q-40 0 -78.5 10t-68 22.5t-63 39.5t-53 44t-50 53.5t-42.5 51.5t-40 53q-31 -41 -48 -62t-50.5 -59.5t-62 -60.5t-67 -46t-81.5 -35t-89 -11q-130 0 -214.5 85t-84.5 222t84.5 222t214.5 85q46 0 89 -11t81.5 -35
t67 -46t62 -60.5t50.5 -59.5t48 -62q28 38 40 53t42.5 51.5t50 53.5t53 44t63 39.5t68 22.5t78.5 10zM442 446q37 0 72.5 10t62.5 22t58.5 38t50.5 43.5t48 53t41 51t40 53.5q-38 51 -57 75.5t-60.5 69t-74.5 66.5t-81.5 40.5t-99.5 18.5q-115 0 -186.5 -75t-71.5 -195
t71.5 -195.5t186.5 -75.5zM1235 446q115 0 186.5 75.5t71.5 195.5t-71.5 195t-186.5 75q-36 0 -71.5 -9.5t-62.5 -22t-58 -38t-50 -43t-48 -52.5t-41.5 -51.5t-39.5 -53.5q28 -38 40 -53.5t41 -51t47.5 -53t50 -43.5t58.5 -38t62.5 -22t71.5 -10z" />
    <glyph glyph-name="integral" unicode="&#x222b;" horiz-adv-x="882" 
d="M0 -418v41q105 -46 184.5 8t104.5 189l239 1392q26 148 122.5 210t232.5 18v-39q-122 44 -205.5 -8.5t-108.5 -188.5l-239 -1392q-26 -144 -118.5 -208.5t-211.5 -21.5z" />
    <glyph glyph-name="approxequal" unicode="&#x2248;" horiz-adv-x="1171" 
d="M575 864q-81 57 -149 74.5t-109 5t-72 -46t-44 -64.5t-21 -63l-37 16q5 21 14.5 44.5t28 53t42.5 53t61 38.5t80 15t102 -23t125 -70q59 -42 110.5 -63t89 -22.5t69 10.5t52.5 31.5t37 46t24 48t13 43.5l37 -16q-5 -21 -14 -44t-28 -53t-42.5 -53t-60.5 -38t-80 -15
t-102 22.5t-126 69.5zM180 442l-37 17q5 21 14.5 44.5t28 53t42.5 52.5t61 38t80 15t102 -23t125 -70q81 -58 148.5 -75.5t108.5 -4.5t72 47t44.5 65t21.5 63l37 -17q-5 -21 -14 -44t-28 -53t-42.5 -52.5t-60.5 -37.5t-80 -15t-102 22.5t-126 69.5q-81 57 -149 74.5
t-109 4.5t-72 -46.5t-44 -64.5t-21 -63z" />
    <glyph glyph-name="notequal" unicode="&#x2260;" horiz-adv-x="1085" 
d="M942 903h-280l-175 -373h455v-36h-471l-160 -340h-41l160 340h-287v36h303l175 373h-478v37h494l160 340h41l-160 -340h264v-37z" />
    <glyph glyph-name="lessequal" unicode="&#x2264;" horiz-adv-x="1105" 
d="M963 1188v-41l-775 -311l775 -312v-41l-820 334v37zM143 246v37h820v-37h-820z" />
    <glyph glyph-name="greaterequal" unicode="&#x2265;" horiz-adv-x="1105" 
d="M143 1188l820 -334v-37l-820 -334v41l775 312l-775 311v41zM143 246v37h820v-37h-820z" />
    <glyph glyph-name="lozenge" unicode="&#x25ca;" horiz-adv-x="1093" 
d="M526 0l-383 717l383 717h41l383 -717l-383 -717h-41zM547 47l358 670l-358 669l-359 -669z" />
    <glyph glyph-name="i.loclTRK" horiz-adv-x="409" 
d="M205 1188q-26 0 -44 17.5t-18 43.5t18 44t44 18t43.5 -18t17.5 -44t-17.5 -43.5t-43.5 -17.5zM184 0v1024h41v-1024h-41z" />
    <glyph glyph-name="f_f_j" horiz-adv-x="1572" 
d="M1389 1024v-1208q0 -127 -72 -194t-213 -52v37q124 -13 184 42.5t60 166.5v1171h-510v-987h-41v987h-510v-987h-41v987h-185v37h185v82q0 176 91 269.5t275 78.5v-37q-167 13 -246 -69t-79 -242v-82h510v102q0 349 366 349q102 0 205 -21v-37q-103 21 -205 21
q-170 0 -247.5 -77.5t-77.5 -234.5v-102h551z" />
    <glyph glyph-name="f_j" horiz-adv-x="1021" 
d="M838 1024v-1208q0 -127 -72 -194t-213 -52v37q124 -13 184 42.5t60 166.5v1171h-510v-987h-41v987h-185v37h185v82q0 348 366 348q107 0 205 -20v-37q-98 20 -205 20q-170 0 -247.5 -77t-77.5 -234v-82h551z" />
    <glyph glyph-name="uni0414.loclBGR" horiz-adv-x="1454" 
d="M1264 37h129v-311h-41v274h-1250v-274h-41v311h129l512 1397h50zM233 37h988l-494 1354z" />
    <glyph glyph-name="uni041B.loclBGR" horiz-adv-x="1224" 
d="M588 1434h49l547 -1434h-43l-529 1389l-528 -1389h-43z" />
    <glyph glyph-name="uni0424.loclBGR" horiz-adv-x="1769" 
d="M1647 717q0 -218 -96.5 -385t-264 -257.5t-381.5 -94.5v-185h-41v185q-214 4 -381.5 94.5t-263.5 257.5t-96 385t96 385t263.5 257.5t381.5 94.5v184h41v-184q214 -4 381.5 -94.5t264 -257.5t96.5 -385zM164 717q0 -200 82.5 -356.5t242.5 -248.5t375 -96v1401
q-161 -3 -293.5 -56.5t-221 -146.5t-137 -220.5t-48.5 -276.5zM905 16q215 4 375 96t243 248.5t83 356.5t-83 356.5t-243 248t-375 95.5v-1401z" />
    <glyph glyph-name="uni0414.ss01" horiz-adv-x="1413" 
d="M1178 37h143v-37h-1270v37h109q67 68 112 197.5t45 322.5v877h861v-1397zM358 557q0 -348 -145 -520h924v1360h-779v-840z" />
    <glyph glyph-name="uni0426.ss01" horiz-adv-x="1413" 
d="M1188 37h143v-37h-1126v1434h41v-1397h901v1397h41v-1397z" />
    <glyph glyph-name="uni0429.ss01" horiz-adv-x="2007" 
d="M1782 37h143v-37h-1720v1434h41v-1397h727v1397h41v-1397h727v1397h41v-1397z" />
    <glyph glyph-name="uni0414.loclBGR.ss01" horiz-adv-x="1454" 
d="M1264 37h129v-37h-1332v37h129l512 1397h50zM233 37h988l-494 1354z" />
    <glyph glyph-name="uni0432.loclBGR" horiz-adv-x="1187" 
d="M745 827q165 -21 252.5 -132t87.5 -285q0 -203 -119 -316.5t-331 -113.5t-331.5 129.5t-119.5 361.5v502q0 229 110 355t310 126q157 0 247.5 -91t90.5 -218q0 -88 -50.5 -173.5t-146.5 -144.5zM604 1417q-181 0 -280 -116t-99 -328v-209l285 53q90 17 174 14
q105 60 161 144t56 170q0 110 -79 191t-218 81zM635 16q193 0 301 104t108 290q0 214 -134.5 316.5t-399.5 53.5l-285 -53v-256q0 -215 108 -335t302 -120z" />
    <glyph glyph-name="uni0433.loclBGR" horiz-adv-x="952" 
d="M817 223l33 -18q-37 -105 -132.5 -165t-246.5 -60q-159 0 -258.5 78t-99.5 198q0 76 36 129t94 80.5t127.5 46.5t139.5 36t128 40.5t94 68.5t36 111q0 108 -79.5 174t-203.5 66q-119 0 -200 -51.5t-115 -137.5l-33 19q37 93 126.5 149.5t221.5 56.5q145 0 234.5 -78
t89.5 -198q0 -66 -28 -113.5t-74 -73.5t-105 -47t-120.5 -33t-120.5 -31.5t-105 -42.5t-74 -67t-28 -104q0 -108 89 -174t228 -66q138 0 226 54.5t120 152.5z" />
    <glyph glyph-name="uni0434.loclBGR" horiz-adv-x="1376" 
d="M1151 1024h41v-961q0 -227 -133.5 -360t-370.5 -133q-177 0 -302.5 69t-174.5 173l33 18q45 -95 161 -159t283 -64q219 0 341 122.5t122 333.5v259q-56 -154 -190 -248t-304 -94q-110 0 -208.5 41t-170 111.5t-113.5 169.5t-42 210t42 210t113.5 169.5t170 111.5
t208.5 41q170 0 304 -94t190 -248v322zM657 16q207 0 350.5 143.5t143.5 352.5t-143.5 352.5t-350.5 143.5t-350 -143.5t-143 -352.5t143 -352.5t350 -143.5z" />
    <glyph glyph-name="uni0436.loclBGR" horiz-adv-x="1314" 
d="M1253 0h-53l-522 518v-518h-41v518l-522 -518h-54l535 532l-514 492h53l502 -477v887h41v-887l502 477h53l-514 -492z" />
    <glyph glyph-name="uni0438.loclBGR" horiz-adv-x="1177" 
d="M952 1024h41v-1024h-41v281q-41 -146 -152.5 -223.5t-256.5 -77.5q-174 0 -281.5 108t-107.5 285v651h41v-651q0 -155 94 -256t256 -101q180 0 293.5 126t113.5 333v549z" />
    <glyph glyph-name="uni0439.loclBGR" horiz-adv-x="1177" 
d="M819 1264v-33h-491v33h491zM952 1024h41v-1024h-41v281q-41 -146 -152.5 -223.5t-256.5 -77.5q-174 0 -281.5 108t-107.5 285v651h41v-651q0 -155 94 -256t256 -101q180 0 293.5 126t113.5 333v549z" />
    <glyph glyph-name="uni043A.loclBGR" horiz-adv-x="944" 
d="M883 0h-58l-600 520v-520h-41v1434h41v-889l580 479h57l-594 -492z" />
    <glyph glyph-name="uni043B.loclBGR" horiz-adv-x="1048" 
d="M1008 0h-43l-441 979l-440 -979h-43l461 1024h45z" />
    <glyph glyph-name="uni043F.loclBGR" horiz-adv-x="1177" 
d="M635 1044q174 0 281.5 -108t107.5 -285v-651h-41v651q0 155 -94 256t-256 101q-180 0 -294 -126t-114 -333v-549h-41v1024h41v-281q41 146 153 223.5t257 77.5z" />
    <glyph glyph-name="uni0442.loclBGR" horiz-adv-x="1792" 
d="M1284 1044q159 0 256.5 -95t97.5 -279v-670h-41v670q0 162 -85 250t-228 88q-156 0 -254 -113.5t-98 -316.5v-578h-41v670q0 162 -83 250t-222 88q-160 0 -260.5 -113t-100.5 -317v-578h-41v1024h41v-248q39 135 136.5 201.5t224.5 66.5q130 0 221.5 -70.5t116.5 -207.5
q26 94 84 158t127.5 92t148.5 28z" />
    <glyph glyph-name="uni0446.loclBGR" horiz-adv-x="1218" 
d="M1096 37h41v-311h-41v274q-68 0 -106 38t-38 105v138q-41 -146 -152.5 -223.5t-256.5 -77.5q-174 0 -281.5 108t-107.5 285v651h41v-651q0 -155 94 -256t256 -101q180 0 293.5 126t113.5 333v549h41v-881q0 -50 27.5 -78t75.5 -28z" />
    <glyph glyph-name="uni0448.loclBGR" horiz-adv-x="1792" 
d="M1567 1024h41v-1024h-41v248q-39 -135 -136.5 -201.5t-224.5 -66.5q-130 0 -221.5 70.5t-116.5 207.5q-26 -94 -84 -158t-127.5 -92t-148.5 -28q-159 0 -256.5 95t-97.5 279v670h41v-670q0 -162 85 -250t228 -88q156 0 254 113.5t98 316.5v578h41v-670q0 -162 83 -250
t222 -88q160 0 260.5 113t100.5 317v578z" />
    <glyph glyph-name="uni0449.loclBGR" horiz-adv-x="1832" 
d="M1710 37h41v-311h-41v274q-68 0 -105.5 38t-37.5 105v105q-39 -135 -136.5 -201.5t-224.5 -66.5q-130 0 -221.5 70.5t-116.5 207.5q-26 -94 -84 -158t-127.5 -92t-148.5 -28q-159 0 -256.5 95t-97.5 279v670h41v-670q0 -162 85 -250t228 -88q156 0 254 113.5t98 316.5
v578h41v-670q0 -162 83 -250t222 -88q160 0 260.5 113t100.5 317v578h41v-881q0 -51 27 -78.5t75 -27.5z" />
    <glyph glyph-name="uni044C.loclBGR" horiz-adv-x="993" 
d="M532 655q170 0 274.5 -89.5t104.5 -237.5q0 -150 -105.5 -249t-273.5 -99q-186 0 -282 95t-96 253v696h41v-369h337zM532 16q150 0 244 89.5t94 222.5q0 131 -93 210.5t-245 79.5h-337v-290q0 -140 86 -226t251 -86z" />
    <glyph glyph-name="uni044A.loclBGR" 
d="M707 655q170 0 274 -89.5t104 -237.5q0 -150 -105 -249t-273 -99q-186 0 -282.5 95t-96.5 253v659h-328v37h369v-369h338zM707 16q150 0 243.5 89.5t93.5 222.5q0 131 -92.5 210.5t-244.5 79.5h-338v-290q0 -140 86.5 -226t251.5 -86z" />
    <glyph glyph-name="uni044E.loclBGR" horiz-adv-x="1658" 
d="M1022 1044q110 0 208.5 -41t170 -111.5t113.5 -169.5t42 -210t-42 -210t-113.5 -169.5t-170 -111.5t-208.5 -41q-144 0 -264.5 67t-193 185t-77.5 262h-262v-494h-41v1434h41v-904h262q5 144 77.5 262t193 185t264.5 67zM1022 16q207 0 350.5 143.5t143.5 352.5
t-143.5 352.5t-350.5 143.5t-350.5 -143.5t-143.5 -352.5t143.5 -352.5t350.5 -143.5z" />
    <glyph glyph-name="zero.sinf" horiz-adv-x="839" 
d="M420 -352q-154 0 -246 119.5t-92 314.5t92 314.5t246 119.5t246 -119.5t92 -314.5t-92 -314.5t-246 -119.5zM420 -315q137 0 217 107.5t80 289.5t-80 289.5t-217 107.5t-217 -107.5t-80 -289.5t80 -289.5t217 -107.5z" />
    <glyph glyph-name="one.sinf" horiz-adv-x="481" 
d="M317 492h21v-820h-41v766l-244 -90l-12 37z" />
    <glyph glyph-name="two.sinf" horiz-adv-x="708" 
d="M82 -328v31l385 369q102 94 102 207q0 82 -58.5 141t-160.5 59q-85 0 -144.5 -42.5t-80.5 -110.5l-35 18q24 76 93 124t169 48q119 0 188.5 -68t69.5 -169q0 -123 -112 -232l-355 -338h484v-37h-545z" />
    <glyph glyph-name="three.sinf" horiz-adv-x="692" 
d="M362 156q117 -9 182.5 -80t65.5 -174q0 -108 -72.5 -181t-201.5 -73q-103 0 -169.5 41t-94.5 110l32 19q54 -133 232 -133q114 0 173.5 62t59.5 155t-59.5 155t-173.5 62h-6l-19 26l226 310h-445v37h488v-37z" />
    <glyph glyph-name="four.sinf" horiz-adv-x="735" 
d="M674 -106v-37h-127v-185h-41v185h-465v37l315 598h41l-313 -598h422v247h41v-247h127z" />
    <glyph glyph-name="five.sinf" horiz-adv-x="655" 
d="M332 156q122 0 197 -71.5t75 -182.5t-75 -182.5t-197 -71.5q-96 0 -162 38.5t-98 106.5l32 19q56 -127 228 -127q104 0 167.5 58.5t63.5 158.5t-63.5 158.5t-167.5 58.5h-226l31 373h434v-37h-397l-27 -299h185z" />
    <glyph glyph-name="six.sinf" horiz-adv-x="686" 
d="M342 178q120 0 201.5 -74t81.5 -190q0 -117 -81.5 -191.5t-201.5 -74.5q-119 0 -200 74.5t-81 191.5q0 74 37 137l287 441h45l-223 -345q60 31 135 31zM342 -315q103 0 172.5 63.5t69.5 165.5q0 101 -69.5 164t-172.5 63q-102 0 -171 -63t-69 -164q0 -102 69 -165.5
t171 -63.5z" />
    <glyph glyph-name="seven.sinf" horiz-adv-x="688" 
d="M61 492h545v-33l-344 -787h-45l342 783h-498v37z" />
    <glyph glyph-name="eight.sinf" horiz-adv-x="727" 
d="M475 102q77 -25 123.5 -84t46.5 -139q0 -105 -78 -168t-202 -63q-126 0 -204.5 63t-78.5 168q0 80 47 139t125 84q-65 24 -105 74t-40 117q0 103 73.5 163t182.5 60q107 0 180 -60t73 -163q0 -67 -39.5 -117t-103.5 -74zM150 293q0 -79 63.5 -126.5t151.5 -47.5
q86 0 149.5 48t63.5 126q0 87 -61 136.5t-152 49.5q-92 0 -153.5 -49.5t-61.5 -136.5zM365 -315q106 0 172.5 52.5t66.5 141.5q0 92 -68 147.5t-171 55.5q-105 0 -173.5 -55.5t-68.5 -147.5q0 -89 67 -141.5t175 -52.5z" />
    <glyph glyph-name="nine.sinf" horiz-adv-x="686" 
d="M625 250q0 -74 -37 -137l-287 -441h-45l223 344q-59 -30 -135 -30q-120 0 -201.5 74t-81.5 190q0 117 81.5 191.5t201.5 74.5q119 0 200 -74.5t81 -191.5zM102 250q0 -101 69.5 -164t172.5 -63q102 0 171 63t69 164q0 102 -69 165.5t-171 63.5q-103 0 -172.5 -63.5
t-69.5 -165.5z" />
    <glyph glyph-name="zero.tf" 
d="M584 -20q-163 0 -281.5 92t-180 258t-61.5 387t61.5 387t180 258t281.5 92q244 0 383 -200.5t139 -536.5t-139 -536.5t-383 -200.5zM584 16q222 0 351.5 187.5t129.5 513.5t-129.5 513t-351.5 187t-352 -187t-130 -513t130 -513.5t352 -187.5z" />
    <glyph glyph-name="one.tf" 
d="M655 41h461v-41h-1024v41h522v1350l-350 -119l-10 35l371 127h30v-1393z" />
    <glyph glyph-name="two.tf" 
d="M123 0v37l606 541q128 116 201.5 224t73.5 222q0 177 -112 285t-308 108q-143 0 -249.5 -70.5t-150.5 -185.5l-34 21q49 124 168 198t266 74q204 0 332 -116t128 -314q0 -122 -77.5 -238t-210.5 -235l-580 -514h909v-37h-962z" />
    <glyph glyph-name="three.tf" 
d="M594 840q214 -8 344.5 -125.5t130.5 -304.5q0 -193 -138.5 -311.5t-363.5 -118.5q-166 0 -288.5 66.5t-176.5 184.5l35 21q47 -108 158 -172t272 -64q216 0 338.5 111t122.5 283t-122.5 282.5t-338.5 110.5h-12l-16 24l403 570h-815v37h860v-37z" />
    <glyph glyph-name="four.tf" 
d="M1085 365v-37h-184v-328h-41v328h-799v37l566 1069h45l-566 -1069h754v475h41v-475h184z" />
    <glyph glyph-name="five.tf" 
d="M584 840q218 0 354.5 -118.5t136.5 -311.5t-136.5 -311.5t-354.5 -118.5q-163 0 -283.5 68.5t-173.5 189.5l33 18q47 -110 157.5 -175t266.5 -65q209 0 329.5 111.5t120.5 282.5t-120.5 282t-329.5 111h-402l43 631h789v-37h-754l-37 -557h361z" />
    <glyph glyph-name="six.tf" 
d="M584 922q224 0 362.5 -130.5t138.5 -340.5t-138.5 -340.5t-362.5 -130.5t-363 130.5t-139 340.5q0 169 96 292l514 691h45l-430 -580q123 68 277 68zM584 16q144 0 250 59t158 156t52 220q0 91 -30.5 170t-87.5 138t-145 92.5t-197 33.5q-216 0 -338.5 -123t-122.5 -311
q0 -91 30.5 -170t88 -138t145.5 -93t197 -34z" />
    <glyph glyph-name="seven.tf" 
d="M82 1434h962v-37l-649 -1397h-41l650 1397h-922v37z" />
    <glyph glyph-name="eight.tf" 
d="M745 741q156 -34 243 -131t87 -241q0 -179 -132 -284t-359 -105t-359.5 105t-132.5 284q0 144 87 241t243 131q-133 35 -209 127t-76 219q0 163 123.5 265t323.5 102t323 -102t123 -265q0 -127 -76 -219t-209 -127zM178 1087q0 -142 107 -235.5t299 -93.5t298.5 93.5
t106.5 235.5t-106.5 236t-298.5 94t-299 -94t-107 -236zM584 16q218 0 334 98t116 255t-116 254.5t-334 97.5t-334.5 -97.5t-116.5 -254.5t116.5 -255t334.5 -98z" />
    <glyph glyph-name="nine.tf" 
d="M1085 983q0 -170 -96 -293l-514 -690h-45l430 580q-123 -68 -276 -68q-224 0 -363 130.5t-139 340.5t139 340.5t363 130.5t362.5 -130.5t138.5 -340.5zM123 983q0 -188 122.5 -311t338.5 -123q109 0 197 33.5t145 92.5t87.5 138t30.5 170t-30.5 170t-87.5 138t-145 92.5
t-197 33.5q-216 0 -338.5 -123t-122.5 -311z" />
    <glyph glyph-name="zero.dnom" horiz-adv-x="839" 
d="M420 -25q-154 0 -246 120t-92 315t92 314.5t246 119.5t246 -119.5t92 -314.5t-92 -315t-246 -120zM420 12q137 0 217 108t80 290t-80 289.5t-217 107.5t-217 -107.5t-80 -289.5t80 -290t217 -108z" />
    <glyph glyph-name="one.dnom" horiz-adv-x="501" 
d="M317 819h21v-819h-41v766l-244 -90l-12 37z" />
    <glyph glyph-name="two.dnom" horiz-adv-x="708" 
d="M82 0v31l385 368q102 94 102 207q0 82 -58.5 141.5t-160.5 59.5q-85 0 -144.5 -43t-80.5 -111l-35 19q24 76 93 124t169 48q119 0 188.5 -68.5t69.5 -169.5q0 -122 -112 -231l-355 -338h484v-37h-545z" />
    <glyph glyph-name="three.dnom" horiz-adv-x="702" 
d="M362 483q117 -9 182.5 -80t65.5 -174q0 -108 -72.5 -181t-201.5 -73q-103 0 -169.5 41t-94.5 111l32 18q54 -133 232 -133q114 0 173.5 62t59.5 155t-59.5 155t-173.5 62h-6l-19 27l226 309h-445v37h488v-37z" />
    <glyph glyph-name="four.dnom" horiz-adv-x="735" 
d="M674 221v-37h-127v-184h-41v184h-465v37l315 598h41l-313 -598h422v248h41v-248h127z" />
    <glyph glyph-name="five.dnom" horiz-adv-x="688" 
d="M332 483q122 0 197 -71.5t75 -182.5t-75 -182.5t-197 -71.5q-96 0 -162 39t-98 107l32 18q56 -127 228 -127q104 0 167.5 58.5t63.5 158.5t-63.5 158.5t-167.5 58.5h-226l31 373h434v-37h-397l-27 -299h185z" />
    <glyph glyph-name="six.dnom" horiz-adv-x="686" 
d="M342 506q120 0 201.5 -74t81.5 -190q0 -117 -81.5 -192t-201.5 -75q-119 0 -200 75t-81 192q0 74 37 137l287 440h45l-223 -344q60 31 135 31zM342 12q103 0 172.5 64t69.5 166q0 101 -69.5 164t-172.5 63q-102 0 -171 -63t-69 -164q0 -102 69 -166t171 -64z" />
    <glyph glyph-name="seven.dnom" horiz-adv-x="688" 
d="M61 819h545v-33l-344 -786h-45l342 782h-498v37z" />
    <glyph glyph-name="eight.dnom" horiz-adv-x="727" 
d="M475 430q77 -25 123.5 -84t46.5 -139q0 -105 -78 -168.5t-202 -63.5q-126 0 -204.5 63.5t-78.5 168.5q0 80 47 139t125 84q-65 24 -105 74t-40 117q0 103 73.5 163t182.5 60q107 0 180 -60t73 -163q0 -67 -39.5 -117t-103.5 -74zM150 621q0 -79 64 -127t151 -48
q86 0 149.5 48.5t63.5 126.5q0 87 -61 136.5t-152 49.5q-92 0 -153.5 -49.5t-61.5 -136.5zM365 12q106 0 172.5 53t66.5 142q0 92 -68 147.5t-171 55.5q-105 0 -173.5 -55.5t-68.5 -147.5q0 -89 67.5 -142t174.5 -53z" />
    <glyph glyph-name="nine.dnom" horiz-adv-x="686" 
d="M625 578q0 -75 -37 -138l-287 -440h-45l223 344q-60 -31 -135 -31q-120 0 -201.5 74.5t-81.5 190.5q0 117 81.5 191.5t201.5 74.5q119 0 200 -74.5t81 -191.5zM102 578q0 -101 69.5 -164.5t172.5 -63.5q102 0 171 63.5t69 164.5q0 102 -69 165.5t-171 63.5
q-103 0 -172.5 -63.5t-69.5 -165.5z" />
    <glyph glyph-name="zero.numr" horiz-adv-x="839" 
d="M420 590q-154 0 -246 119.5t-92 314.5t92 314.5t246 119.5t246 -119.5t92 -314.5t-92 -314.5t-246 -119.5zM420 627q137 0 217 107.5t80 289.5t-80 289.5t-217 107.5t-217 -107.5t-80 -289.5t80 -289.5t217 -107.5z" />
    <glyph glyph-name="one.numr" horiz-adv-x="501" 
d="M317 1434h21v-820h-41v766l-244 -90l-12 37z" />
    <glyph glyph-name="two.numr" horiz-adv-x="708" 
d="M82 614v31l385 369q102 94 102 207q0 82 -58.5 141t-160.5 59q-85 0 -144.5 -42.5t-80.5 -110.5l-35 18q24 76 93 124t169 48q119 0 188.5 -68t69.5 -169q0 -123 -112 -232l-355 -338h484v-37h-545z" />
    <glyph glyph-name="three.numr" horiz-adv-x="702" 
d="M362 1098q117 -9 182.5 -80t65.5 -174q0 -108 -72.5 -181t-201.5 -73q-103 0 -169.5 41t-94.5 110l32 19q54 -133 232 -133q114 0 173.5 62t59.5 155t-59.5 155t-173.5 62h-6l-19 26l226 310h-445v37h488v-37z" />
    <glyph glyph-name="four.numr" horiz-adv-x="735" 
d="M674 836v-37h-127v-185h-41v185h-465v37l315 598h41l-313 -598h422v247h41v-247h127z" />
    <glyph glyph-name="five.numr" horiz-adv-x="688" 
d="M332 1098q122 0 197 -71.5t75 -182.5t-75 -182.5t-197 -71.5q-96 0 -162 38.5t-98 106.5l32 19q56 -127 228 -127q104 0 167.5 58.5t63.5 158.5t-63.5 158.5t-167.5 58.5h-226l31 373h434v-37h-397l-27 -299h185z" />
    <glyph glyph-name="six.numr" horiz-adv-x="686" 
d="M342 1120q120 0 201.5 -74t81.5 -190q0 -117 -81.5 -191.5t-201.5 -74.5q-119 0 -200 74.5t-81 191.5q0 74 37 137l287 441h45l-223 -344q59 30 135 30zM342 627q103 0 172.5 63.5t69.5 165.5q0 101 -69.5 164t-172.5 63q-102 0 -171 -63t-69 -164q0 -102 69 -165.5
t171 -63.5z" />
    <glyph glyph-name="seven.numr" horiz-adv-x="688" 
d="M61 1434h545v-33l-344 -787h-45l342 783h-498v37z" />
    <glyph glyph-name="eight.numr" horiz-adv-x="727" 
d="M475 1044q77 -25 123.5 -84t46.5 -139q0 -105 -78 -168t-202 -63q-126 0 -204.5 63t-78.5 168q0 80 47 139t125 84q-65 24 -105 74t-40 117q0 103 73.5 163t182.5 60q107 0 180 -60t73 -163q0 -67 -39.5 -117t-103.5 -74zM150 1235q0 -79 63.5 -126.5t151.5 -47.5
q86 0 149.5 48t63.5 126q0 87 -61 136.5t-152 49.5q-92 0 -153.5 -49.5t-61.5 -136.5zM365 627q106 0 172.5 52.5t66.5 141.5q0 92 -68 147.5t-171 55.5q-105 0 -173.5 -55.5t-68.5 -147.5q0 -89 67 -141.5t175 -52.5z" />
    <glyph glyph-name="nine.numr" horiz-adv-x="686" 
d="M625 1192q0 -74 -37 -137l-287 -441h-45l223 344q-59 -30 -135 -30q-120 0 -201.5 74t-81.5 190q0 117 81.5 191.5t201.5 74.5q119 0 200 -74.5t81 -191.5zM102 1192q0 -101 69.5 -164t172.5 -63q102 0 171 63t69 164q0 102 -69 165.5t-171 63.5q-103 0 -172.5 -63.5
t-69.5 -165.5z" />
    <glyph glyph-name="zero.sups" horiz-adv-x="839" 
d="M420 918q-154 0 -246 119.5t-92 314.5t92 314.5t246 119.5t246 -119.5t92 -314.5t-92 -314.5t-246 -119.5zM420 954q137 0 217 108t80 290t-80 289.5t-217 107.5t-217 -107.5t-80 -289.5t80 -290t217 -108z" />
    <glyph glyph-name="one.sups" horiz-adv-x="501" 
d="M317 1761h21v-819h-41v766l-244 -90l-12 37z" />
    <glyph glyph-name="two.sups" horiz-adv-x="708" 
d="M82 942v31l385 368q102 94 102 207q0 82 -58.5 141.5t-160.5 59.5q-85 0 -144.5 -43t-80.5 -111l-35 19q24 76 93 124t169 48q119 0 188.5 -68.5t69.5 -169.5q0 -122 -112 -231l-355 -338h484v-37h-545z" />
    <glyph glyph-name="three.sups" horiz-adv-x="702" 
d="M362 1425q117 -9 182.5 -80t65.5 -174q0 -108 -72 -180.5t-202 -72.5q-103 0 -169.5 41t-94.5 110l32 18q54 -133 232 -133q114 0 173.5 62t59.5 155t-59.5 155.5t-173.5 62.5h-6l-19 26l226 309h-445v37h488v-37z" />
    <glyph glyph-name="four.sups" horiz-adv-x="735" 
d="M674 1163v-37h-127v-184h-41v184h-465v37l315 598h41l-313 -598h422v248h41v-248h127z" />
    <glyph glyph-name="five.sups" horiz-adv-x="688" 
d="M332 1425q122 0 197 -71.5t75 -182.5t-75 -182t-197 -71q-96 0 -162 38.5t-98 106.5l32 18q56 -127 228 -127q104 0 167.5 58.5t63.5 158.5t-63.5 159t-167.5 59h-226l31 372h434v-37h-397l-27 -299h185z" />
    <glyph glyph-name="six.sups" horiz-adv-x="686" 
d="M342 1448q120 0 201.5 -74t81.5 -190q0 -117 -81.5 -191.5t-201.5 -74.5q-119 0 -200 74.5t-81 191.5q0 74 37 137l287 440h45l-223 -344q60 31 135 31zM342 954q103 0 172.5 64t69.5 166q0 101 -69.5 164t-172.5 63q-102 0 -171 -63t-69 -164q0 -102 69 -166t171 -64z
" />
    <glyph glyph-name="seven.sups" horiz-adv-x="688" 
d="M61 1761h545v-32l-344 -787h-45l342 782h-498v37z" />
    <glyph glyph-name="eight.sups" horiz-adv-x="727" 
d="M475 1372q77 -25 123.5 -84t46.5 -139q0 -105 -78 -168t-202 -63q-126 0 -204.5 63t-78.5 168q0 80 47 139t125 84q-65 24 -105 74t-40 117q0 103 73.5 163t182.5 60q107 0 180 -60t73 -163q0 -67 -39.5 -117t-103.5 -74zM150 1563q0 -79 63.5 -126.5t151.5 -47.5
q86 0 149.5 48t63.5 126q0 87 -61 136.5t-152 49.5q-92 0 -153.5 -49.5t-61.5 -136.5zM365 954q106 0 172.5 53t66.5 142q0 92 -68 147.5t-171 55.5q-105 0 -173.5 -55.5t-68.5 -147.5q0 -89 67.5 -142t174.5 -53z" />
    <glyph glyph-name="nine.sups" horiz-adv-x="686" 
d="M625 1520q0 -75 -37 -138l-287 -440h-45l223 344q-60 -31 -135 -31q-120 0 -201.5 74.5t-81.5 190.5q0 117 81.5 191.5t201.5 74.5q119 0 200 -74.5t81 -191.5zM102 1520q0 -101 69.5 -164.5t172.5 -63.5q102 0 171 63.5t69 164.5q0 102 -69 165.5t-171 63.5
q-103 0 -172.5 -63.5t-69.5 -165.5z" />
    <glyph glyph-name="cent.tf" 
d="M639 221q138 0 248.5 63.5t165.5 170.5l32 -21q-57 -115 -176.5 -182.5t-269.5 -67.5q-91 0 -170 27l-72 -211h-41l76 223q-149 59 -238.5 192t-89.5 302q0 226 153.5 379t381.5 153q58 0 133 -14l68 199h41l-72 -209q93 -29 164.5 -87.5t111.5 -138.5l-32 -20
q-78 155 -254 209l-320 -942q77 -25 160 -25zM145 717q0 -156 81.5 -279.5t217.5 -179.5l316 940q-52 14 -121 14q-213 0 -353.5 -142.5t-140.5 -352.5z" />
    <glyph glyph-name="dollar.tf" 
d="M1061 340q0 -160 -121 -258.5t-319 -101.5v-185h-41v185q-185 7 -310.5 88t-160.5 215l34 18q30 -124 143 -201t294 -84v703q-58 19 -88 30t-80.5 32t-78 39t-62 47t-52.5 60t-30.5 74t-12.5 93q0 154 114.5 256.5t289.5 103.5v184h41v-184q156 -7 259 -84.5t144 -216.5
l-35 -20q-75 267 -368 284v-672q2 -1 6 -2t6 -2q45 -16 68.5 -24.5t64 -23.5t62.5 -26.5t55 -28.5t51 -33t42 -37.5t36.5 -45t25.5 -51.5t18 -61t5 -70zM217 1094q0 -35 7 -65.5t16.5 -55t29 -47t35.5 -38.5t46 -33t50 -27.5t57 -24.5t59 -21.5t63 -21.5v657
q-84 -1 -153.5 -27.5t-115 -71.5t-70 -103t-24.5 -121zM621 16q189 3 294 94t105 230q0 67 -22.5 119.5t-51 85.5t-91 65.5t-105 48.5t-129.5 46v-689z" />
    <glyph glyph-name="Euro.tf" 
d="M692 16q126 0 221.5 73.5t139.5 207.5l32 -18q-47 -140 -151 -219.5t-242 -79.5q-212 0 -338.5 153.5t-154.5 423.5h-168v37h164q-5 97 -5 123q0 25 5 123h-164v37h168q28 270 154.5 423.5t338.5 153.5q138 0 242 -78.5t151 -218.5l-32 -18q-45 132 -141 205t-220 73
q-190 0 -307 -141.5t-145 -398.5h565v-37h-569q-5 -98 -5 -123t5 -123h569v-37h-565q28 -257 145 -399t307 -142z" />
    <glyph glyph-name="florin.tf" 
d="M725 1208q33 142 131 207t229 23v-41q-118 45 -203 -9.5t-116 -187.5l-107 -463h326v-39h-336l-205 -891q-33 -142 -131.5 -206.5t-230.5 -22.5v41q118 -45 204 9.5t117 187.5l205 882h-319v39h327z" />
    <glyph glyph-name="uni20BD.tf" 
d="M696 614h-450v-249h614v-37h-614v-328h-41v328h-185v37h185v249h-185v37h185v783h491q169 0 289.5 -120.5t120.5 -289.5t-120.5 -289.5t-289.5 -120.5zM246 1397v-746h450q152 0 260.5 109.5t108.5 263.5t-108.5 263.5t-260.5 109.5h-450z" />
    <glyph glyph-name="sterling.tf" 
d="M348 37h819v-37h-1085v37h225v579h-184v37h184v422q0 174 110.5 276.5t278.5 102.5q148 0 246.5 -71.5t138.5 -206.5l-34 -19q-73 260 -351 260q-159 0 -253.5 -94.5t-94.5 -247.5v-422h533v-37h-533v-579z" />
    <glyph glyph-name="yen.tf" 
d="M1116 1434l-502 -744h392v-37h-402v-225h402v-37h-402v-391h-41v391h-397v37h397v225h-397v37h387l-502 744h45l488 -725l487 725h45z" />
    <glyph glyph-name="brevecy" horiz-adv-x="573" 
d="M41 1231v33h491v-33h-491z" />
    </font>
</defs>
</svg>
